M48
; DRILL file {KiCad 7.0.9+1} date Fri 23 Feb 2024 03:47:57 PM PST
; FORMAT={-:-/ absolute / metric / decimal}
; #@! TF.CreationDate,2024-02-23T15:47:57-08:00
; #@! TF.GenerationSoftware,Kicad,Pcbnew,7.0.9+1
; #@! TF.FileFunction,Plated,1,4,PTH
FMAT,2
METRIC
; #@! TA.AperFunction,Plated,PTH,ViaDrill
T1C0.250
; #@! TA.AperFunction,Plated,PTH,ViaDrill
T2C0.300
; #@! TA.AperFunction,Plated,PTH,ComponentDrill
T3C0.356
; #@! TA.AperFunction,Plated,PTH,ComponentDrill
T4C0.460
; #@! TA.AperFunction,Plated,PTH,ComponentDrill
T5C1.000
; #@! TA.AperFunction,Plated,PTH,ComponentDrill
T6C3.200
%
G90
G05
T1
X100.5Y-61.5
X102.5Y-60.5
X126.5Y-91.0
X128.075Y-96.0
X133.0Y-72.5
X134.0Y-68.0
X134.5Y-51.5
X137.0Y-49.5
X137.5Y-65.0
X138.0Y-70.0
X138.049Y-66.0
X138.5Y-59.5
X138.5Y-71.5
X139.0Y-64.5
X139.5Y-71.5
X140.0Y-69.4
X141.049Y-56.965
X141.401Y-70.802
X141.519Y-61.981
X142.0Y-58.0
X142.0Y-59.5
X142.119Y-70.619
X142.361Y-62.0
X142.5Y-71.5
X142.85Y-62.839
X143.5Y-72.0
X144.9Y-62.8
X145.0Y-71.5
X145.7Y-69.4
X146.3Y-63.8
X146.6Y-67.2
X147.2Y-63.1
X148.25Y-64.1
X148.501Y-70.912
X148.95Y-68.5
X149.0Y-86.5
X149.5Y-62.0
X150.639Y-84.861
X152.0Y-83.5
X154.2Y-65.28
X155.5Y-70.0
X157.0Y-92.0
X161.244Y-74.0
X162.7Y-69.0
X163.0Y-70.9
X164.5Y-67.5
X164.951Y-68.5
T2
X102.0Y-21.5
X102.0Y-42.0
X104.5Y-101.0
X105.0Y-25.5
X105.0Y-39.0
X107.5Y-30.5
X111.5Y-27.5
X111.5Y-32.5
X117.0Y-29.0
X121.8Y-94.5
X123.0Y-65.0
X123.0Y-69.5
X129.5Y-71.0
X131.5Y-65.0
X131.7Y-94.4
X133.0Y-63.5
X133.0Y-65.5
X134.0Y-71.0
X134.0Y-73.5
X136.1Y-59.7
X136.5Y-74.0
X138.5Y-20.5
X138.5Y-56.0
X139.0Y-75.0
X140.5Y-51.025
X140.5Y-76.5
X142.5Y-76.5
X144.5Y-52.5
X146.5Y-76.5
X147.3Y-58.6
X147.5Y-52.5
X150.0Y-81.0
X150.5Y-20.0
X151.0Y-93.0
X152.0Y-62.0
X152.1Y-70.1
X152.5Y-60.5
X153.2Y-78.7
X153.5Y-72.5
X153.5Y-76.5
X153.92Y-58.21
X153.94Y-57.13
X153.99Y-56.06
X154.0Y-104.5
X154.35Y-59.23
X154.5Y-69.0
X154.67Y-55.33
X155.01Y-59.96
X155.5Y-72.5
X155.54Y-54.52
X155.76Y-60.75
X156.33Y-53.74
X156.44Y-61.48
X157.0Y-72.5
X157.31Y-53.45
X158.41Y-53.47
X158.5Y-72.5
X159.03Y-63.5
X159.03Y-64.5
X159.03Y-65.5
X160.0Y-72.5
X160.03Y-63.5
X160.03Y-64.5
X160.03Y-65.5
X160.5Y-58.2
X160.5Y-59.1
X160.5Y-60.0
X160.5Y-61.0
X161.03Y-63.5
X161.03Y-64.5
X161.03Y-65.5
X162.13Y-53.88
X162.81Y-53.2
X163.85Y-53.02
X164.0Y-104.5
X164.18Y-61.01
X164.19Y-63.93
X164.8Y-60.3
X164.84Y-53.03
X164.933Y-64.526
X165.62Y-59.63
X165.76Y-65.26
X165.79Y-53.15
X166.17Y-66.09
X166.26Y-58.94
X166.36Y-53.85
X166.58Y-67.0
X166.91Y-54.5
X166.92Y-58.26
X166.98Y-55.42
X166.98Y-56.4
X167.01Y-57.37
X167.5Y-75.0
T3
X141.4Y-65.1
X141.4Y-66.6
X141.4Y-68.1
X142.9Y-65.1
X142.9Y-66.6
X142.9Y-68.1
X144.4Y-65.1
X144.4Y-66.6
X144.4Y-68.1
T4
X168.06Y-58.24
X168.06Y-67.0
T5
X88.96Y-23.46
X88.96Y-26.0
X88.96Y-28.54
X88.96Y-31.08
X88.96Y-33.62
X88.96Y-36.16
X88.96Y-38.7
X88.96Y-41.24
X88.96Y-43.78
X88.96Y-46.32
X88.96Y-48.86
X88.96Y-51.4
X88.96Y-53.94
X88.96Y-56.48
X88.96Y-59.02
X88.96Y-61.56
X88.96Y-64.1
X88.96Y-66.64
X88.96Y-69.18
X88.96Y-71.72
X88.96Y-74.26
X88.96Y-76.8
X88.96Y-79.34
X88.96Y-81.88
X88.96Y-84.42
X88.96Y-86.96
X88.96Y-89.5
X88.96Y-92.04
X88.96Y-94.58
X88.96Y-97.12
X88.96Y-99.66
X88.96Y-102.2
X91.5Y-23.46
X91.5Y-26.0
X91.5Y-28.54
X91.5Y-31.08
X91.5Y-33.62
X91.5Y-36.16
X91.5Y-38.7
X91.5Y-41.24
X91.5Y-43.78
X91.5Y-46.32
X91.5Y-48.86
X91.5Y-51.4
X91.5Y-53.94
X91.5Y-56.48
X91.5Y-59.02
X91.5Y-61.56
X91.5Y-64.1
X91.5Y-66.64
X91.5Y-69.18
X91.5Y-71.72
X91.5Y-74.26
X91.5Y-76.8
X91.5Y-79.34
X91.5Y-81.88
X91.5Y-84.42
X91.5Y-86.96
X91.5Y-89.5
X91.5Y-92.04
X91.5Y-94.58
X91.5Y-97.12
X91.5Y-99.66
X91.5Y-102.2
X122.475Y-102.5
X125.015Y-102.5
X127.555Y-102.5
X135.45Y-102.9
X137.99Y-102.9
X140.53Y-102.9
X143.07Y-102.9
X145.61Y-102.9
X148.15Y-102.9
T6
X83.88Y-22.19
X83.88Y-102.2
X169.605Y-26.0
X169.605Y-99.66
T0
M30
