G04 #@! TF.GenerationSoftware,KiCad,Pcbnew,7.0.9+1*
G04 #@! TF.CreationDate,2024-02-23T15:47:33-08:00*
G04 #@! TF.ProjectId,hsl_radio,68736c5f-7261-4646-996f-2e6b69636164,1*
G04 #@! TF.SameCoordinates,Original*
G04 #@! TF.FileFunction,Soldermask,Top*
G04 #@! TF.FilePolarity,Negative*
%FSLAX46Y46*%
G04 Gerber Fmt 4.6, Leading zero omitted, Abs format (unit mm)*
G04 Created by KiCad (PCBNEW 7.0.9+1) date 2024-02-23 15:47:33*
%MOMM*%
%LPD*%
G01*
G04 APERTURE LIST*
G04 Aperture macros list*
%AMRoundRect*
0 Rectangle with rounded corners*
0 $1 Rounding radius*
0 $2 $3 $4 $5 $6 $7 $8 $9 X,Y pos of 4 corners*
0 Add a 4 corners polygon primitive as box body*
4,1,4,$2,$3,$4,$5,$6,$7,$8,$9,$2,$3,0*
0 Add four circle primitives for the rounded corners*
1,1,$1+$1,$2,$3*
1,1,$1+$1,$4,$5*
1,1,$1+$1,$6,$7*
1,1,$1+$1,$8,$9*
0 Add four rect primitives between the rounded corners*
20,1,$1+$1,$2,$3,$4,$5,0*
20,1,$1+$1,$4,$5,$6,$7,0*
20,1,$1+$1,$6,$7,$8,$9,0*
20,1,$1+$1,$8,$9,$2,$3,0*%
G04 Aperture macros list end*
%ADD10C,0.600000*%
%ADD11RoundRect,0.050800X-0.140000X-0.375000X0.140000X-0.375000X0.140000X0.375000X-0.140000X0.375000X0*%
%ADD12RoundRect,0.050800X0.375000X-0.140000X0.375000X0.140000X-0.375000X0.140000X-0.375000X-0.140000X0*%
%ADD13RoundRect,0.275800X0.225000X0.250000X-0.225000X0.250000X-0.225000X-0.250000X0.225000X-0.250000X0*%
%ADD14RoundRect,0.190800X-0.170000X0.140000X-0.170000X-0.140000X0.170000X-0.140000X0.170000X0.140000X0*%
%ADD15RoundRect,0.275800X-0.250000X0.225000X-0.250000X-0.225000X0.250000X-0.225000X0.250000X0.225000X0*%
%ADD16RoundRect,0.275800X0.250000X-0.225000X0.250000X0.225000X-0.250000X0.225000X-0.250000X-0.225000X0*%
%ADD17RoundRect,0.275800X-0.225000X-0.250000X0.225000X-0.250000X0.225000X0.250000X-0.225000X0.250000X0*%
%ADD18RoundRect,0.269550X-0.256250X0.218750X-0.256250X-0.218750X0.256250X-0.218750X0.256250X0.218750X0*%
%ADD19RoundRect,0.050800X1.200000X0.370000X-1.200000X0.370000X-1.200000X-0.370000X1.200000X-0.370000X0*%
%ADD20RoundRect,0.050800X-0.850000X0.850000X-0.850000X-0.850000X0.850000X-0.850000X0.850000X0.850000X0*%
%ADD21O,1.801600X1.801600*%
%ADD22RoundRect,0.050800X0.850000X-0.850000X0.850000X0.850000X-0.850000X0.850000X-0.850000X-0.850000X0*%
%ADD23RoundRect,0.050800X2.540000X1.145000X-2.540000X1.145000X-2.540000X-1.145000X2.540000X-1.145000X0*%
%ADD24RoundRect,0.050800X2.540000X1.210000X-2.540000X1.210000X-2.540000X-1.210000X2.540000X-1.210000X0*%
%ADD25RoundRect,0.300800X0.275000X0.700000X-0.275000X0.700000X-0.275000X-0.700000X0.275000X-0.700000X0*%
%ADD26RoundRect,0.269550X-0.218750X-0.256250X0.218750X-0.256250X0.218750X0.256250X-0.218750X0.256250X0*%
%ADD27RoundRect,0.269550X0.256250X-0.218750X0.256250X0.218750X-0.256250X0.218750X-0.256250X-0.218750X0*%
%ADD28RoundRect,0.250800X-0.200000X-0.275000X0.200000X-0.275000X0.200000X0.275000X-0.200000X0.275000X0*%
%ADD29RoundRect,0.250800X0.200000X0.275000X-0.200000X0.275000X-0.200000X-0.275000X0.200000X-0.275000X0*%
%ADD30RoundRect,0.250800X-0.275000X0.200000X-0.275000X-0.200000X0.275000X-0.200000X0.275000X0.200000X0*%
%ADD31RoundRect,0.250800X0.275000X-0.200000X0.275000X0.200000X-0.275000X0.200000X-0.275000X-0.200000X0*%
%ADD32RoundRect,0.050800X0.850000X-0.405000X0.850000X0.405000X-0.850000X0.405000X-0.850000X-0.405000X0*%
%ADD33RoundRect,0.050800X0.525000X-0.405000X0.525000X0.405000X-0.525000X0.405000X-0.525000X-0.405000X0*%
%ADD34RoundRect,0.050800X0.400000X-0.450000X0.400000X0.450000X-0.400000X0.450000X-0.400000X-0.450000X0*%
%ADD35RoundRect,0.050800X0.325000X0.200000X-0.325000X0.200000X-0.325000X-0.200000X0.325000X-0.200000X0*%
%ADD36RoundRect,0.050800X-0.501650X-0.279400X0.501650X-0.279400X0.501650X0.279400X-0.501650X0.279400X0*%
%ADD37C,2.101600*%
%ADD38RoundRect,0.525800X0.475000X2.075000X-0.475000X2.075000X-0.475000X-2.075000X0.475000X-2.075000X0*%
%ADD39RoundRect,0.050800X0.850000X0.850000X-0.850000X0.850000X-0.850000X-0.850000X0.850000X-0.850000X0*%
%ADD40C,6.501600*%
%ADD41RoundRect,0.050800X-0.175000X0.500000X-0.175000X-0.500000X0.175000X-0.500000X0.175000X0.500000X0*%
%ADD42RoundRect,0.050800X0.304800X0.304800X-0.304800X0.304800X-0.304800X-0.304800X0.304800X-0.304800X0*%
%ADD43RoundRect,0.050800X-0.304800X0.228600X-0.304800X-0.228600X0.304800X-0.228600X0.304800X0.228600X0*%
%ADD44RoundRect,0.050800X0.228600X0.304800X-0.228600X0.304800X-0.228600X-0.304800X0.228600X-0.304800X0*%
%ADD45RoundRect,0.050800X1.943100X1.943100X-1.943100X1.943100X-1.943100X-1.943100X1.943100X-1.943100X0*%
%ADD46RoundRect,0.050800X0.650000X-0.800000X0.650000X0.800000X-0.650000X0.800000X-0.650000X-0.800000X0*%
G04 APERTURE END LIST*
D10*
X144400000Y-67350000D02*
X141400000Y-67350000D01*
X141400000Y-65850000D02*
X144400000Y-65850000D01*
X143650000Y-65100000D02*
X143650000Y-68100000D01*
X142150000Y-65100000D02*
X142150000Y-68100000D01*
D11*
X142900000Y-63820000D03*
X143400000Y-63820000D03*
X143900000Y-63820000D03*
X144400000Y-63820000D03*
X144900000Y-63820000D03*
X142400000Y-63820000D03*
X141900000Y-63820000D03*
X141400000Y-63820000D03*
X140900000Y-63820000D03*
D12*
X145680000Y-66600000D03*
X145680000Y-67100000D03*
X145680000Y-67600000D03*
X145680000Y-68100000D03*
X145680000Y-68600000D03*
X145680000Y-64600000D03*
X145680000Y-65100000D03*
X145680000Y-65600000D03*
X145680000Y-66100000D03*
D11*
X142900000Y-69380000D03*
X142400000Y-69380000D03*
X141900000Y-69380000D03*
X141400000Y-69380000D03*
X140900000Y-69380000D03*
X144900000Y-69380000D03*
X144400000Y-69380000D03*
X143900000Y-69380000D03*
X143400000Y-69380000D03*
D12*
X140120000Y-66600000D03*
X140120000Y-66100000D03*
X140120000Y-65600000D03*
X140120000Y-65100000D03*
X140120000Y-64600000D03*
X140120000Y-68600000D03*
X140120000Y-68100000D03*
X140120000Y-67600000D03*
X140120000Y-67100000D03*
D13*
X136775000Y-71500000D03*
X135225000Y-71500000D03*
D14*
X139000000Y-73020000D03*
X139000000Y-73980000D03*
D15*
X140500000Y-73225000D03*
X140500000Y-74775000D03*
D16*
X104000000Y-28775000D03*
X104000000Y-27225000D03*
D15*
X142500000Y-73225000D03*
X142500000Y-74775000D03*
X167500000Y-72225000D03*
X167500000Y-73775000D03*
D14*
X138000000Y-73040000D03*
X138000000Y-74000000D03*
D15*
X157000000Y-69225000D03*
X157000000Y-70775000D03*
X144500000Y-54225000D03*
X144500000Y-55775000D03*
X146500000Y-73225000D03*
X146500000Y-74775000D03*
X101000000Y-23725000D03*
X101000000Y-25275000D03*
X102000000Y-38725000D03*
X102000000Y-40275000D03*
D16*
X144000000Y-61775000D03*
X144000000Y-60225000D03*
X140500000Y-54775000D03*
X140500000Y-53225000D03*
D15*
X151300000Y-67525000D03*
X151300000Y-69075000D03*
D17*
X149725000Y-78700000D03*
X151275000Y-78700000D03*
D13*
X155775000Y-63000000D03*
X154225000Y-63000000D03*
D15*
X158500000Y-69225000D03*
X158500000Y-70775000D03*
X160000000Y-69225000D03*
X160000000Y-70775000D03*
X147500000Y-54225000D03*
X147500000Y-55775000D03*
D18*
X142000000Y-20212500D03*
X142000000Y-21787500D03*
X147500000Y-19925000D03*
X147500000Y-21500000D03*
D19*
X160950000Y-104040000D03*
X157050000Y-104040000D03*
X160950000Y-102770000D03*
X157050000Y-102770000D03*
X160950000Y-101500000D03*
X157050000Y-101500000D03*
X160950000Y-100230000D03*
X157050000Y-100230000D03*
X160950000Y-98960000D03*
X157050000Y-98960000D03*
D20*
X148150000Y-102900000D03*
D21*
X145610000Y-102900000D03*
X143070000Y-102900000D03*
X140530000Y-102900000D03*
X137990000Y-102900000D03*
X135450000Y-102900000D03*
D22*
X122475000Y-102500000D03*
D21*
X125015000Y-102500000D03*
X127555000Y-102500000D03*
D23*
X171500000Y-62620000D03*
D24*
X171500000Y-67000000D03*
X171500000Y-58240000D03*
D25*
X100075000Y-38000000D03*
X96925000Y-38000000D03*
D26*
X135212500Y-70000000D03*
X136787500Y-70000000D03*
D27*
X153100000Y-69187500D03*
X153100000Y-67612500D03*
D28*
X123275000Y-94500000D03*
X124925000Y-94500000D03*
D29*
X129725000Y-94400000D03*
X128075000Y-94400000D03*
D30*
X142000000Y-23675000D03*
X142000000Y-25325000D03*
X147500000Y-23137500D03*
X147500000Y-24787500D03*
X135500000Y-98475000D03*
X135500000Y-100125000D03*
X145700000Y-98375000D03*
X145700000Y-100025000D03*
X138000000Y-98475000D03*
X138000000Y-100125000D03*
X140400000Y-98475000D03*
X140400000Y-100125000D03*
D29*
X99500000Y-65000000D03*
X97850000Y-65000000D03*
X99500000Y-63000000D03*
X97850000Y-63000000D03*
X99500000Y-59000000D03*
X97850000Y-59000000D03*
X99500000Y-61000000D03*
X97850000Y-61000000D03*
D30*
X127900000Y-97775000D03*
X127900000Y-99425000D03*
X125100000Y-97775000D03*
X125100000Y-99425000D03*
X146300000Y-60175000D03*
X146300000Y-61825000D03*
D29*
X149825000Y-70000000D03*
X148175000Y-70000000D03*
X158325000Y-94500000D03*
X156675000Y-94500000D03*
X126475000Y-65000000D03*
X124825000Y-65000000D03*
X129975000Y-65000000D03*
X128325000Y-65000000D03*
X126475000Y-69500000D03*
X124825000Y-69500000D03*
X130150000Y-69500000D03*
X128500000Y-69500000D03*
D28*
X134175000Y-65500000D03*
X135825000Y-65500000D03*
D29*
X154325000Y-94500000D03*
X152675000Y-94500000D03*
X135825000Y-63500000D03*
X134175000Y-63500000D03*
D30*
X169250000Y-72175000D03*
X169250000Y-73825000D03*
D31*
X165500000Y-73825000D03*
X165500000Y-72175000D03*
D32*
X159750000Y-54810000D03*
D33*
X159425000Y-56000000D03*
X159425000Y-57190000D03*
X161575000Y-57190000D03*
X161575000Y-56000000D03*
X161575000Y-54810000D03*
D34*
X137550000Y-59700000D03*
X139450000Y-59700000D03*
X138500000Y-57700000D03*
D35*
X153020000Y-65970000D03*
X153020000Y-64670000D03*
X151120000Y-65320000D03*
X153020000Y-65320000D03*
X151120000Y-64670000D03*
X151120000Y-65970000D03*
D31*
X144500000Y-74825000D03*
X144500000Y-73175000D03*
D16*
X112500000Y-26275000D03*
X112500000Y-24725000D03*
D36*
X106147450Y-26549999D03*
X106147450Y-27500000D03*
X106147450Y-28450001D03*
X108852550Y-28450001D03*
X108852550Y-27500000D03*
X108852550Y-26549999D03*
D37*
X102000000Y-101000000D03*
D30*
X111500000Y-29175000D03*
X111500000Y-30825000D03*
D37*
X167500000Y-78000000D03*
D38*
X109600000Y-21500000D03*
X105400000Y-21500000D03*
D29*
X115325000Y-29000000D03*
X113675000Y-29000000D03*
D39*
X91500000Y-102200000D03*
D21*
X88960000Y-102200000D03*
X91500000Y-99660000D03*
X88960000Y-99660000D03*
X91500000Y-97120000D03*
X88960000Y-97120000D03*
X91500000Y-94580000D03*
X88960000Y-94580000D03*
X91500000Y-92040000D03*
X88960000Y-92040000D03*
X91500000Y-89500000D03*
X88960000Y-89500000D03*
X91500000Y-86960000D03*
X88960000Y-86960000D03*
X91500000Y-84420000D03*
X88960000Y-84420000D03*
X91500000Y-81880000D03*
X88960000Y-81880000D03*
X91500000Y-79340000D03*
X88960000Y-79340000D03*
X91500000Y-76800000D03*
X88960000Y-76800000D03*
X91500000Y-74260000D03*
X88960000Y-74260000D03*
X91500000Y-71720000D03*
X88960000Y-71720000D03*
X91500000Y-69180000D03*
X88960000Y-69180000D03*
X91500000Y-66640000D03*
X88960000Y-66640000D03*
X91500000Y-64100000D03*
X88960000Y-64100000D03*
X91500000Y-61560000D03*
X88960000Y-61560000D03*
X91500000Y-59020000D03*
X88960000Y-59020000D03*
X91500000Y-56480000D03*
X88960000Y-56480000D03*
X91500000Y-53940000D03*
X88960000Y-53940000D03*
X91500000Y-51400000D03*
X88960000Y-51400000D03*
X91500000Y-48860000D03*
X88960000Y-48860000D03*
X91500000Y-46320000D03*
X88960000Y-46320000D03*
X91500000Y-43780000D03*
X88960000Y-43780000D03*
X91500000Y-41240000D03*
X88960000Y-41240000D03*
X91500000Y-38700000D03*
X88960000Y-38700000D03*
X91500000Y-36160000D03*
X88960000Y-36160000D03*
X91500000Y-33620000D03*
X88960000Y-33620000D03*
X91500000Y-31080000D03*
X88960000Y-31080000D03*
X91500000Y-28540000D03*
X88960000Y-28540000D03*
X91500000Y-26000000D03*
X88960000Y-26000000D03*
X91500000Y-23460000D03*
X88960000Y-23460000D03*
D40*
X169605000Y-99660000D03*
X169605000Y-26000000D03*
X83880000Y-102200000D03*
X83880000Y-22190000D03*
D25*
X99075000Y-28500000D03*
X95925000Y-28500000D03*
D41*
X148950000Y-65400000D03*
X148300000Y-65400000D03*
X147650000Y-65400000D03*
X147650000Y-67200000D03*
X148300000Y-67200000D03*
X148950000Y-67200000D03*
D37*
X120500000Y-29000000D03*
X142500000Y-81000000D03*
D42*
X163220207Y-67737021D03*
D43*
X163220195Y-66750000D03*
X163220195Y-65999999D03*
X163220195Y-65250001D03*
X163220195Y-64499999D03*
X163220195Y-63750001D03*
X163220195Y-63000000D03*
D42*
X163220207Y-62013995D03*
D44*
X162250001Y-62012992D03*
X161500000Y-62012992D03*
X160750002Y-62012992D03*
X160000000Y-62012992D03*
X159250002Y-62012992D03*
X158500001Y-62012992D03*
D42*
X157529795Y-62013995D03*
D43*
X157529807Y-63000000D03*
X157529807Y-63750001D03*
X157529807Y-64499999D03*
X157529807Y-65250001D03*
X157529807Y-65999999D03*
X157529807Y-66750000D03*
D42*
X157529795Y-67737021D03*
D44*
X158500001Y-67737008D03*
X159250002Y-67737008D03*
X160000000Y-67737008D03*
X160750002Y-67737008D03*
X161500000Y-67737008D03*
X162250001Y-67737008D03*
D45*
X160375001Y-64875000D03*
D37*
X114000000Y-36000000D03*
D46*
X151750000Y-76550000D03*
X151750000Y-72450000D03*
X149250000Y-72450000D03*
X149250000Y-76550000D03*
D15*
X103000000Y-23725000D03*
X103000000Y-25275000D03*
D37*
X161500000Y-79500000D03*
M02*
