G04 #@! TF.GenerationSoftware,KiCad,Pcbnew,7.0.9+1*
G04 #@! TF.CreationDate,2024-02-23T15:47:32-08:00*
G04 #@! TF.ProjectId,hsl_radio,68736c5f-7261-4646-996f-2e6b69636164,1*
G04 #@! TF.SameCoordinates,Original*
G04 #@! TF.FileFunction,Copper,L1,Top*
G04 #@! TF.FilePolarity,Positive*
%FSLAX46Y46*%
G04 Gerber Fmt 4.6, Leading zero omitted, Abs format (unit mm)*
G04 Created by KiCad (PCBNEW 7.0.9+1) date 2024-02-23 15:47:32*
%MOMM*%
%LPD*%
G01*
G04 APERTURE LIST*
G04 Aperture macros list*
%AMRoundRect*
0 Rectangle with rounded corners*
0 $1 Rounding radius*
0 $2 $3 $4 $5 $6 $7 $8 $9 X,Y pos of 4 corners*
0 Add a 4 corners polygon primitive as box body*
4,1,4,$2,$3,$4,$5,$6,$7,$8,$9,$2,$3,0*
0 Add four circle primitives for the rounded corners*
1,1,$1+$1,$2,$3*
1,1,$1+$1,$4,$5*
1,1,$1+$1,$6,$7*
1,1,$1+$1,$8,$9*
0 Add four rect primitives between the rounded corners*
20,1,$1+$1,$2,$3,$4,$5,0*
20,1,$1+$1,$4,$5,$6,$7,0*
20,1,$1+$1,$6,$7,$8,$9,0*
20,1,$1+$1,$8,$9,$2,$3,0*%
G04 Aperture macros list end*
G04 #@! TA.AperFunction,ComponentPad*
%ADD10C,0.609600*%
G04 #@! TD*
G04 #@! TA.AperFunction,SMDPad,CuDef*
%ADD11R,0.280000X0.750000*%
G04 #@! TD*
G04 #@! TA.AperFunction,SMDPad,CuDef*
%ADD12R,0.750000X0.280000*%
G04 #@! TD*
G04 #@! TA.AperFunction,SMDPad,CuDef*
%ADD13R,4.400000X4.400000*%
G04 #@! TD*
G04 #@! TA.AperFunction,SMDPad,CuDef*
%ADD14RoundRect,0.225000X0.225000X0.250000X-0.225000X0.250000X-0.225000X-0.250000X0.225000X-0.250000X0*%
G04 #@! TD*
G04 #@! TA.AperFunction,SMDPad,CuDef*
%ADD15RoundRect,0.140000X-0.170000X0.140000X-0.170000X-0.140000X0.170000X-0.140000X0.170000X0.140000X0*%
G04 #@! TD*
G04 #@! TA.AperFunction,SMDPad,CuDef*
%ADD16RoundRect,0.225000X-0.250000X0.225000X-0.250000X-0.225000X0.250000X-0.225000X0.250000X0.225000X0*%
G04 #@! TD*
G04 #@! TA.AperFunction,SMDPad,CuDef*
%ADD17RoundRect,0.225000X0.250000X-0.225000X0.250000X0.225000X-0.250000X0.225000X-0.250000X-0.225000X0*%
G04 #@! TD*
G04 #@! TA.AperFunction,SMDPad,CuDef*
%ADD18RoundRect,0.225000X-0.225000X-0.250000X0.225000X-0.250000X0.225000X0.250000X-0.225000X0.250000X0*%
G04 #@! TD*
G04 #@! TA.AperFunction,SMDPad,CuDef*
%ADD19RoundRect,0.218750X-0.256250X0.218750X-0.256250X-0.218750X0.256250X-0.218750X0.256250X0.218750X0*%
G04 #@! TD*
G04 #@! TA.AperFunction,SMDPad,CuDef*
%ADD20R,2.400000X0.740000*%
G04 #@! TD*
G04 #@! TA.AperFunction,ComponentPad*
%ADD21R,1.700000X1.700000*%
G04 #@! TD*
G04 #@! TA.AperFunction,ComponentPad*
%ADD22O,1.700000X1.700000*%
G04 #@! TD*
G04 #@! TA.AperFunction,SMDPad,CuDef*
%ADD23R,5.080000X2.290000*%
G04 #@! TD*
G04 #@! TA.AperFunction,SMDPad,CuDef*
%ADD24R,0.950000X0.460000*%
G04 #@! TD*
G04 #@! TA.AperFunction,ComponentPad*
%ADD25C,0.970000*%
G04 #@! TD*
G04 #@! TA.AperFunction,SMDPad,CuDef*
%ADD26R,5.080000X2.420000*%
G04 #@! TD*
G04 #@! TA.AperFunction,SMDPad,CuDef*
%ADD27RoundRect,0.250000X0.275000X0.700000X-0.275000X0.700000X-0.275000X-0.700000X0.275000X-0.700000X0*%
G04 #@! TD*
G04 #@! TA.AperFunction,SMDPad,CuDef*
%ADD28RoundRect,0.218750X-0.218750X-0.256250X0.218750X-0.256250X0.218750X0.256250X-0.218750X0.256250X0*%
G04 #@! TD*
G04 #@! TA.AperFunction,SMDPad,CuDef*
%ADD29RoundRect,0.218750X0.256250X-0.218750X0.256250X0.218750X-0.256250X0.218750X-0.256250X-0.218750X0*%
G04 #@! TD*
G04 #@! TA.AperFunction,SMDPad,CuDef*
%ADD30RoundRect,0.200000X-0.200000X-0.275000X0.200000X-0.275000X0.200000X0.275000X-0.200000X0.275000X0*%
G04 #@! TD*
G04 #@! TA.AperFunction,SMDPad,CuDef*
%ADD31RoundRect,0.200000X0.200000X0.275000X-0.200000X0.275000X-0.200000X-0.275000X0.200000X-0.275000X0*%
G04 #@! TD*
G04 #@! TA.AperFunction,SMDPad,CuDef*
%ADD32RoundRect,0.200000X-0.275000X0.200000X-0.275000X-0.200000X0.275000X-0.200000X0.275000X0.200000X0*%
G04 #@! TD*
G04 #@! TA.AperFunction,SMDPad,CuDef*
%ADD33RoundRect,0.200000X0.275000X-0.200000X0.275000X0.200000X-0.275000X0.200000X-0.275000X-0.200000X0*%
G04 #@! TD*
G04 #@! TA.AperFunction,SMDPad,CuDef*
%ADD34R,1.700000X0.810000*%
G04 #@! TD*
G04 #@! TA.AperFunction,SMDPad,CuDef*
%ADD35R,1.050000X0.810000*%
G04 #@! TD*
G04 #@! TA.AperFunction,SMDPad,CuDef*
%ADD36R,0.800000X0.900000*%
G04 #@! TD*
G04 #@! TA.AperFunction,SMDPad,CuDef*
%ADD37R,0.650000X0.400000*%
G04 #@! TD*
G04 #@! TA.AperFunction,SMDPad,CuDef*
%ADD38R,1.003300X0.558800*%
G04 #@! TD*
G04 #@! TA.AperFunction,SMDPad,CuDef*
%ADD39C,2.000000*%
G04 #@! TD*
G04 #@! TA.AperFunction,SMDPad,CuDef*
%ADD40RoundRect,0.475000X0.475000X2.075000X-0.475000X2.075000X-0.475000X-2.075000X0.475000X-2.075000X0*%
G04 #@! TD*
G04 #@! TA.AperFunction,ComponentPad*
%ADD41C,6.400000*%
G04 #@! TD*
G04 #@! TA.AperFunction,SMDPad,CuDef*
%ADD42R,0.350000X1.000000*%
G04 #@! TD*
G04 #@! TA.AperFunction,SMDPad,CuDef*
%ADD43R,0.609600X0.609600*%
G04 #@! TD*
G04 #@! TA.AperFunction,SMDPad,CuDef*
%ADD44R,0.609600X0.457200*%
G04 #@! TD*
G04 #@! TA.AperFunction,SMDPad,CuDef*
%ADD45R,0.457200X0.609600*%
G04 #@! TD*
G04 #@! TA.AperFunction,SMDPad,CuDef*
%ADD46R,3.886200X3.886200*%
G04 #@! TD*
G04 #@! TA.AperFunction,SMDPad,CuDef*
%ADD47R,1.300000X1.600000*%
G04 #@! TD*
G04 #@! TA.AperFunction,ViaPad*
%ADD48C,0.500000*%
G04 #@! TD*
G04 #@! TA.AperFunction,ViaPad*
%ADD49C,0.800000*%
G04 #@! TD*
G04 #@! TA.AperFunction,Conductor*
%ADD50C,0.300000*%
G04 #@! TD*
G04 #@! TA.AperFunction,Conductor*
%ADD51C,0.600000*%
G04 #@! TD*
G04 #@! TA.AperFunction,Conductor*
%ADD52C,0.400000*%
G04 #@! TD*
G04 #@! TA.AperFunction,Conductor*
%ADD53C,0.200000*%
G04 #@! TD*
G04 #@! TA.AperFunction,Conductor*
%ADD54C,0.349250*%
G04 #@! TD*
G04 #@! TA.AperFunction,Conductor*
%ADD55C,0.203200*%
G04 #@! TD*
G04 APERTURE END LIST*
D10*
X142900000Y-68100000D03*
X144400000Y-68100000D03*
X144400000Y-65100000D03*
X142900000Y-65100000D03*
X141400000Y-65100000D03*
D11*
X142900000Y-63820000D03*
X143400000Y-63820000D03*
X143900000Y-63820000D03*
X144400000Y-63820000D03*
X144900000Y-63820000D03*
X142400000Y-63820000D03*
X141900000Y-63820000D03*
X141400000Y-63820000D03*
X140900000Y-63820000D03*
D12*
X145680000Y-66600000D03*
X145680000Y-67100000D03*
X145680000Y-67600000D03*
X145680000Y-68100000D03*
X145680000Y-68600000D03*
X145680000Y-64600000D03*
X145680000Y-65100000D03*
X145680000Y-65600000D03*
X145680000Y-66100000D03*
D11*
X142900000Y-69380000D03*
X142400000Y-69380000D03*
X141900000Y-69380000D03*
X141400000Y-69380000D03*
X140900000Y-69380000D03*
X144900000Y-69380000D03*
X144400000Y-69380000D03*
X143900000Y-69380000D03*
X143400000Y-69380000D03*
D12*
X140120000Y-66600000D03*
X140120000Y-66100000D03*
X140120000Y-65600000D03*
X140120000Y-65100000D03*
X140120000Y-64600000D03*
X140120000Y-68600000D03*
X140120000Y-68100000D03*
X140120000Y-67600000D03*
X140120000Y-67100000D03*
D13*
X142900000Y-66600000D03*
D10*
X141400000Y-68100000D03*
X144400000Y-66600000D03*
X142900000Y-66600000D03*
X141400000Y-66600000D03*
D14*
X136775000Y-71500000D03*
X135225000Y-71500000D03*
D15*
X139000000Y-73020000D03*
X139000000Y-73980000D03*
D16*
X140500000Y-73225000D03*
X140500000Y-74775000D03*
D17*
X104000000Y-28775000D03*
X104000000Y-27225000D03*
D16*
X142500000Y-73225000D03*
X142500000Y-74775000D03*
X167500000Y-72225000D03*
X167500000Y-73775000D03*
D15*
X138000000Y-73040000D03*
X138000000Y-74000000D03*
D16*
X157000000Y-69225000D03*
X157000000Y-70775000D03*
X144500000Y-54225000D03*
X144500000Y-55775000D03*
X146500000Y-73225000D03*
X146500000Y-74775000D03*
X101000000Y-23725000D03*
X101000000Y-25275000D03*
X102000000Y-38725000D03*
X102000000Y-40275000D03*
D17*
X144000000Y-61775000D03*
X144000000Y-60225000D03*
X140500000Y-54775000D03*
X140500000Y-53225000D03*
D16*
X151300000Y-67525000D03*
X151300000Y-69075000D03*
D18*
X149725000Y-78700000D03*
X151275000Y-78700000D03*
D14*
X155775000Y-63000000D03*
X154225000Y-63000000D03*
D16*
X158500000Y-69225000D03*
X158500000Y-70775000D03*
X160000000Y-69225000D03*
X160000000Y-70775000D03*
X147500000Y-54225000D03*
X147500000Y-55775000D03*
D19*
X142000000Y-20212500D03*
X142000000Y-21787500D03*
X147500000Y-19925000D03*
X147500000Y-21500000D03*
D20*
X160950000Y-104040000D03*
X157050000Y-104040000D03*
X160950000Y-102770000D03*
X157050000Y-102770000D03*
X160950000Y-101500000D03*
X157050000Y-101500000D03*
X160950000Y-100230000D03*
X157050000Y-100230000D03*
X160950000Y-98960000D03*
X157050000Y-98960000D03*
D21*
X148150000Y-102900000D03*
D22*
X145610000Y-102900000D03*
X143070000Y-102900000D03*
X140530000Y-102900000D03*
X137990000Y-102900000D03*
X135450000Y-102900000D03*
D21*
X122475000Y-102500000D03*
D22*
X125015000Y-102500000D03*
X127555000Y-102500000D03*
D23*
X171500000Y-62620000D03*
D24*
X168510000Y-67000000D03*
D25*
X168060000Y-58240000D03*
D26*
X171500000Y-67000000D03*
D24*
X168510000Y-58240000D03*
D26*
X171500000Y-58240000D03*
D25*
X168060000Y-67000000D03*
D27*
X100075000Y-38000000D03*
X96925000Y-38000000D03*
D28*
X135212500Y-70000000D03*
X136787500Y-70000000D03*
D29*
X153100000Y-69187500D03*
X153100000Y-67612500D03*
D30*
X123275000Y-94500000D03*
X124925000Y-94500000D03*
D31*
X129725000Y-94400000D03*
X128075000Y-94400000D03*
D32*
X142000000Y-23675000D03*
X142000000Y-25325000D03*
X147500000Y-23137500D03*
X147500000Y-24787500D03*
X135500000Y-98475000D03*
X135500000Y-100125000D03*
X145700000Y-98375000D03*
X145700000Y-100025000D03*
X138000000Y-98475000D03*
X138000000Y-100125000D03*
X140400000Y-98475000D03*
X140400000Y-100125000D03*
D31*
X99500000Y-65000000D03*
X97850000Y-65000000D03*
X99500000Y-63000000D03*
X97850000Y-63000000D03*
X99500000Y-59000000D03*
X97850000Y-59000000D03*
X99500000Y-61000000D03*
X97850000Y-61000000D03*
D32*
X127900000Y-97775000D03*
X127900000Y-99425000D03*
X125100000Y-97775000D03*
X125100000Y-99425000D03*
X146300000Y-60175000D03*
X146300000Y-61825000D03*
D31*
X149825000Y-70000000D03*
X148175000Y-70000000D03*
X158325000Y-94500000D03*
X156675000Y-94500000D03*
X126475000Y-65000000D03*
X124825000Y-65000000D03*
X129975000Y-65000000D03*
X128325000Y-65000000D03*
X126475000Y-69500000D03*
X124825000Y-69500000D03*
X130150000Y-69500000D03*
X128500000Y-69500000D03*
D30*
X134175000Y-65500000D03*
X135825000Y-65500000D03*
D31*
X154325000Y-94500000D03*
X152675000Y-94500000D03*
X135825000Y-63500000D03*
X134175000Y-63500000D03*
D32*
X169250000Y-72175000D03*
X169250000Y-73825000D03*
D33*
X165500000Y-73825000D03*
X165500000Y-72175000D03*
D34*
X159750000Y-54810000D03*
D35*
X159425000Y-56000000D03*
X159425000Y-57190000D03*
X161575000Y-57190000D03*
X161575000Y-56000000D03*
X161575000Y-54810000D03*
D36*
X137550000Y-59700000D03*
X139450000Y-59700000D03*
X138500000Y-57700000D03*
D37*
X153020000Y-65970000D03*
X153020000Y-64670000D03*
X151120000Y-65320000D03*
X153020000Y-65320000D03*
X151120000Y-64670000D03*
X151120000Y-65970000D03*
D33*
X144500000Y-74825000D03*
X144500000Y-73175000D03*
D17*
X112500000Y-26275000D03*
X112500000Y-24725000D03*
D38*
X106147450Y-26549999D03*
X106147450Y-27500000D03*
X106147450Y-28450001D03*
X108852550Y-28450001D03*
X108852550Y-27500000D03*
X108852550Y-26549999D03*
D39*
X102000000Y-101000000D03*
D32*
X111500000Y-29175000D03*
X111500000Y-30825000D03*
D39*
X167500000Y-78000000D03*
D40*
X109600000Y-21500000D03*
X105400000Y-21500000D03*
D31*
X115325000Y-29000000D03*
X113675000Y-29000000D03*
D21*
X91500000Y-102200000D03*
D22*
X88960000Y-102200000D03*
X91500000Y-99660000D03*
X88960000Y-99660000D03*
X91500000Y-97120000D03*
X88960000Y-97120000D03*
X91500000Y-94580000D03*
X88960000Y-94580000D03*
X91500000Y-92040000D03*
X88960000Y-92040000D03*
X91500000Y-89500000D03*
X88960000Y-89500000D03*
X91500000Y-86960000D03*
X88960000Y-86960000D03*
X91500000Y-84420000D03*
X88960000Y-84420000D03*
X91500000Y-81880000D03*
X88960000Y-81880000D03*
X91500000Y-79340000D03*
X88960000Y-79340000D03*
X91500000Y-76800000D03*
X88960000Y-76800000D03*
X91500000Y-74260000D03*
X88960000Y-74260000D03*
X91500000Y-71720000D03*
X88960000Y-71720000D03*
X91500000Y-69180000D03*
X88960000Y-69180000D03*
X91500000Y-66640000D03*
X88960000Y-66640000D03*
X91500000Y-64100000D03*
X88960000Y-64100000D03*
X91500000Y-61560000D03*
X88960000Y-61560000D03*
X91500000Y-59020000D03*
X88960000Y-59020000D03*
X91500000Y-56480000D03*
X88960000Y-56480000D03*
X91500000Y-53940000D03*
X88960000Y-53940000D03*
X91500000Y-51400000D03*
X88960000Y-51400000D03*
X91500000Y-48860000D03*
X88960000Y-48860000D03*
X91500000Y-46320000D03*
X88960000Y-46320000D03*
X91500000Y-43780000D03*
X88960000Y-43780000D03*
X91500000Y-41240000D03*
X88960000Y-41240000D03*
X91500000Y-38700000D03*
X88960000Y-38700000D03*
X91500000Y-36160000D03*
X88960000Y-36160000D03*
X91500000Y-33620000D03*
X88960000Y-33620000D03*
X91500000Y-31080000D03*
X88960000Y-31080000D03*
X91500000Y-28540000D03*
X88960000Y-28540000D03*
X91500000Y-26000000D03*
X88960000Y-26000000D03*
X91500000Y-23460000D03*
X88960000Y-23460000D03*
D41*
X169605000Y-99660000D03*
X169605000Y-26000000D03*
X83880000Y-102200000D03*
X83880000Y-22190000D03*
D27*
X99075000Y-28500000D03*
X95925000Y-28500000D03*
D42*
X148950000Y-65400000D03*
X148300000Y-65400000D03*
X147650000Y-65400000D03*
X147650000Y-67200000D03*
X148300000Y-67200000D03*
X148950000Y-67200000D03*
D39*
X120500000Y-29000000D03*
X142500000Y-81000000D03*
D43*
X163220207Y-67737021D03*
D44*
X163220195Y-66750000D03*
X163220195Y-65999999D03*
X163220195Y-65250001D03*
X163220195Y-64499999D03*
X163220195Y-63750001D03*
X163220195Y-63000000D03*
D43*
X163220207Y-62013995D03*
D45*
X162250001Y-62012992D03*
X161500000Y-62012992D03*
X160750002Y-62012992D03*
X160000000Y-62012992D03*
X159250002Y-62012992D03*
X158500001Y-62012992D03*
D43*
X157529795Y-62013995D03*
D44*
X157529807Y-63000000D03*
X157529807Y-63750001D03*
X157529807Y-64499999D03*
X157529807Y-65250001D03*
X157529807Y-65999999D03*
X157529807Y-66750000D03*
D43*
X157529795Y-67737021D03*
D45*
X158500001Y-67737008D03*
X159250002Y-67737008D03*
X160000000Y-67737008D03*
X160750002Y-67737008D03*
X161500000Y-67737008D03*
X162250001Y-67737008D03*
D46*
X160375001Y-64875000D03*
D39*
X114000000Y-36000000D03*
D47*
X151750000Y-76550000D03*
X151750000Y-72450000D03*
X149250000Y-72450000D03*
X149250000Y-76550000D03*
D16*
X103000000Y-23725000D03*
X103000000Y-25275000D03*
D39*
X161500000Y-79500000D03*
D48*
X146300000Y-63800000D03*
X138000000Y-70000000D03*
X144900000Y-62800000D03*
X142000000Y-59500000D03*
X145700000Y-69400000D03*
X145000000Y-71500000D03*
X139000000Y-64500000D03*
X142500000Y-71500000D03*
X140000000Y-69400000D03*
X146600000Y-67200000D03*
X138500000Y-71500000D03*
X139500000Y-71500000D03*
X141518899Y-61981101D03*
D49*
X164800000Y-60300000D03*
X153500000Y-76500000D03*
X157000000Y-72500000D03*
X166360000Y-53850000D03*
X158500000Y-72500000D03*
X133000000Y-63500000D03*
D48*
X154200000Y-65280000D03*
D49*
X160029807Y-65500000D03*
X160029807Y-64500000D03*
X150500000Y-20000000D03*
X164190000Y-63930000D03*
X159029807Y-63500000D03*
X166910000Y-54500000D03*
X161029807Y-63500000D03*
X147300000Y-58600000D03*
X164840000Y-53030000D03*
D48*
X148950000Y-68500000D03*
D49*
X154350000Y-59230000D03*
X164180000Y-61010000D03*
X146500000Y-76500000D03*
X161029807Y-65500000D03*
X166580000Y-67000000D03*
X160500000Y-58200000D03*
X158410000Y-53470000D03*
X162130000Y-53880000D03*
X159029807Y-64500000D03*
X131500000Y-65000000D03*
X154670000Y-55330000D03*
X136500000Y-74000000D03*
X167010000Y-57370000D03*
X167500000Y-75000000D03*
X153200000Y-78700000D03*
X142500000Y-76500000D03*
X153940000Y-57130000D03*
X157310000Y-53450000D03*
X104500000Y-101000000D03*
X153990000Y-56060000D03*
X166980000Y-55420000D03*
X166980000Y-56400000D03*
X138500000Y-20500000D03*
X139000000Y-75000000D03*
X156330000Y-53740000D03*
X166170000Y-66090000D03*
X160000000Y-72500000D03*
X166260000Y-58940000D03*
X155540000Y-54520000D03*
X162810000Y-53200000D03*
X165620000Y-59630000D03*
X134000000Y-73500000D03*
X153920000Y-58210000D03*
X161029807Y-64500000D03*
X147500000Y-52500000D03*
X105000000Y-25500000D03*
X164000000Y-104500000D03*
X111500000Y-32500000D03*
X140500000Y-76500000D03*
X164933377Y-64526257D03*
X140500000Y-51025000D03*
X152000000Y-62000000D03*
X155010000Y-59960000D03*
X153500000Y-72500000D03*
X163850000Y-53020000D03*
X165790000Y-53150000D03*
X160500000Y-60000000D03*
X144500000Y-52500000D03*
X166920000Y-58260000D03*
X152100000Y-70100000D03*
X131700000Y-94400000D03*
X160500000Y-61000000D03*
X136100000Y-59700000D03*
X129500000Y-71000000D03*
X156440000Y-61480000D03*
X160029807Y-63500000D03*
X159029807Y-65500000D03*
X165760000Y-65260000D03*
X160500000Y-59100000D03*
X155760000Y-60750000D03*
D48*
X148250000Y-64100000D03*
D49*
X102000000Y-42000000D03*
X105000000Y-39000000D03*
X134000000Y-71000000D03*
X152500000Y-60500000D03*
X154000000Y-104500000D03*
X151000000Y-93000000D03*
X121800000Y-94500000D03*
X155500000Y-72500000D03*
X123000000Y-65000000D03*
X138500000Y-56000000D03*
X133000000Y-65500000D03*
X150000000Y-81000000D03*
D48*
X163000000Y-70900000D03*
X148501459Y-70912071D03*
X134500000Y-51500000D03*
X137000000Y-49500000D03*
X142850500Y-62838556D03*
X149500000Y-62000000D03*
X147200000Y-63100000D03*
X126500000Y-91000000D03*
X138049500Y-66000000D03*
X164500000Y-67500000D03*
X143500000Y-72000000D03*
X161243504Y-74000000D03*
X164950500Y-68500000D03*
X137500000Y-65000000D03*
D49*
X111500000Y-27500000D03*
X107500000Y-30500000D03*
X117000000Y-29000000D03*
X102000000Y-21500000D03*
X123000000Y-69500000D03*
X154500000Y-69000000D03*
D48*
X162700000Y-69000000D03*
X128075000Y-96000000D03*
X150638556Y-84861444D03*
X152000000Y-83500000D03*
X142361444Y-62000000D03*
X155500000Y-70000000D03*
X149000000Y-86500000D03*
X157000000Y-92000000D03*
X138500000Y-59500000D03*
X141401344Y-70802050D03*
X141049500Y-56965364D03*
X142118899Y-70618899D03*
X142000000Y-58000000D03*
X134000000Y-68000000D03*
X133000000Y-72500000D03*
X100500000Y-61500000D03*
X102500000Y-60500000D03*
D50*
X144900000Y-63820000D02*
X144900000Y-62800000D01*
X138000000Y-73040000D02*
X138980000Y-73040000D01*
X146500000Y-73000000D02*
X145000000Y-71500000D01*
X145700000Y-69400000D02*
X145680000Y-69380000D01*
X146500000Y-73225000D02*
X146500000Y-73000000D01*
X145680000Y-65100000D02*
X146395000Y-65100000D01*
X140110000Y-65090000D02*
X140120000Y-65100000D01*
X139590000Y-65090000D02*
X140110000Y-65090000D01*
X142500000Y-73225000D02*
X142500000Y-71500000D01*
X146500000Y-67100000D02*
X146600000Y-67200000D01*
X145680000Y-69380000D02*
X145680000Y-68600000D01*
X144500000Y-57000000D02*
X142000000Y-59500000D01*
X144400000Y-63820000D02*
X144900000Y-63820000D01*
X146405000Y-63905000D02*
X146300000Y-63800000D01*
X140500000Y-73225000D02*
X140500000Y-72500000D01*
X138980000Y-73040000D02*
X139000000Y-73020000D01*
X144500000Y-55775000D02*
X147500000Y-55775000D01*
X145680000Y-65600000D02*
X145680000Y-65100000D01*
X140500000Y-72500000D02*
X139500000Y-71500000D01*
X139000000Y-72000000D02*
X138500000Y-71500000D01*
X139000000Y-64500000D02*
X139590000Y-65090000D01*
X139000000Y-73020000D02*
X139000000Y-72000000D01*
X136775000Y-71500000D02*
X138500000Y-71500000D01*
X146405000Y-65090000D02*
X146405000Y-63905000D01*
X145680000Y-67100000D02*
X146500000Y-67100000D01*
X140900000Y-69380000D02*
X140020000Y-69380000D01*
X140020000Y-69380000D02*
X140000000Y-69400000D01*
X136787500Y-70000000D02*
X138000000Y-70000000D01*
X144500000Y-55775000D02*
X144500000Y-57000000D01*
X146395000Y-65100000D02*
X146405000Y-65090000D01*
D51*
X158500001Y-62012992D02*
X158500001Y-63000000D01*
D52*
X148300000Y-64150000D02*
X148250000Y-64100000D01*
D51*
X166200000Y-67000000D02*
X168060000Y-67000000D01*
X167000000Y-58234202D02*
X163220207Y-62013995D01*
X161500000Y-63750001D02*
X160375001Y-64875000D01*
X162250001Y-63000000D02*
X160375001Y-64875000D01*
X146300000Y-59600000D02*
X147300000Y-58600000D01*
X163220195Y-63750001D02*
X164124995Y-63750001D01*
X157529807Y-65250001D02*
X160000000Y-65250001D01*
X159750000Y-54810000D02*
X158440000Y-53500000D01*
X150425000Y-19925000D02*
X150500000Y-20000000D01*
X104175001Y-26549999D02*
X105000000Y-26549999D01*
X165500000Y-53000000D02*
X167000000Y-54500000D01*
X160000000Y-65250001D02*
X160375001Y-64875000D01*
X130150000Y-70350000D02*
X129500000Y-71000000D01*
X135225000Y-72275000D02*
X134000000Y-73500000D01*
X137550000Y-59700000D02*
X136100000Y-59700000D01*
X102000000Y-101000000D02*
X104500000Y-101000000D01*
X159750000Y-54810000D02*
X161575000Y-54810000D01*
X151275000Y-78700000D02*
X153200000Y-78700000D01*
X105000000Y-26549999D02*
X105000000Y-25500000D01*
X167000000Y-54500000D02*
X167000000Y-58234202D01*
X164124995Y-63750001D02*
X166160000Y-65785006D01*
X167500000Y-73775000D02*
X169200000Y-73775000D01*
X129725000Y-94400000D02*
X131700000Y-94400000D01*
X147500000Y-19925000D02*
X150425000Y-19925000D01*
D52*
X148300000Y-65400000D02*
X148300000Y-64150000D01*
D51*
X129975000Y-65000000D02*
X131500000Y-65000000D01*
X163220195Y-63750001D02*
X161500000Y-63750001D01*
X157529807Y-66750000D02*
X158500001Y-66750000D01*
D52*
X148950000Y-67200000D02*
X148950000Y-68500000D01*
X148300000Y-65400000D02*
X148300000Y-67200000D01*
D51*
X140500000Y-52975000D02*
X140500000Y-51025000D01*
X145675000Y-60225000D02*
X147300000Y-58600000D01*
X157000000Y-70775000D02*
X157000000Y-72500000D01*
X144000000Y-60225000D02*
X145675000Y-60225000D01*
X111500000Y-30825000D02*
X111500000Y-32500000D01*
X142500000Y-74775000D02*
X142500000Y-76500000D01*
X166160000Y-65785006D02*
X166160000Y-66960000D01*
X138000000Y-74000000D02*
X136500000Y-74000000D01*
X168040000Y-58260000D02*
X168060000Y-58240000D01*
D52*
X153020000Y-65320000D02*
X154160000Y-65320000D01*
D51*
X146300000Y-60175000D02*
X146300000Y-59600000D01*
X153000000Y-63000000D02*
X152000000Y-62000000D01*
X151750000Y-76550000D02*
X151750000Y-78225000D01*
X139000000Y-73980000D02*
X139000000Y-75000000D01*
X151300000Y-69300000D02*
X152100000Y-70100000D01*
X167500000Y-73775000D02*
X167500000Y-75000000D01*
X162251004Y-62013995D02*
X162250001Y-62012992D01*
X158440000Y-53500000D02*
X156500000Y-53500000D01*
X138787500Y-20212500D02*
X138500000Y-20500000D01*
X144500000Y-54225000D02*
X144500000Y-52500000D01*
X105000000Y-26549999D02*
X106147450Y-26549999D01*
D53*
X147400000Y-102360000D02*
X147440000Y-102400000D01*
D51*
X160500000Y-57190000D02*
X160500000Y-62012992D01*
X157529795Y-66750012D02*
X157529807Y-66750000D01*
X157529795Y-62013995D02*
X158498998Y-62013995D01*
X160750002Y-64499999D02*
X160375001Y-64875000D01*
X151300000Y-69075000D02*
X151300000Y-69300000D01*
X151750000Y-76550000D02*
X153450000Y-76550000D01*
X158500001Y-63000000D02*
X160375001Y-64875000D01*
D52*
X148300000Y-67200000D02*
X148950000Y-67200000D01*
D51*
X163220194Y-67737008D02*
X163220207Y-67737021D01*
X162250001Y-62012992D02*
X162250001Y-63000000D01*
X151750000Y-72450000D02*
X153450000Y-72450000D01*
D52*
X154160000Y-65320000D02*
X154200000Y-65280000D01*
D51*
X160000000Y-62012992D02*
X160500000Y-62012992D01*
X130150000Y-69500000D02*
X130150000Y-70350000D01*
X153450000Y-76550000D02*
X153500000Y-76500000D01*
X161500000Y-65999999D02*
X160375001Y-64875000D01*
X157013995Y-62013995D02*
X157529795Y-62013995D01*
X160500000Y-57190000D02*
X159425000Y-57190000D01*
X151750000Y-72450000D02*
X151750000Y-76550000D01*
X160750002Y-62012992D02*
X160750002Y-64499999D01*
X142000000Y-20212500D02*
X138787500Y-20212500D01*
X158500001Y-66750000D02*
X160375001Y-64875000D01*
X154225000Y-63000000D02*
X153000000Y-63000000D01*
X161575000Y-54810000D02*
X161575000Y-54425000D01*
X153450000Y-72450000D02*
X153500000Y-72500000D01*
X154000000Y-59000000D02*
X157013995Y-62013995D01*
X166920000Y-58260000D02*
X168040000Y-58260000D01*
X156500000Y-53500000D02*
X154000000Y-56000000D01*
X169200000Y-73775000D02*
X169250000Y-73825000D01*
X102000000Y-40275000D02*
X102000000Y-42000000D01*
X146500000Y-74775000D02*
X146500000Y-76500000D01*
X161500000Y-67737008D02*
X161500000Y-65999999D01*
X140500000Y-74775000D02*
X140500000Y-76500000D01*
X163000000Y-53000000D02*
X165500000Y-53000000D01*
X135225000Y-71500000D02*
X135225000Y-72275000D01*
X157529795Y-67737021D02*
X157529795Y-66750012D01*
X151750000Y-78225000D02*
X151275000Y-78700000D01*
X163540000Y-104040000D02*
X164000000Y-104500000D01*
X147500000Y-54225000D02*
X147500000Y-52500000D01*
X104000000Y-26725000D02*
X104175001Y-26549999D01*
X163220207Y-67737021D02*
X162250014Y-67737021D01*
X103000000Y-25275000D02*
X103000000Y-25374998D01*
X154000000Y-56000000D02*
X154000000Y-59000000D01*
X162250014Y-67737021D02*
X162250001Y-67737008D01*
X158498998Y-62013995D02*
X158500001Y-62012992D01*
X134175000Y-63500000D02*
X133000000Y-63500000D01*
X161575000Y-54425000D02*
X163000000Y-53000000D01*
X160950000Y-104040000D02*
X163540000Y-104040000D01*
X162250001Y-67737008D02*
X161500000Y-67737008D01*
X160000000Y-64499999D02*
X160375001Y-64875000D01*
X166160000Y-66960000D02*
X166200000Y-67000000D01*
X160500000Y-62012992D02*
X160750002Y-62012992D01*
X158500000Y-70775000D02*
X158500000Y-72500000D01*
X163220207Y-62013995D02*
X162251004Y-62013995D01*
X161575000Y-57190000D02*
X160500000Y-57190000D01*
X160000000Y-70775000D02*
X160000000Y-72500000D01*
X157529807Y-63000000D02*
X156000000Y-63000000D01*
X101275000Y-38000000D02*
X102000000Y-38725000D01*
X152675000Y-94500000D02*
X152500000Y-94500000D01*
X124825000Y-65000000D02*
X123000000Y-65000000D01*
X134175000Y-65500000D02*
X133000000Y-65500000D01*
X104725000Y-38725000D02*
X105000000Y-39000000D01*
X154460000Y-104040000D02*
X154000000Y-104500000D01*
X149725000Y-78700000D02*
X149725000Y-80725000D01*
X153275000Y-60500000D02*
X152500000Y-60500000D01*
X155775000Y-63000000D02*
X153275000Y-60500000D01*
X138500000Y-57700000D02*
X138500000Y-56000000D01*
X153100000Y-69187500D02*
X153100000Y-70100000D01*
X153100000Y-70100000D02*
X155500000Y-72500000D01*
X149250000Y-78225000D02*
X149725000Y-78700000D01*
X135212500Y-70000000D02*
X135000000Y-70000000D01*
X100075000Y-38000000D02*
X101275000Y-38000000D01*
X149725000Y-80725000D02*
X150000000Y-81000000D01*
X135000000Y-70000000D02*
X134000000Y-71000000D01*
X157050000Y-104040000D02*
X154460000Y-104040000D01*
X123275000Y-94500000D02*
X121800000Y-94500000D01*
X157529807Y-63750001D02*
X157529807Y-63000000D01*
X102000000Y-38725000D02*
X104725000Y-38725000D01*
X149250000Y-76550000D02*
X149250000Y-78225000D01*
X152500000Y-94500000D02*
X151000000Y-93000000D01*
D53*
X144400000Y-69995000D02*
X144460000Y-70055000D01*
X165500000Y-70900000D02*
X165500000Y-66540000D01*
X169250000Y-72175000D02*
X171675000Y-72175000D01*
X171675000Y-72175000D02*
X172000000Y-72500000D01*
X165500000Y-70900000D02*
X165500000Y-72175000D01*
X165500000Y-72175000D02*
X167450000Y-72175000D01*
X146555000Y-70055000D02*
X147412071Y-70912071D01*
X165500000Y-70900000D02*
X163000000Y-70900000D01*
X147412071Y-70912071D02*
X148501459Y-70912071D01*
X144460000Y-70055000D02*
X146555000Y-70055000D01*
X167450000Y-72175000D02*
X167500000Y-72225000D01*
X172000000Y-72500000D02*
X172000000Y-73500000D01*
X169200000Y-72225000D02*
X169250000Y-72175000D01*
X165500000Y-66540000D02*
X163459999Y-64499999D01*
X144400000Y-69380000D02*
X144400000Y-69995000D01*
X163459999Y-64499999D02*
X163220195Y-64499999D01*
X167500000Y-72225000D02*
X169200000Y-72225000D01*
X172000000Y-73500000D02*
X167500000Y-78000000D01*
X148000000Y-81000000D02*
X164000000Y-97000000D01*
X143900000Y-69380000D02*
X143900000Y-70060685D01*
X164000000Y-97000000D02*
X164000000Y-100550000D01*
X161780000Y-102770000D02*
X160950000Y-102770000D01*
X144294315Y-70455000D02*
X145955000Y-70455000D01*
X164000000Y-100550000D02*
X161780000Y-102770000D01*
X143900000Y-70060685D02*
X144294315Y-70455000D01*
X148000000Y-72500000D02*
X148000000Y-81000000D01*
X145955000Y-70455000D02*
X148000000Y-72500000D01*
X147600000Y-94150000D02*
X147600000Y-72665686D01*
X145789314Y-70855000D02*
X144128629Y-70855000D01*
X143400000Y-70126371D02*
X143400000Y-69380000D01*
X147600000Y-72665686D02*
X145789314Y-70855000D01*
X157050000Y-102770000D02*
X156220000Y-102770000D01*
X144128629Y-70855000D02*
X143400000Y-70126371D01*
X156220000Y-102770000D02*
X147600000Y-94150000D01*
X158550000Y-97550000D02*
X158550000Y-98660000D01*
X155500000Y-94500000D02*
X158550000Y-97550000D01*
X160120000Y-100230000D02*
X160950000Y-100230000D01*
X155500000Y-94500000D02*
X156675000Y-94500000D01*
X158550000Y-98660000D02*
X160120000Y-100230000D01*
X154325000Y-94500000D02*
X155500000Y-94500000D01*
X145610000Y-102900000D02*
X145610000Y-100115000D01*
X145610000Y-100115000D02*
X145700000Y-100025000D01*
X140400000Y-102770000D02*
X140530000Y-102900000D01*
X140400000Y-100125000D02*
X140400000Y-102770000D01*
X138000000Y-100125000D02*
X138000000Y-102890000D01*
X138000000Y-102890000D02*
X137990000Y-102900000D01*
X135500000Y-102850000D02*
X135450000Y-102900000D01*
X135500000Y-100125000D02*
X135500000Y-102850000D01*
X124925000Y-96500000D02*
X124925000Y-97600000D01*
X136500000Y-49500000D02*
X135000000Y-51000000D01*
X149550000Y-63100000D02*
X151120000Y-64670000D01*
X126500000Y-95000000D02*
X125000000Y-96500000D01*
X126500000Y-91000000D02*
X126500000Y-95000000D01*
X142850500Y-62838556D02*
X142900000Y-62888056D01*
X137000000Y-49500000D02*
X136500000Y-49500000D01*
X149550000Y-63100000D02*
X149550000Y-62050000D01*
X125000000Y-96500000D02*
X124925000Y-96500000D01*
X142900000Y-62888056D02*
X142900000Y-63820000D01*
X124925000Y-94500000D02*
X124925000Y-96500000D01*
X135000000Y-51000000D02*
X134500000Y-51500000D01*
X149550000Y-62050000D02*
X149500000Y-62000000D01*
X147200000Y-63100000D02*
X149550000Y-63100000D01*
X124925000Y-97600000D02*
X125100000Y-97775000D01*
X138049500Y-66000000D02*
X138149500Y-66100000D01*
X138149500Y-66100000D02*
X140120000Y-66100000D01*
X164500000Y-67500000D02*
X164700000Y-67300000D01*
X144500000Y-74825000D02*
X144500000Y-79000000D01*
X143500000Y-73825000D02*
X143500000Y-72500000D01*
X144500000Y-74825000D02*
X143500000Y-73825000D01*
X138049500Y-66000000D02*
X136325000Y-66000000D01*
X143500000Y-72500000D02*
X143500000Y-72000000D01*
X163724995Y-65999999D02*
X163220195Y-65999999D01*
X144500000Y-79000000D02*
X142500000Y-81000000D01*
X164700000Y-67300000D02*
X164700000Y-66975004D01*
X136325000Y-66000000D02*
X135825000Y-65500000D01*
X164700000Y-66975004D02*
X163724995Y-65999999D01*
X140120000Y-66600000D02*
X129925000Y-66600000D01*
X126475000Y-65000000D02*
X128325000Y-65000000D01*
X129925000Y-66600000D02*
X128325000Y-65000000D01*
X139545000Y-67100000D02*
X139445000Y-67000000D01*
X126475000Y-69500000D02*
X128500000Y-69500000D01*
X139445000Y-67000000D02*
X131000000Y-67000000D01*
X140120000Y-67100000D02*
X139545000Y-67100000D01*
X131000000Y-67000000D02*
X128500000Y-69500000D01*
X138277818Y-65000000D02*
X137500000Y-65000000D01*
X161500000Y-74256496D02*
X161243504Y-74000000D01*
X163603597Y-65250001D02*
X163220195Y-65250001D01*
X165100000Y-68350500D02*
X165100000Y-66746404D01*
X137500000Y-65000000D02*
X137500000Y-64500000D01*
X161500000Y-79500000D02*
X161500000Y-74256496D01*
X137500000Y-64500000D02*
X136500000Y-63500000D01*
X138877818Y-65600000D02*
X138277818Y-65000000D01*
X136500000Y-63500000D02*
X135825000Y-63500000D01*
X140120000Y-65600000D02*
X138877818Y-65600000D01*
X164950500Y-68500000D02*
X165100000Y-68350500D01*
X165100000Y-66746404D02*
X163603597Y-65250001D01*
D51*
X108852550Y-27500000D02*
X111500000Y-27500000D01*
X106097451Y-28500000D02*
X106147450Y-28450001D01*
X107500000Y-29802551D02*
X106147450Y-28450001D01*
X107500000Y-30500000D02*
X107500000Y-29802551D01*
X99075000Y-28500000D02*
X106097451Y-28500000D01*
X160000000Y-67737008D02*
X160700000Y-67737008D01*
X163500000Y-72725000D02*
X163500000Y-73500000D01*
X158500000Y-69225000D02*
X157000000Y-69225000D01*
X154500000Y-69000000D02*
X156775000Y-69000000D01*
X158225000Y-69500000D02*
X158500000Y-69225000D01*
X120500000Y-29000000D02*
X117000000Y-29000000D01*
X160000000Y-69225000D02*
X163500000Y-72725000D01*
X158500001Y-67737008D02*
X159250002Y-67737008D01*
X105400000Y-21500000D02*
X102000000Y-21500000D01*
X124825000Y-69500000D02*
X123000000Y-69500000D01*
X115325000Y-29000000D02*
X117000000Y-29000000D01*
X163825000Y-73825000D02*
X165500000Y-73825000D01*
X158500000Y-69225000D02*
X160000000Y-69225000D01*
X156775000Y-69000000D02*
X157000000Y-69225000D01*
X163500000Y-73500000D02*
X163825000Y-73825000D01*
X159250002Y-67737008D02*
X160000000Y-67737008D01*
D53*
X162700000Y-69000000D02*
X163166828Y-69000000D01*
X156200000Y-70700000D02*
X156200000Y-79300000D01*
X163550000Y-66750000D02*
X163220195Y-66750000D01*
X142300000Y-62061444D02*
X142300000Y-63065874D01*
X142300000Y-63065874D02*
X142400000Y-63165874D01*
X142361444Y-62000000D02*
X142300000Y-62061444D01*
X128075000Y-97600000D02*
X127900000Y-97775000D01*
X150638556Y-84861444D02*
X149500000Y-86000000D01*
X163166828Y-69000000D02*
X163825007Y-68341821D01*
X156200000Y-79300000D02*
X152000000Y-83500000D01*
X128075000Y-94400000D02*
X128075000Y-96000000D01*
X142400000Y-63165874D02*
X142400000Y-63820000D01*
X163825007Y-68341821D02*
X163825007Y-67025007D01*
X149500000Y-86000000D02*
X149000000Y-86500000D01*
X128075000Y-96000000D02*
X128075000Y-97600000D01*
X155500000Y-70000000D02*
X156200000Y-70700000D01*
X163825007Y-67025007D02*
X163550000Y-66750000D01*
D51*
X112225001Y-26549999D02*
X112500000Y-26275000D01*
X108852550Y-26549999D02*
X112225001Y-26549999D01*
X112500000Y-24400000D02*
X109600000Y-21500000D01*
X112500000Y-24725000D02*
X112500000Y-24400000D01*
X106147450Y-27500000D02*
X107249100Y-27500000D01*
X107500000Y-23600000D02*
X109600000Y-21500000D01*
X107249100Y-27500000D02*
X107500000Y-27249100D01*
X107500000Y-27249100D02*
X107500000Y-23600000D01*
D53*
X143900000Y-61875000D02*
X144000000Y-61775000D01*
X143900000Y-63820000D02*
X143900000Y-61875000D01*
X138500000Y-59500000D02*
X138700000Y-59700000D01*
X143225000Y-62223696D02*
X143400000Y-62398696D01*
X143225000Y-62075000D02*
X143225000Y-62223696D01*
X158325000Y-93325000D02*
X157000000Y-92000000D01*
X139450000Y-59700000D02*
X140500000Y-59700000D01*
X158325000Y-94500000D02*
X158325000Y-93325000D01*
X143400000Y-62398696D02*
X143400000Y-63820000D01*
X140850000Y-59700000D02*
X143225000Y-62075000D01*
X140500000Y-59700000D02*
X140850000Y-59700000D01*
X140500000Y-59700000D02*
X140500000Y-54775000D01*
X138700000Y-59700000D02*
X139450000Y-59700000D01*
X151120000Y-67345000D02*
X151300000Y-67525000D01*
X153012500Y-67525000D02*
X153100000Y-67612500D01*
X151300000Y-67525000D02*
X153012500Y-67525000D01*
X151120000Y-65970000D02*
X151120000Y-67345000D01*
X142000000Y-21787500D02*
X142000000Y-23675000D01*
X147500000Y-21500000D02*
X147500000Y-23137500D01*
X142900000Y-70400000D02*
X142900000Y-69380000D01*
X144500000Y-73175000D02*
X144500000Y-72000000D01*
X144500000Y-72000000D02*
X142900000Y-70400000D01*
X125100000Y-102415000D02*
X125015000Y-102500000D01*
X125100000Y-99425000D02*
X125100000Y-102415000D01*
X127900000Y-102155000D02*
X127555000Y-102500000D01*
X127900000Y-99425000D02*
X127900000Y-102155000D01*
D54*
X163220195Y-63000000D02*
X171120000Y-63000000D01*
X171120000Y-63000000D02*
X171500000Y-62620000D01*
D51*
X96925000Y-36505000D02*
X96925000Y-38000000D01*
X88960000Y-31080000D02*
X91500000Y-31080000D01*
X91500000Y-31080000D02*
X96925000Y-36505000D01*
D55*
X92400000Y-65000000D02*
X97850000Y-65000000D01*
X91500000Y-64100000D02*
X92400000Y-65000000D01*
X90165600Y-62894400D02*
X97744400Y-62894400D01*
X97744400Y-62894400D02*
X97850000Y-63000000D01*
X88960000Y-64100000D02*
X90165600Y-62894400D01*
X97850000Y-61000000D02*
X92060000Y-61000000D01*
X92060000Y-61000000D02*
X91500000Y-61560000D01*
X97850000Y-59000000D02*
X96624400Y-60225600D01*
X90294400Y-60225600D02*
X88960000Y-61560000D01*
X96624400Y-60225600D02*
X90294400Y-60225600D01*
D51*
X95885000Y-28540000D02*
X95925000Y-28500000D01*
X88960000Y-28540000D02*
X91500000Y-28540000D01*
X91500000Y-28540000D02*
X95885000Y-28540000D01*
D53*
X141049500Y-56608599D02*
X143325000Y-54333099D01*
X142000000Y-27071815D02*
X142000000Y-25325000D01*
X141049500Y-56965364D02*
X141049500Y-56608599D01*
X141401344Y-70559342D02*
X141900000Y-70060686D01*
X143325000Y-54333099D02*
X143325000Y-28396815D01*
X141900000Y-70060686D02*
X141900000Y-69380000D01*
X141401344Y-70802050D02*
X141401344Y-70559342D01*
X143325000Y-28396815D02*
X142000000Y-27071815D01*
X142400000Y-70337798D02*
X142118899Y-70618899D01*
X143725000Y-28562500D02*
X147500000Y-24787500D01*
X142000000Y-57000000D02*
X143725000Y-55275000D01*
X142400000Y-69380000D02*
X142400000Y-70337798D01*
X142000000Y-58000000D02*
X142000000Y-57000000D01*
X143725000Y-55275000D02*
X143725000Y-28562500D01*
X139479314Y-67600000D02*
X139279314Y-67400000D01*
X140120000Y-67600000D02*
X139479314Y-67600000D01*
X131500000Y-69434314D02*
X131500000Y-93210050D01*
X131500000Y-93210050D02*
X135500000Y-97210050D01*
X133534314Y-67400000D02*
X131500000Y-69434314D01*
X139279314Y-67400000D02*
X133534314Y-67400000D01*
X135500000Y-97210050D02*
X135500000Y-98475000D01*
X133000000Y-72500000D02*
X133000000Y-85675000D01*
X134100000Y-68100000D02*
X134000000Y-68000000D01*
X133000000Y-85675000D02*
X145700000Y-98375000D01*
X140120000Y-68100000D02*
X134100000Y-68100000D01*
X138000000Y-98475000D02*
X131900000Y-92375000D01*
X131900000Y-92375000D02*
X131900000Y-69600000D01*
X132900001Y-68600000D02*
X140120000Y-68600000D01*
X131900000Y-69600000D02*
X132900001Y-68600000D01*
X133065686Y-69000000D02*
X138077818Y-69000000D01*
X138077818Y-69000000D02*
X139132818Y-70055000D01*
X141340000Y-70055000D02*
X141400000Y-69995000D01*
X132300000Y-90375000D02*
X132300000Y-69765686D01*
X140400000Y-98475000D02*
X132300000Y-90375000D01*
X141400000Y-69995000D02*
X141400000Y-69380000D01*
X132300000Y-69765686D02*
X133065686Y-69000000D01*
X139132818Y-70055000D02*
X141340000Y-70055000D01*
X103209190Y-61700000D02*
X99909190Y-65000000D01*
X138763628Y-61700000D02*
X103209190Y-61700000D01*
X140120000Y-64600000D02*
X140120000Y-63056372D01*
X99909190Y-65000000D02*
X99500000Y-65000000D01*
X140120000Y-63056372D02*
X138763628Y-61700000D01*
X140900000Y-63270686D02*
X138929314Y-61300000D01*
X140900000Y-63820000D02*
X140900000Y-63270686D01*
X138929314Y-61300000D02*
X103043504Y-61300000D01*
X101343504Y-63000000D02*
X99500000Y-63000000D01*
X103043504Y-61300000D02*
X101343504Y-63000000D01*
X102877818Y-60900000D02*
X139095000Y-60900000D01*
X101550000Y-61050000D02*
X102727818Y-61050000D01*
X139095000Y-60900000D02*
X141400000Y-63205000D01*
X102727818Y-61050000D02*
X102877818Y-60900000D01*
X141400000Y-63205000D02*
X141400000Y-63820000D01*
X99500000Y-59000000D02*
X101550000Y-61050000D01*
X99500000Y-61000000D02*
X100000000Y-61000000D01*
X141900000Y-63139314D02*
X141900000Y-63820000D01*
X100000000Y-61000000D02*
X100500000Y-61500000D01*
X102500000Y-60500000D02*
X139260686Y-60500000D01*
X139260686Y-60500000D02*
X141900000Y-63139314D01*
X145680000Y-64600000D02*
X145680000Y-62445000D01*
X145680000Y-62445000D02*
X146300000Y-61825000D01*
X148175000Y-69552818D02*
X148175000Y-70000000D01*
X145680000Y-67600000D02*
X146222182Y-67600000D01*
X146222182Y-67600000D02*
X148175000Y-69552818D01*
D51*
X113675000Y-29000000D02*
X113675000Y-35675000D01*
X113675000Y-35675000D02*
X114000000Y-36000000D01*
X113500000Y-29175000D02*
X113675000Y-29000000D01*
X111500000Y-29175000D02*
X113500000Y-29175000D01*
X110775001Y-28450001D02*
X111500000Y-29175000D01*
X108852550Y-28450001D02*
X110775001Y-28450001D01*
D53*
X145680000Y-66600000D02*
X147050000Y-66600000D01*
X147050000Y-66600000D02*
X147650000Y-67200000D01*
X146950000Y-66100000D02*
X147650000Y-65400000D01*
X145680000Y-66100000D02*
X146950000Y-66100000D01*
D54*
X159250002Y-61110002D02*
X159250002Y-62012992D01*
X156370000Y-58230000D02*
X159250002Y-61110002D01*
X159425000Y-56000000D02*
X157060000Y-56000000D01*
X157060000Y-56000000D02*
X156370000Y-56690000D01*
X156370000Y-56690000D02*
X156370000Y-58230000D01*
X161500000Y-61000000D02*
X161500000Y-62012992D01*
X161575000Y-56000000D02*
X164000000Y-56000000D01*
X164500000Y-58000000D02*
X161500000Y-61000000D01*
X164500000Y-56500000D02*
X164500000Y-58000000D01*
X164000000Y-56000000D02*
X164500000Y-56500000D01*
X157499808Y-65970000D02*
X157529807Y-65999999D01*
X153049999Y-65999999D02*
X153020000Y-65970000D01*
X153020000Y-65970000D02*
X157499808Y-65970000D01*
X157529807Y-64499999D02*
X153190001Y-64499999D01*
X153190001Y-64499999D02*
X153020000Y-64670000D01*
D52*
X148970000Y-65420000D02*
X148950000Y-65400000D01*
D54*
X149030000Y-65320000D02*
X148950000Y-65400000D01*
X151120000Y-65320000D02*
X149030000Y-65320000D01*
D53*
X149825000Y-70000000D02*
X149825000Y-71875000D01*
X149825000Y-71875000D02*
X149250000Y-72450000D01*
G04 #@! TA.AperFunction,Conductor*
G36*
X106443039Y-18519685D02*
G01*
X106488794Y-18572489D01*
X106500000Y-18624000D01*
X106500000Y-24376000D01*
X106480315Y-24443039D01*
X106427511Y-24488794D01*
X106376000Y-24500000D01*
X94124000Y-24500000D01*
X94056961Y-24480315D01*
X94011206Y-24427511D01*
X94000000Y-24376000D01*
X94000000Y-18624000D01*
X94019685Y-18556961D01*
X94072489Y-18511206D01*
X94124000Y-18500000D01*
X106376000Y-18500000D01*
X106443039Y-18519685D01*
G37*
G04 #@! TD.AperFunction*
G04 #@! TA.AperFunction,Conductor*
G36*
X104943039Y-25019685D02*
G01*
X104988794Y-25072489D01*
X105000000Y-25124000D01*
X105000000Y-27376000D01*
X104980315Y-27443039D01*
X104927511Y-27488794D01*
X104876000Y-27500000D01*
X100124000Y-27500000D01*
X100056961Y-27480315D01*
X100011206Y-27427511D01*
X100000000Y-27376000D01*
X100000000Y-25124000D01*
X100019685Y-25056961D01*
X100072489Y-25011206D01*
X100124000Y-25000000D01*
X104876000Y-25000000D01*
X104943039Y-25019685D01*
G37*
G04 #@! TD.AperFunction*
G04 #@! TA.AperFunction,Conductor*
G36*
X123943039Y-18519685D02*
G01*
X123988794Y-18572489D01*
X124000000Y-18624000D01*
X124000000Y-23876000D01*
X123980315Y-23943039D01*
X123927511Y-23988794D01*
X123876000Y-24000000D01*
X108624000Y-24000000D01*
X108556961Y-23980315D01*
X108511206Y-23927511D01*
X108500000Y-23876000D01*
X108500000Y-18624000D01*
X108519685Y-18556961D01*
X108572489Y-18511206D01*
X108624000Y-18500000D01*
X123876000Y-18500000D01*
X123943039Y-18519685D01*
G37*
G04 #@! TD.AperFunction*
G04 #@! TA.AperFunction,Conductor*
G36*
X160888539Y-67519685D02*
G01*
X160934294Y-67572489D01*
X160945500Y-67624000D01*
X160945500Y-67715949D01*
X160945355Y-67720182D01*
X160941591Y-67775200D01*
X160941592Y-67775204D01*
X160952813Y-67829207D01*
X160953532Y-67833377D01*
X160961043Y-67888016D01*
X160961045Y-67888024D01*
X160963620Y-67893953D01*
X160971286Y-67918107D01*
X160972602Y-67924439D01*
X160972604Y-67924445D01*
X160986097Y-67950484D01*
X161000000Y-68007533D01*
X161000000Y-69876000D01*
X160980315Y-69943039D01*
X160927511Y-69988794D01*
X160876000Y-70000000D01*
X158124000Y-70000000D01*
X158056961Y-69980315D01*
X158011206Y-69927511D01*
X158000000Y-69876000D01*
X158000000Y-68289977D01*
X158019685Y-68222938D01*
X158020898Y-68221086D01*
X158054242Y-68171184D01*
X158074329Y-68141122D01*
X158089095Y-68066888D01*
X158089094Y-67623998D01*
X158108778Y-67556961D01*
X158161582Y-67511206D01*
X158213094Y-67500000D01*
X160821500Y-67500000D01*
X160888539Y-67519685D01*
G37*
G04 #@! TD.AperFunction*
G04 #@! TA.AperFunction,Conductor*
G36*
X105534597Y-28015958D02*
G01*
X105535218Y-28014461D01*
X105546501Y-28019135D01*
X105588553Y-28027499D01*
X105620733Y-28033900D01*
X105980666Y-28033899D01*
X106014121Y-28038497D01*
X106037434Y-28045029D01*
X106071236Y-28054500D01*
X107239636Y-28054500D01*
X107241839Y-28054575D01*
X107306339Y-28056779D01*
X107349682Y-28046215D01*
X107355909Y-28045031D01*
X107400109Y-28038957D01*
X107416751Y-28031727D01*
X107436796Y-28024987D01*
X107438974Y-28024456D01*
X107454433Y-28020689D01*
X107454435Y-28020688D01*
X107462924Y-28015915D01*
X107523699Y-28000000D01*
X107876000Y-28000000D01*
X107943039Y-28019685D01*
X107988794Y-28072489D01*
X108000000Y-28124000D01*
X108000000Y-36376000D01*
X107980315Y-36443039D01*
X107927511Y-36488794D01*
X107876000Y-36500000D01*
X100124000Y-36500000D01*
X100056961Y-36480315D01*
X100011206Y-36427511D01*
X100000000Y-36376000D01*
X100000000Y-28124000D01*
X100019685Y-28056961D01*
X100072489Y-28011206D01*
X100124000Y-28000000D01*
X105480248Y-28000000D01*
X105534597Y-28015958D01*
G37*
G04 #@! TD.AperFunction*
M02*
