G04 #@! TF.GenerationSoftware,KiCad,Pcbnew,7.0.9+1*
G04 #@! TF.CreationDate,2024-02-23T15:47:33-08:00*
G04 #@! TF.ProjectId,hsl_radio,68736c5f-7261-4646-996f-2e6b69636164,1*
G04 #@! TF.SameCoordinates,Original*
G04 #@! TF.FileFunction,Copper,L4,Bot*
G04 #@! TF.FilePolarity,Positive*
%FSLAX46Y46*%
G04 Gerber Fmt 4.6, Leading zero omitted, Abs format (unit mm)*
G04 Created by KiCad (PCBNEW 7.0.9+1) date 2024-02-23 15:47:33*
%MOMM*%
%LPD*%
G01*
G04 APERTURE LIST*
G04 #@! TA.AperFunction,ComponentPad*
%ADD10C,0.609600*%
G04 #@! TD*
G04 #@! TA.AperFunction,ComponentPad*
%ADD11R,1.700000X1.700000*%
G04 #@! TD*
G04 #@! TA.AperFunction,ComponentPad*
%ADD12O,1.700000X1.700000*%
G04 #@! TD*
G04 #@! TA.AperFunction,SMDPad,CuDef*
%ADD13R,0.950000X0.460000*%
G04 #@! TD*
G04 #@! TA.AperFunction,SMDPad,CuDef*
%ADD14R,5.080000X2.420000*%
G04 #@! TD*
G04 #@! TA.AperFunction,ComponentPad*
%ADD15C,0.970000*%
G04 #@! TD*
G04 #@! TA.AperFunction,ComponentPad*
%ADD16C,6.400000*%
G04 #@! TD*
G04 #@! TA.AperFunction,ViaPad*
%ADD17C,0.500000*%
G04 #@! TD*
G04 #@! TA.AperFunction,ViaPad*
%ADD18C,0.800000*%
G04 #@! TD*
G04 #@! TA.AperFunction,Conductor*
%ADD19C,0.300000*%
G04 #@! TD*
G04 #@! TA.AperFunction,Conductor*
%ADD20C,0.200000*%
G04 #@! TD*
G04 #@! TA.AperFunction,Conductor*
%ADD21C,0.600000*%
G04 #@! TD*
G04 APERTURE END LIST*
D10*
X142900000Y-68100000D03*
X144400000Y-68100000D03*
X144400000Y-65100000D03*
X142900000Y-65100000D03*
X141400000Y-65100000D03*
X141400000Y-68100000D03*
X144400000Y-66600000D03*
X142900000Y-66600000D03*
X141400000Y-66600000D03*
D11*
X148150000Y-102900000D03*
D12*
X145610000Y-102900000D03*
X143070000Y-102900000D03*
X140530000Y-102900000D03*
X137990000Y-102900000D03*
X135450000Y-102900000D03*
D11*
X122475000Y-102500000D03*
D12*
X125015000Y-102500000D03*
X127555000Y-102500000D03*
D13*
X168510000Y-58240000D03*
D14*
X171500000Y-58240000D03*
D15*
X168060000Y-58240000D03*
D14*
X171500000Y-67000000D03*
D13*
X168510000Y-67000000D03*
D15*
X168060000Y-67000000D03*
D11*
X91500000Y-102200000D03*
D12*
X88960000Y-102200000D03*
X91500000Y-99660000D03*
X88960000Y-99660000D03*
X91500000Y-97120000D03*
X88960000Y-97120000D03*
X91500000Y-94580000D03*
X88960000Y-94580000D03*
X91500000Y-92040000D03*
X88960000Y-92040000D03*
X91500000Y-89500000D03*
X88960000Y-89500000D03*
X91500000Y-86960000D03*
X88960000Y-86960000D03*
X91500000Y-84420000D03*
X88960000Y-84420000D03*
X91500000Y-81880000D03*
X88960000Y-81880000D03*
X91500000Y-79340000D03*
X88960000Y-79340000D03*
X91500000Y-76800000D03*
X88960000Y-76800000D03*
X91500000Y-74260000D03*
X88960000Y-74260000D03*
X91500000Y-71720000D03*
X88960000Y-71720000D03*
X91500000Y-69180000D03*
X88960000Y-69180000D03*
X91500000Y-66640000D03*
X88960000Y-66640000D03*
X91500000Y-64100000D03*
X88960000Y-64100000D03*
X91500000Y-61560000D03*
X88960000Y-61560000D03*
X91500000Y-59020000D03*
X88960000Y-59020000D03*
X91500000Y-56480000D03*
X88960000Y-56480000D03*
X91500000Y-53940000D03*
X88960000Y-53940000D03*
X91500000Y-51400000D03*
X88960000Y-51400000D03*
X91500000Y-48860000D03*
X88960000Y-48860000D03*
X91500000Y-46320000D03*
X88960000Y-46320000D03*
X91500000Y-43780000D03*
X88960000Y-43780000D03*
X91500000Y-41240000D03*
X88960000Y-41240000D03*
X91500000Y-38700000D03*
X88960000Y-38700000D03*
X91500000Y-36160000D03*
X88960000Y-36160000D03*
X91500000Y-33620000D03*
X88960000Y-33620000D03*
X91500000Y-31080000D03*
X88960000Y-31080000D03*
X91500000Y-28540000D03*
X88960000Y-28540000D03*
X91500000Y-26000000D03*
X88960000Y-26000000D03*
X91500000Y-23460000D03*
X88960000Y-23460000D03*
D16*
X169605000Y-99660000D03*
X169605000Y-26000000D03*
X83880000Y-102200000D03*
X83880000Y-22190000D03*
D17*
X146300000Y-63800000D03*
X138000000Y-70000000D03*
X144900000Y-62800000D03*
X142000000Y-59500000D03*
X145700000Y-69400000D03*
X145000000Y-71500000D03*
X139000000Y-64500000D03*
X142500000Y-71500000D03*
X140000000Y-69400000D03*
X146600000Y-67200000D03*
X138500000Y-71500000D03*
X139500000Y-71500000D03*
X141518899Y-61981101D03*
D18*
X164800000Y-60300000D03*
X153500000Y-76500000D03*
X157000000Y-72500000D03*
X166360000Y-53850000D03*
X158500000Y-72500000D03*
X133000000Y-63500000D03*
D17*
X154200000Y-65280000D03*
D18*
X160029807Y-65500000D03*
X160029807Y-64500000D03*
X150500000Y-20000000D03*
X164190000Y-63930000D03*
X159029807Y-63500000D03*
X166910000Y-54500000D03*
X161029807Y-63500000D03*
X147300000Y-58600000D03*
X164840000Y-53030000D03*
D17*
X148950000Y-68500000D03*
D18*
X154350000Y-59230000D03*
X164180000Y-61010000D03*
X146500000Y-76500000D03*
X161029807Y-65500000D03*
X166580000Y-67000000D03*
X160500000Y-58200000D03*
X158410000Y-53470000D03*
X162130000Y-53880000D03*
X159029807Y-64500000D03*
X131500000Y-65000000D03*
X154670000Y-55330000D03*
X136500000Y-74000000D03*
X167010000Y-57370000D03*
X167500000Y-75000000D03*
X153200000Y-78700000D03*
X142500000Y-76500000D03*
X153940000Y-57130000D03*
X157310000Y-53450000D03*
X104500000Y-101000000D03*
X153990000Y-56060000D03*
X166980000Y-55420000D03*
X166980000Y-56400000D03*
X138500000Y-20500000D03*
X139000000Y-75000000D03*
X156330000Y-53740000D03*
X166170000Y-66090000D03*
X160000000Y-72500000D03*
X166260000Y-58940000D03*
X155540000Y-54520000D03*
X162810000Y-53200000D03*
X165620000Y-59630000D03*
X134000000Y-73500000D03*
X153920000Y-58210000D03*
X161029807Y-64500000D03*
X147500000Y-52500000D03*
X105000000Y-25500000D03*
X164000000Y-104500000D03*
X111500000Y-32500000D03*
X140500000Y-76500000D03*
X164933377Y-64526257D03*
X140500000Y-51025000D03*
X152000000Y-62000000D03*
X155010000Y-59960000D03*
X153500000Y-72500000D03*
X163850000Y-53020000D03*
X165790000Y-53150000D03*
X160500000Y-60000000D03*
X144500000Y-52500000D03*
X166920000Y-58260000D03*
X152100000Y-70100000D03*
X131700000Y-94400000D03*
X160500000Y-61000000D03*
X136100000Y-59700000D03*
X129500000Y-71000000D03*
X156440000Y-61480000D03*
X160029807Y-63500000D03*
X159029807Y-65500000D03*
X165760000Y-65260000D03*
X160500000Y-59100000D03*
X155760000Y-60750000D03*
D17*
X148250000Y-64100000D03*
D18*
X102000000Y-42000000D03*
X105000000Y-39000000D03*
X134000000Y-71000000D03*
X152500000Y-60500000D03*
X154000000Y-104500000D03*
X151000000Y-93000000D03*
X121800000Y-94500000D03*
X155500000Y-72500000D03*
X123000000Y-65000000D03*
X138500000Y-56000000D03*
X133000000Y-65500000D03*
X150000000Y-81000000D03*
D17*
X163000000Y-70900000D03*
X148501459Y-70912071D03*
X134500000Y-51500000D03*
X137000000Y-49500000D03*
X142850500Y-62838556D03*
X149500000Y-62000000D03*
X147200000Y-63100000D03*
X126500000Y-91000000D03*
X138049500Y-66000000D03*
X164500000Y-67500000D03*
X143500000Y-72000000D03*
X161243504Y-74000000D03*
X164950500Y-68500000D03*
X137500000Y-65000000D03*
D18*
X111500000Y-27500000D03*
X107500000Y-30500000D03*
X117000000Y-29000000D03*
X102000000Y-21500000D03*
X123000000Y-69500000D03*
X154500000Y-69000000D03*
D17*
X162700000Y-69000000D03*
X128075000Y-96000000D03*
X150638556Y-84861444D03*
X152000000Y-83500000D03*
X142361444Y-62000000D03*
X155500000Y-70000000D03*
X149000000Y-86500000D03*
X157000000Y-92000000D03*
X138500000Y-59500000D03*
X141401344Y-70802050D03*
X141049500Y-56965364D03*
X142118899Y-70618899D03*
X142000000Y-58000000D03*
X134000000Y-68000000D03*
X133000000Y-72500000D03*
X100500000Y-61500000D03*
X102500000Y-60500000D03*
D19*
X141500000Y-60000000D02*
X141500000Y-62000000D01*
X142000000Y-59500000D02*
X141500000Y-60000000D01*
X141500000Y-62000000D02*
X141518899Y-61981101D01*
D20*
X148513530Y-70900000D02*
X163000000Y-70900000D01*
X148501459Y-70912071D02*
X148513530Y-70900000D01*
X134500000Y-51500000D02*
X122300000Y-63700000D01*
X145950000Y-63350000D02*
X146200000Y-63100000D01*
X141500000Y-45000000D02*
X137000000Y-49500000D01*
X126500000Y-90000000D02*
X126500000Y-91000000D01*
X122300000Y-85800000D02*
X126500000Y-90000000D01*
X143361944Y-63350000D02*
X145950000Y-63350000D01*
X149500000Y-62000000D02*
X149500000Y-52500000D01*
X142000000Y-45000000D02*
X141500000Y-45000000D01*
X122300000Y-63700000D02*
X122300000Y-85800000D01*
X146200000Y-63100000D02*
X147200000Y-63100000D01*
X149500000Y-52500000D02*
X142000000Y-45000000D01*
X142850500Y-62838556D02*
X143361944Y-63350000D01*
X138049500Y-68227318D02*
X142661091Y-72838909D01*
X161477818Y-73200000D02*
X164400500Y-70277318D01*
X164400500Y-70277318D02*
X164400500Y-67599500D01*
X164400500Y-67599500D02*
X164500000Y-67500000D01*
X143022182Y-73200000D02*
X161477818Y-73200000D01*
X142661091Y-72838909D02*
X143022182Y-73200000D01*
X138049500Y-66000000D02*
X138049500Y-68227318D01*
X143500000Y-72000000D02*
X142661091Y-72838909D01*
X143000000Y-74000000D02*
X161243504Y-74000000D01*
X137500000Y-68500000D02*
X143000000Y-74000000D01*
X164950500Y-70293004D02*
X164950500Y-68500000D01*
X161243504Y-74000000D02*
X164950500Y-70293004D01*
X137500000Y-65000000D02*
X137500000Y-68500000D01*
D21*
X108500000Y-30500000D02*
X107500000Y-30500000D01*
X111500000Y-27500000D02*
X108500000Y-30500000D01*
X117000000Y-31500000D02*
X139250000Y-53750000D01*
X123000000Y-69500000D02*
X138750000Y-53750000D01*
X117000000Y-29000000D02*
X117000000Y-31500000D01*
X112500000Y-21500000D02*
X117000000Y-26000000D01*
X102000000Y-21500000D02*
X112500000Y-21500000D01*
X138750000Y-53750000D02*
X139250000Y-53750000D01*
X139250000Y-53750000D02*
X154500000Y-69000000D01*
X117000000Y-26000000D02*
X117000000Y-29000000D01*
D20*
X152000000Y-83500000D02*
X151000000Y-84500000D01*
X142834814Y-63388556D02*
X143941458Y-64495200D01*
X142300500Y-62060944D02*
X142300500Y-63066374D01*
X153072182Y-69700000D02*
X156000000Y-69700000D01*
X142361444Y-62000000D02*
X142300500Y-62060944D01*
X142622682Y-63388556D02*
X142834814Y-63388556D01*
X143941458Y-64495200D02*
X147867382Y-64495200D01*
X155800000Y-69700000D02*
X155500000Y-70000000D01*
X162000000Y-69700000D02*
X162700000Y-69000000D01*
X139500000Y-96000000D02*
X128075000Y-96000000D01*
X147867382Y-64495200D02*
X153072182Y-69700000D01*
X156000000Y-69700000D02*
X162000000Y-69700000D01*
X156000000Y-69700000D02*
X155800000Y-69700000D01*
X151000000Y-84500000D02*
X150638556Y-84861444D01*
X142300500Y-63066374D02*
X142622682Y-63388556D01*
X149000000Y-86500000D02*
X139500000Y-96000000D01*
X136950000Y-71950000D02*
X157000000Y-92000000D01*
X136950000Y-61550000D02*
X136950000Y-71950000D01*
X138500000Y-59500000D02*
X138500000Y-60000000D01*
X138500000Y-60000000D02*
X136950000Y-61550000D01*
X140000000Y-57500000D02*
X140000000Y-68622182D01*
X141401344Y-70479162D02*
X141401344Y-70802050D01*
X140550000Y-69627818D02*
X141401344Y-70479162D01*
X140534636Y-56965364D02*
X140000000Y-57500000D01*
X140000000Y-68622182D02*
X140550000Y-69172182D01*
X141049500Y-56965364D02*
X140534636Y-56965364D01*
X140550000Y-69172182D02*
X140550000Y-69627818D01*
X140968899Y-59031101D02*
X140968899Y-62300459D01*
X142118899Y-63450459D02*
X142118899Y-70618899D01*
X140968899Y-62300459D02*
X142118899Y-63450459D01*
X142000000Y-58000000D02*
X140968899Y-59031101D01*
X134000000Y-68000000D02*
X133000000Y-69000000D01*
X133000000Y-69000000D02*
X133000000Y-72500000D01*
X100500000Y-61500000D02*
X101000000Y-61500000D01*
X101000000Y-61500000D02*
X102000000Y-60500000D01*
X102000000Y-60500000D02*
X102500000Y-60500000D01*
M02*
