G04 #@! TF.GenerationSoftware,KiCad,Pcbnew,7.0.9+1*
G04 #@! TF.CreationDate,2024-02-23T15:47:33-08:00*
G04 #@! TF.ProjectId,hsl_radio,68736c5f-7261-4646-996f-2e6b69636164,1*
G04 #@! TF.SameCoordinates,Original*
G04 #@! TF.FileFunction,Legend,Bot*
G04 #@! TF.FilePolarity,Positive*
%FSLAX46Y46*%
G04 Gerber Fmt 4.6, Leading zero omitted, Abs format (unit mm)*
G04 Created by KiCad (PCBNEW 7.0.9+1) date 2024-02-23 15:47:33*
%MOMM*%
%LPD*%
G01*
G04 APERTURE LIST*
G04 Aperture macros list*
%AMRoundRect*
0 Rectangle with rounded corners*
0 $1 Rounding radius*
0 $2 $3 $4 $5 $6 $7 $8 $9 X,Y pos of 4 corners*
0 Add a 4 corners polygon primitive as box body*
4,1,4,$2,$3,$4,$5,$6,$7,$8,$9,$2,$3,0*
0 Add four circle primitives for the rounded corners*
1,1,$1+$1,$2,$3*
1,1,$1+$1,$4,$5*
1,1,$1+$1,$6,$7*
1,1,$1+$1,$8,$9*
0 Add four rect primitives between the rounded corners*
20,1,$1+$1,$2,$3,$4,$5,0*
20,1,$1+$1,$4,$5,$6,$7,0*
20,1,$1+$1,$6,$7,$8,$9,0*
20,1,$1+$1,$8,$9,$2,$3,0*%
G04 Aperture macros list end*
%ADD10C,0.150000*%
%ADD11C,0.711200*%
%ADD12RoundRect,0.050800X-0.850000X0.850000X-0.850000X-0.850000X0.850000X-0.850000X0.850000X0.850000X0*%
%ADD13O,1.801600X1.801600*%
%ADD14RoundRect,0.050800X0.850000X-0.850000X0.850000X0.850000X-0.850000X0.850000X-0.850000X-0.850000X0*%
%ADD15RoundRect,0.050800X2.540000X1.210000X-2.540000X1.210000X-2.540000X-1.210000X2.540000X-1.210000X0*%
%ADD16RoundRect,0.050800X0.850000X0.850000X-0.850000X0.850000X-0.850000X-0.850000X0.850000X-0.850000X0*%
%ADD17C,6.501600*%
G04 APERTURE END LIST*
D10*
X172204819Y-78000000D02*
X171538152Y-78000000D01*
X171728628Y-78000000D02*
X171633390Y-78047619D01*
X171633390Y-78047619D02*
X171585771Y-78095238D01*
X171585771Y-78095238D02*
X171538152Y-78190476D01*
X171538152Y-78190476D02*
X171538152Y-78285714D01*
X171538152Y-78523810D02*
X172204819Y-78714286D01*
X172204819Y-78714286D02*
X171728628Y-78904762D01*
X171728628Y-78904762D02*
X172204819Y-79095238D01*
X172204819Y-79095238D02*
X171538152Y-79285714D01*
X172204819Y-79666667D02*
X171204819Y-79666667D01*
X171823866Y-79761905D02*
X172204819Y-80047619D01*
X171538152Y-80047619D02*
X171919104Y-79666667D01*
%LPC*%
D11*
X142900000Y-68100000D03*
X144400000Y-68100000D03*
X144400000Y-65100000D03*
X142900000Y-65100000D03*
X141400000Y-65100000D03*
X141400000Y-68100000D03*
X144400000Y-66600000D03*
X142900000Y-66600000D03*
X141400000Y-66600000D03*
D12*
X148150000Y-102900000D03*
D13*
X145610000Y-102900000D03*
X143070000Y-102900000D03*
X140530000Y-102900000D03*
X137990000Y-102900000D03*
X135450000Y-102900000D03*
D14*
X122475000Y-102500000D03*
D13*
X125015000Y-102500000D03*
X127555000Y-102500000D03*
D15*
X171500000Y-58240000D03*
X171500000Y-67000000D03*
D16*
X91500000Y-102200000D03*
D13*
X88960000Y-102200000D03*
X91500000Y-99660000D03*
X88960000Y-99660000D03*
X91500000Y-97120000D03*
X88960000Y-97120000D03*
X91500000Y-94580000D03*
X88960000Y-94580000D03*
X91500000Y-92040000D03*
X88960000Y-92040000D03*
X91500000Y-89500000D03*
X88960000Y-89500000D03*
X91500000Y-86960000D03*
X88960000Y-86960000D03*
X91500000Y-84420000D03*
X88960000Y-84420000D03*
X91500000Y-81880000D03*
X88960000Y-81880000D03*
X91500000Y-79340000D03*
X88960000Y-79340000D03*
X91500000Y-76800000D03*
X88960000Y-76800000D03*
X91500000Y-74260000D03*
X88960000Y-74260000D03*
X91500000Y-71720000D03*
X88960000Y-71720000D03*
X91500000Y-69180000D03*
X88960000Y-69180000D03*
X91500000Y-66640000D03*
X88960000Y-66640000D03*
X91500000Y-64100000D03*
X88960000Y-64100000D03*
X91500000Y-61560000D03*
X88960000Y-61560000D03*
X91500000Y-59020000D03*
X88960000Y-59020000D03*
X91500000Y-56480000D03*
X88960000Y-56480000D03*
X91500000Y-53940000D03*
X88960000Y-53940000D03*
X91500000Y-51400000D03*
X88960000Y-51400000D03*
X91500000Y-48860000D03*
X88960000Y-48860000D03*
X91500000Y-46320000D03*
X88960000Y-46320000D03*
X91500000Y-43780000D03*
X88960000Y-43780000D03*
X91500000Y-41240000D03*
X88960000Y-41240000D03*
X91500000Y-38700000D03*
X88960000Y-38700000D03*
X91500000Y-36160000D03*
X88960000Y-36160000D03*
X91500000Y-33620000D03*
X88960000Y-33620000D03*
X91500000Y-31080000D03*
X88960000Y-31080000D03*
X91500000Y-28540000D03*
X88960000Y-28540000D03*
X91500000Y-26000000D03*
X88960000Y-26000000D03*
X91500000Y-23460000D03*
X88960000Y-23460000D03*
D17*
X169605000Y-99660000D03*
X169605000Y-26000000D03*
X83880000Y-102200000D03*
X83880000Y-22190000D03*
%LPD*%
M02*
