G04 #@! TF.GenerationSoftware,KiCad,Pcbnew,7.0.9+1*
G04 #@! TF.CreationDate,2024-02-23T15:47:33-08:00*
G04 #@! TF.ProjectId,hsl_radio,68736c5f-7261-4646-996f-2e6b69636164,1*
G04 #@! TF.SameCoordinates,Original*
G04 #@! TF.FileFunction,Paste,Top*
G04 #@! TF.FilePolarity,Positive*
%FSLAX46Y46*%
G04 Gerber Fmt 4.6, Leading zero omitted, Abs format (unit mm)*
G04 Created by KiCad (PCBNEW 7.0.9+1) date 2024-02-23 15:47:33*
%MOMM*%
%LPD*%
G01*
G04 APERTURE LIST*
G04 Aperture macros list*
%AMRoundRect*
0 Rectangle with rounded corners*
0 $1 Rounding radius*
0 $2 $3 $4 $5 $6 $7 $8 $9 X,Y pos of 4 corners*
0 Add a 4 corners polygon primitive as box body*
4,1,4,$2,$3,$4,$5,$6,$7,$8,$9,$2,$3,0*
0 Add four circle primitives for the rounded corners*
1,1,$1+$1,$2,$3*
1,1,$1+$1,$4,$5*
1,1,$1+$1,$6,$7*
1,1,$1+$1,$8,$9*
0 Add four rect primitives between the rounded corners*
20,1,$1+$1,$2,$3,$4,$5,0*
20,1,$1+$1,$4,$5,$6,$7,0*
20,1,$1+$1,$6,$7,$8,$9,0*
20,1,$1+$1,$8,$9,$2,$3,0*%
G04 Aperture macros list end*
%ADD10C,0.200000*%
%ADD11R,0.280000X0.750000*%
%ADD12R,0.750000X0.280000*%
%ADD13RoundRect,0.225000X0.225000X0.250000X-0.225000X0.250000X-0.225000X-0.250000X0.225000X-0.250000X0*%
%ADD14RoundRect,0.140000X-0.170000X0.140000X-0.170000X-0.140000X0.170000X-0.140000X0.170000X0.140000X0*%
%ADD15RoundRect,0.225000X-0.250000X0.225000X-0.250000X-0.225000X0.250000X-0.225000X0.250000X0.225000X0*%
%ADD16RoundRect,0.225000X0.250000X-0.225000X0.250000X0.225000X-0.250000X0.225000X-0.250000X-0.225000X0*%
%ADD17RoundRect,0.225000X-0.225000X-0.250000X0.225000X-0.250000X0.225000X0.250000X-0.225000X0.250000X0*%
%ADD18RoundRect,0.218750X-0.256250X0.218750X-0.256250X-0.218750X0.256250X-0.218750X0.256250X0.218750X0*%
%ADD19R,2.400000X0.740000*%
%ADD20R,5.080000X2.290000*%
%ADD21R,5.080000X2.420000*%
%ADD22RoundRect,0.250000X0.275000X0.700000X-0.275000X0.700000X-0.275000X-0.700000X0.275000X-0.700000X0*%
%ADD23RoundRect,0.218750X-0.218750X-0.256250X0.218750X-0.256250X0.218750X0.256250X-0.218750X0.256250X0*%
%ADD24RoundRect,0.218750X0.256250X-0.218750X0.256250X0.218750X-0.256250X0.218750X-0.256250X-0.218750X0*%
%ADD25RoundRect,0.200000X-0.200000X-0.275000X0.200000X-0.275000X0.200000X0.275000X-0.200000X0.275000X0*%
%ADD26RoundRect,0.200000X0.200000X0.275000X-0.200000X0.275000X-0.200000X-0.275000X0.200000X-0.275000X0*%
%ADD27RoundRect,0.200000X-0.275000X0.200000X-0.275000X-0.200000X0.275000X-0.200000X0.275000X0.200000X0*%
%ADD28RoundRect,0.200000X0.275000X-0.200000X0.275000X0.200000X-0.275000X0.200000X-0.275000X-0.200000X0*%
%ADD29R,1.700000X0.810000*%
%ADD30R,1.050000X0.810000*%
%ADD31R,0.800000X0.900000*%
%ADD32R,0.650000X0.400000*%
%ADD33R,1.003300X0.558800*%
%ADD34RoundRect,0.475000X0.475000X2.075000X-0.475000X2.075000X-0.475000X-2.075000X0.475000X-2.075000X0*%
%ADD35R,0.350000X1.000000*%
%ADD36R,0.609600X0.609600*%
%ADD37R,0.609600X0.457200*%
%ADD38R,0.457200X0.609600*%
%ADD39R,1.300000X1.600000*%
G04 APERTURE END LIST*
D10*
X143750000Y-68100000D02*
G75*
G03*
X143750000Y-68100000I-100000J0D01*
G01*
X143750000Y-66600000D02*
G75*
G03*
X143750000Y-66600000I-100000J0D01*
G01*
X143750000Y-65100000D02*
G75*
G03*
X143750000Y-65100000I-100000J0D01*
G01*
X142250000Y-65100000D02*
G75*
G03*
X142250000Y-65100000I-100000J0D01*
G01*
X142250000Y-66600000D02*
G75*
G03*
X142250000Y-66600000I-100000J0D01*
G01*
X142250000Y-68100000D02*
G75*
G03*
X142250000Y-68100000I-100000J0D01*
G01*
X141500000Y-67350000D02*
G75*
G03*
X141500000Y-67350000I-100000J0D01*
G01*
X142250000Y-67350000D02*
G75*
G03*
X142250000Y-67350000I-100000J0D01*
G01*
X143750000Y-67350000D02*
G75*
G03*
X143750000Y-67350000I-100000J0D01*
G01*
X143000000Y-67350000D02*
G75*
G03*
X143000000Y-67350000I-100000J0D01*
G01*
X144500000Y-67350000D02*
G75*
G03*
X144500000Y-67350000I-100000J0D01*
G01*
X144500000Y-65850000D02*
G75*
G03*
X144500000Y-65850000I-100000J0D01*
G01*
X143000000Y-65850000D02*
G75*
G03*
X143000000Y-65850000I-100000J0D01*
G01*
X143750000Y-65850000D02*
G75*
G03*
X143750000Y-65850000I-100000J0D01*
G01*
X142250000Y-65850000D02*
G75*
G03*
X142250000Y-65850000I-100000J0D01*
G01*
X141500000Y-65850000D02*
G75*
G03*
X141500000Y-65850000I-100000J0D01*
G01*
G36*
X162218101Y-66718100D02*
G01*
X161122701Y-66718100D01*
X161122701Y-65622700D01*
X162218101Y-65622700D01*
X162218101Y-66718100D01*
G37*
G36*
X162218101Y-65422700D02*
G01*
X161122701Y-65422700D01*
X161122701Y-64327300D01*
X162218101Y-64327300D01*
X162218101Y-65422700D01*
G37*
G36*
X162218101Y-64127300D02*
G01*
X161122701Y-64127300D01*
X161122701Y-63031900D01*
X162218101Y-63031900D01*
X162218101Y-64127300D01*
G37*
G36*
X160922701Y-66718100D02*
G01*
X159827301Y-66718100D01*
X159827301Y-65622700D01*
X160922701Y-65622700D01*
X160922701Y-66718100D01*
G37*
G36*
X160922701Y-65422700D02*
G01*
X159827301Y-65422700D01*
X159827301Y-64327300D01*
X160922701Y-64327300D01*
X160922701Y-65422700D01*
G37*
G36*
X160922701Y-64127300D02*
G01*
X159827301Y-64127300D01*
X159827301Y-63031900D01*
X160922701Y-63031900D01*
X160922701Y-64127300D01*
G37*
G36*
X159627301Y-66718100D02*
G01*
X158531901Y-66718100D01*
X158531901Y-65622700D01*
X159627301Y-65622700D01*
X159627301Y-66718100D01*
G37*
G36*
X159627301Y-65422700D02*
G01*
X158531901Y-65422700D01*
X158531901Y-64327300D01*
X159627301Y-64327300D01*
X159627301Y-65422700D01*
G37*
G36*
X159627301Y-64127300D02*
G01*
X158531901Y-64127300D01*
X158531901Y-63031900D01*
X159627301Y-63031900D01*
X159627301Y-64127300D01*
G37*
D11*
X142900000Y-63820000D03*
X143400000Y-63820000D03*
X143900000Y-63820000D03*
X144400000Y-63820000D03*
X144900000Y-63820000D03*
X142400000Y-63820000D03*
X141900000Y-63820000D03*
X141400000Y-63820000D03*
X140900000Y-63820000D03*
D12*
X145680000Y-66600000D03*
X145680000Y-67100000D03*
X145680000Y-67600000D03*
X145680000Y-68100000D03*
X145680000Y-68600000D03*
X145680000Y-64600000D03*
X145680000Y-65100000D03*
X145680000Y-65600000D03*
X145680000Y-66100000D03*
D11*
X142900000Y-69380000D03*
X142400000Y-69380000D03*
X141900000Y-69380000D03*
X141400000Y-69380000D03*
X140900000Y-69380000D03*
X144900000Y-69380000D03*
X144400000Y-69380000D03*
X143900000Y-69380000D03*
X143400000Y-69380000D03*
D12*
X140120000Y-66600000D03*
X140120000Y-66100000D03*
X140120000Y-65600000D03*
X140120000Y-65100000D03*
X140120000Y-64600000D03*
X140120000Y-68600000D03*
X140120000Y-68100000D03*
X140120000Y-67600000D03*
X140120000Y-67100000D03*
D13*
X136775000Y-71500000D03*
X135225000Y-71500000D03*
D14*
X139000000Y-73020000D03*
X139000000Y-73980000D03*
D15*
X140500000Y-73225000D03*
X140500000Y-74775000D03*
D16*
X104000000Y-28775000D03*
X104000000Y-27225000D03*
D15*
X142500000Y-73225000D03*
X142500000Y-74775000D03*
X167500000Y-72225000D03*
X167500000Y-73775000D03*
D14*
X138000000Y-73040000D03*
X138000000Y-74000000D03*
D15*
X157000000Y-69225000D03*
X157000000Y-70775000D03*
X144500000Y-54225000D03*
X144500000Y-55775000D03*
X146500000Y-73225000D03*
X146500000Y-74775000D03*
X101000000Y-23725000D03*
X101000000Y-25275000D03*
X102000000Y-38725000D03*
X102000000Y-40275000D03*
D16*
X144000000Y-61775000D03*
X144000000Y-60225000D03*
X140500000Y-54775000D03*
X140500000Y-53225000D03*
D15*
X151300000Y-67525000D03*
X151300000Y-69075000D03*
D17*
X149725000Y-78700000D03*
X151275000Y-78700000D03*
D13*
X155775000Y-63000000D03*
X154225000Y-63000000D03*
D15*
X158500000Y-69225000D03*
X158500000Y-70775000D03*
X160000000Y-69225000D03*
X160000000Y-70775000D03*
X147500000Y-54225000D03*
X147500000Y-55775000D03*
D18*
X142000000Y-20212500D03*
X142000000Y-21787500D03*
X147500000Y-19925000D03*
X147500000Y-21500000D03*
D19*
X160950000Y-104040000D03*
X157050000Y-104040000D03*
X160950000Y-102770000D03*
X157050000Y-102770000D03*
X160950000Y-101500000D03*
X157050000Y-101500000D03*
X160950000Y-100230000D03*
X157050000Y-100230000D03*
X160950000Y-98960000D03*
X157050000Y-98960000D03*
D20*
X171500000Y-62620000D03*
D21*
X171500000Y-67000000D03*
X171500000Y-58240000D03*
D22*
X100075000Y-38000000D03*
X96925000Y-38000000D03*
D23*
X135212500Y-70000000D03*
X136787500Y-70000000D03*
D24*
X153100000Y-69187500D03*
X153100000Y-67612500D03*
D25*
X123275000Y-94500000D03*
X124925000Y-94500000D03*
D26*
X129725000Y-94400000D03*
X128075000Y-94400000D03*
D27*
X142000000Y-23675000D03*
X142000000Y-25325000D03*
X147500000Y-23137500D03*
X147500000Y-24787500D03*
X135500000Y-98475000D03*
X135500000Y-100125000D03*
X145700000Y-98375000D03*
X145700000Y-100025000D03*
X138000000Y-98475000D03*
X138000000Y-100125000D03*
X140400000Y-98475000D03*
X140400000Y-100125000D03*
D26*
X99500000Y-65000000D03*
X97850000Y-65000000D03*
X99500000Y-63000000D03*
X97850000Y-63000000D03*
X99500000Y-59000000D03*
X97850000Y-59000000D03*
X99500000Y-61000000D03*
X97850000Y-61000000D03*
D27*
X127900000Y-97775000D03*
X127900000Y-99425000D03*
X125100000Y-97775000D03*
X125100000Y-99425000D03*
X146300000Y-60175000D03*
X146300000Y-61825000D03*
D26*
X149825000Y-70000000D03*
X148175000Y-70000000D03*
X158325000Y-94500000D03*
X156675000Y-94500000D03*
X126475000Y-65000000D03*
X124825000Y-65000000D03*
X129975000Y-65000000D03*
X128325000Y-65000000D03*
X126475000Y-69500000D03*
X124825000Y-69500000D03*
X130150000Y-69500000D03*
X128500000Y-69500000D03*
D25*
X134175000Y-65500000D03*
X135825000Y-65500000D03*
D26*
X154325000Y-94500000D03*
X152675000Y-94500000D03*
X135825000Y-63500000D03*
X134175000Y-63500000D03*
D27*
X169250000Y-72175000D03*
X169250000Y-73825000D03*
D28*
X165500000Y-73825000D03*
X165500000Y-72175000D03*
D29*
X159750000Y-54810000D03*
D30*
X159425000Y-56000000D03*
X159425000Y-57190000D03*
X161575000Y-57190000D03*
X161575000Y-56000000D03*
X161575000Y-54810000D03*
D31*
X137550000Y-59700000D03*
X139450000Y-59700000D03*
X138500000Y-57700000D03*
D32*
X153020000Y-65970000D03*
X153020000Y-64670000D03*
X151120000Y-65320000D03*
X153020000Y-65320000D03*
X151120000Y-64670000D03*
X151120000Y-65970000D03*
D28*
X144500000Y-74825000D03*
X144500000Y-73175000D03*
D16*
X112500000Y-26275000D03*
X112500000Y-24725000D03*
D33*
X106147450Y-26549999D03*
X106147450Y-27500000D03*
X106147450Y-28450001D03*
X108852550Y-28450001D03*
X108852550Y-27500000D03*
X108852550Y-26549999D03*
D27*
X111500000Y-29175000D03*
X111500000Y-30825000D03*
D34*
X109600000Y-21500000D03*
X105400000Y-21500000D03*
D26*
X115325000Y-29000000D03*
X113675000Y-29000000D03*
D22*
X99075000Y-28500000D03*
X95925000Y-28500000D03*
D35*
X148950000Y-65400000D03*
X148300000Y-65400000D03*
X147650000Y-65400000D03*
X147650000Y-67200000D03*
X148300000Y-67200000D03*
X148950000Y-67200000D03*
D36*
X163220207Y-67737021D03*
D37*
X163220195Y-66750000D03*
X163220195Y-65999999D03*
X163220195Y-65250001D03*
X163220195Y-64499999D03*
X163220195Y-63750001D03*
X163220195Y-63000000D03*
D36*
X163220207Y-62013995D03*
D38*
X162250001Y-62012992D03*
X161500000Y-62012992D03*
X160750002Y-62012992D03*
X160000000Y-62012992D03*
X159250002Y-62012992D03*
X158500001Y-62012992D03*
D36*
X157529795Y-62013995D03*
D37*
X157529807Y-63000000D03*
X157529807Y-63750001D03*
X157529807Y-64499999D03*
X157529807Y-65250001D03*
X157529807Y-65999999D03*
X157529807Y-66750000D03*
D36*
X157529795Y-67737021D03*
D38*
X158500001Y-67737008D03*
X159250002Y-67737008D03*
X160000000Y-67737008D03*
X160750002Y-67737008D03*
X161500000Y-67737008D03*
X162250001Y-67737008D03*
D39*
X151750000Y-76550000D03*
X151750000Y-72450000D03*
X149250000Y-72450000D03*
X149250000Y-76550000D03*
D15*
X103000000Y-23725000D03*
X103000000Y-25275000D03*
M02*
