%TF.GenerationSoftware,KiCad,Pcbnew,7.0.9+1*%
%TF.CreationDate,2024-02-18T19:38:20-08:00*%
%TF.ProjectId,hsl_radio,68736c5f-7261-4646-996f-2e6b69636164,1*%
%TF.SameCoordinates,Original*%
%TF.FileFunction,Drillmap*%
%TF.FilePolarity,Positive*%
%FSLAX45Y45*%
G04 Gerber Fmt 4.5, Leading zero omitted, Abs format (unit mm)*
G04 Created by KiCad (PCBNEW 7.0.9+1) date 2024-02-18 19:38:20*
%MOMM*%
%LPD*%
G01*
G04 APERTURE LIST*
%ADD10C,0.200000*%
G04 APERTURE END LIST*
D10*
X8138277Y-11041984D02*
X8138277Y-10841984D01*
X8138277Y-10841984D02*
X8185896Y-10841984D01*
X8185896Y-10841984D02*
X8214467Y-10851508D01*
X8214467Y-10851508D02*
X8233515Y-10870555D01*
X8233515Y-10870555D02*
X8243039Y-10889603D01*
X8243039Y-10889603D02*
X8252562Y-10927698D01*
X8252562Y-10927698D02*
X8252562Y-10956270D01*
X8252562Y-10956270D02*
X8243039Y-10994365D01*
X8243039Y-10994365D02*
X8233515Y-11013412D01*
X8233515Y-11013412D02*
X8214467Y-11032460D01*
X8214467Y-11032460D02*
X8185896Y-11041984D01*
X8185896Y-11041984D02*
X8138277Y-11041984D01*
X8338277Y-11041984D02*
X8338277Y-10908650D01*
X8338277Y-10946746D02*
X8347801Y-10927698D01*
X8347801Y-10927698D02*
X8357324Y-10918174D01*
X8357324Y-10918174D02*
X8376372Y-10908650D01*
X8376372Y-10908650D02*
X8395420Y-10908650D01*
X8462086Y-11041984D02*
X8462086Y-10908650D01*
X8462086Y-10841984D02*
X8452563Y-10851508D01*
X8452563Y-10851508D02*
X8462086Y-10861031D01*
X8462086Y-10861031D02*
X8471610Y-10851508D01*
X8471610Y-10851508D02*
X8462086Y-10841984D01*
X8462086Y-10841984D02*
X8462086Y-10861031D01*
X8585896Y-11041984D02*
X8566848Y-11032460D01*
X8566848Y-11032460D02*
X8557324Y-11013412D01*
X8557324Y-11013412D02*
X8557324Y-10841984D01*
X8690658Y-11041984D02*
X8671610Y-11032460D01*
X8671610Y-11032460D02*
X8662086Y-11013412D01*
X8662086Y-11013412D02*
X8662086Y-10841984D01*
X8919229Y-11041984D02*
X8919229Y-10841984D01*
X8919229Y-10841984D02*
X8985896Y-10984841D01*
X8985896Y-10984841D02*
X9052563Y-10841984D01*
X9052563Y-10841984D02*
X9052563Y-11041984D01*
X9233515Y-11041984D02*
X9233515Y-10937222D01*
X9233515Y-10937222D02*
X9223991Y-10918174D01*
X9223991Y-10918174D02*
X9204944Y-10908650D01*
X9204944Y-10908650D02*
X9166848Y-10908650D01*
X9166848Y-10908650D02*
X9147801Y-10918174D01*
X9233515Y-11032460D02*
X9214467Y-11041984D01*
X9214467Y-11041984D02*
X9166848Y-11041984D01*
X9166848Y-11041984D02*
X9147801Y-11032460D01*
X9147801Y-11032460D02*
X9138277Y-11013412D01*
X9138277Y-11013412D02*
X9138277Y-10994365D01*
X9138277Y-10994365D02*
X9147801Y-10975317D01*
X9147801Y-10975317D02*
X9166848Y-10965793D01*
X9166848Y-10965793D02*
X9214467Y-10965793D01*
X9214467Y-10965793D02*
X9233515Y-10956270D01*
X9328753Y-10908650D02*
X9328753Y-11108650D01*
X9328753Y-10918174D02*
X9347801Y-10908650D01*
X9347801Y-10908650D02*
X9385896Y-10908650D01*
X9385896Y-10908650D02*
X9404944Y-10918174D01*
X9404944Y-10918174D02*
X9414467Y-10927698D01*
X9414467Y-10927698D02*
X9423991Y-10946746D01*
X9423991Y-10946746D02*
X9423991Y-11003889D01*
X9423991Y-11003889D02*
X9414467Y-11022936D01*
X9414467Y-11022936D02*
X9404944Y-11032460D01*
X9404944Y-11032460D02*
X9385896Y-11041984D01*
X9385896Y-11041984D02*
X9347801Y-11041984D01*
X9347801Y-11041984D02*
X9328753Y-11032460D01*
X9509705Y-11022936D02*
X9519229Y-11032460D01*
X9519229Y-11032460D02*
X9509705Y-11041984D01*
X9509705Y-11041984D02*
X9500182Y-11032460D01*
X9500182Y-11032460D02*
X9509705Y-11022936D01*
X9509705Y-11022936D02*
X9509705Y-11041984D01*
X9509705Y-10918174D02*
X9519229Y-10927698D01*
X9519229Y-10927698D02*
X9509705Y-10937222D01*
X9509705Y-10937222D02*
X9500182Y-10927698D01*
X9500182Y-10927698D02*
X9509705Y-10918174D01*
X9509705Y-10918174D02*
X9509705Y-10937222D01*
M02*
