%TF.GenerationSoftware,KiCad,Pcbnew,7.0.9+1*%
%TF.CreationDate,2024-02-18T19:38:20-08:00*%
%TF.ProjectId,hsl_radio,68736c5f-7261-4646-996f-2e6b69636164,1*%
%TF.SameCoordinates,Original*%
%TF.FileFunction,Drillmap*%
%TF.FilePolarity,Positive*%
%FSLAX45Y45*%
G04 Gerber Fmt 4.5, Leading zero omitted, Abs format (unit mm)*
G04 Created by KiCad (PCBNEW 7.0.9+1) date 2024-02-18 19:38:20*
%MOMM*%
%LPD*%
G01*
G04 APERTURE LIST*
%ADD10C,0.200000*%
%ADD11C,0.100000*%
%ADD12C,0.320000*%
G04 APERTURE END LIST*
D10*
D11*
X10037500Y-6137500D02*
X10062500Y-6162500D01*
X10062500Y-6137500D02*
X10037500Y-6162500D01*
X10237500Y-6037500D02*
X10262500Y-6062500D01*
X10262500Y-6037500D02*
X10237500Y-6062500D01*
X12637500Y-9087500D02*
X12662500Y-9112500D01*
X12662500Y-9087500D02*
X12637500Y-9112500D01*
X12795000Y-9587500D02*
X12820000Y-9612500D01*
X12820000Y-9587500D02*
X12795000Y-9612500D01*
X13287500Y-7237500D02*
X13312500Y-7262500D01*
X13312500Y-7237500D02*
X13287500Y-7262500D01*
X13387500Y-6787500D02*
X13412500Y-6812500D01*
X13412500Y-6787500D02*
X13387500Y-6812500D01*
X13437500Y-5137500D02*
X13462500Y-5162500D01*
X13462500Y-5137500D02*
X13437500Y-5162500D01*
X13687500Y-4937500D02*
X13712500Y-4962500D01*
X13712500Y-4937500D02*
X13687500Y-4962500D01*
X13737500Y-6487500D02*
X13762500Y-6512500D01*
X13762500Y-6487500D02*
X13737500Y-6512500D01*
X13787500Y-6987500D02*
X13812500Y-7012500D01*
X13812500Y-6987500D02*
X13787500Y-7012500D01*
X13792450Y-6587500D02*
X13817450Y-6612500D01*
X13817450Y-6587500D02*
X13792450Y-6612500D01*
X13837500Y-5937500D02*
X13862500Y-5962500D01*
X13862500Y-5937500D02*
X13837500Y-5962500D01*
X13837500Y-7137500D02*
X13862500Y-7162500D01*
X13862500Y-7137500D02*
X13837500Y-7162500D01*
X13887500Y-6437500D02*
X13912500Y-6462500D01*
X13912500Y-6437500D02*
X13887500Y-6462500D01*
X13937500Y-7137500D02*
X13962500Y-7162500D01*
X13962500Y-7137500D02*
X13937500Y-7162500D01*
X13987500Y-6927500D02*
X14012500Y-6952500D01*
X14012500Y-6927500D02*
X13987500Y-6952500D01*
X14092450Y-5684036D02*
X14117450Y-5709036D01*
X14117450Y-5684036D02*
X14092450Y-5709036D01*
X14127634Y-7067705D02*
X14152634Y-7092705D01*
X14152634Y-7067705D02*
X14127634Y-7092705D01*
X14139390Y-6185610D02*
X14164390Y-6210610D01*
X14164390Y-6185610D02*
X14139390Y-6210610D01*
X14187500Y-5787500D02*
X14212500Y-5812500D01*
X14212500Y-5787500D02*
X14187500Y-5812500D01*
X14187500Y-5937500D02*
X14212500Y-5962500D01*
X14212500Y-5937500D02*
X14187500Y-5962500D01*
X14199390Y-7049390D02*
X14224390Y-7074390D01*
X14224390Y-7049390D02*
X14199390Y-7074390D01*
X14223644Y-6187500D02*
X14248644Y-6212500D01*
X14248644Y-6187500D02*
X14223644Y-6212500D01*
X14237500Y-7137500D02*
X14262500Y-7162500D01*
X14262500Y-7137500D02*
X14237500Y-7162500D01*
X14272550Y-6271356D02*
X14297550Y-6296356D01*
X14297550Y-6271356D02*
X14272550Y-6296356D01*
X14337500Y-7187500D02*
X14362500Y-7212500D01*
X14362500Y-7187500D02*
X14337500Y-7212500D01*
X14477500Y-6267500D02*
X14502500Y-6292500D01*
X14502500Y-6267500D02*
X14477500Y-6292500D01*
X14487500Y-7137500D02*
X14512500Y-7162500D01*
X14512500Y-7137500D02*
X14487500Y-7162500D01*
X14557500Y-6927500D02*
X14582500Y-6952500D01*
X14582500Y-6927500D02*
X14557500Y-6952500D01*
X14617500Y-6367500D02*
X14642500Y-6392500D01*
X14642500Y-6367500D02*
X14617500Y-6392500D01*
X14647500Y-6707500D02*
X14672500Y-6732500D01*
X14672500Y-6707500D02*
X14647500Y-6732500D01*
X14707500Y-6297500D02*
X14732500Y-6322500D01*
X14732500Y-6297500D02*
X14707500Y-6322500D01*
X14812500Y-6397500D02*
X14837500Y-6422500D01*
X14837500Y-6397500D02*
X14812500Y-6422500D01*
X14837646Y-7078707D02*
X14862646Y-7103707D01*
X14862646Y-7078707D02*
X14837646Y-7103707D01*
X14882500Y-6837500D02*
X14907500Y-6862500D01*
X14907500Y-6837500D02*
X14882500Y-6862500D01*
X14887500Y-8637500D02*
X14912500Y-8662500D01*
X14912500Y-8637500D02*
X14887500Y-8662500D01*
X14937500Y-6187500D02*
X14962500Y-6212500D01*
X14962500Y-6187500D02*
X14937500Y-6212500D01*
X15051356Y-8473644D02*
X15076356Y-8498644D01*
X15076356Y-8473644D02*
X15051356Y-8498644D01*
X15187500Y-8337500D02*
X15212500Y-8362500D01*
X15212500Y-8337500D02*
X15187500Y-8362500D01*
X15407500Y-6515500D02*
X15432500Y-6540500D01*
X15432500Y-6515500D02*
X15407500Y-6540500D01*
X15537500Y-6987500D02*
X15562500Y-7012500D01*
X15562500Y-6987500D02*
X15537500Y-7012500D01*
X15687500Y-9187500D02*
X15712500Y-9212500D01*
X15712500Y-9187500D02*
X15687500Y-9212500D01*
X16257500Y-6887500D02*
X16282500Y-6912500D01*
X16282500Y-6887500D02*
X16257500Y-6912500D01*
X16287500Y-7077500D02*
X16312500Y-7102500D01*
X16312500Y-7077500D02*
X16287500Y-7102500D01*
X16437500Y-6737500D02*
X16462500Y-6762500D01*
X16462500Y-6737500D02*
X16437500Y-6762500D01*
X16482550Y-6837500D02*
X16507550Y-6862500D01*
X16507550Y-6837500D02*
X16482550Y-6862500D01*
X10215000Y-2150000D02*
G75*
G03*
X10215000Y-2150000I-15000J0D01*
G01*
X10215000Y-4200000D02*
G75*
G03*
X10215000Y-4200000I-15000J0D01*
G01*
X10515000Y-2550000D02*
G75*
G03*
X10515000Y-2550000I-15000J0D01*
G01*
X10515000Y-3900000D02*
G75*
G03*
X10515000Y-3900000I-15000J0D01*
G01*
X10765000Y-3050000D02*
G75*
G03*
X10765000Y-3050000I-15000J0D01*
G01*
X11165000Y-2750000D02*
G75*
G03*
X11165000Y-2750000I-15000J0D01*
G01*
X11165000Y-3250000D02*
G75*
G03*
X11165000Y-3250000I-15000J0D01*
G01*
X11715000Y-2900000D02*
G75*
G03*
X11715000Y-2900000I-15000J0D01*
G01*
X12195000Y-9450000D02*
G75*
G03*
X12195000Y-9450000I-15000J0D01*
G01*
X12315000Y-6500000D02*
G75*
G03*
X12315000Y-6500000I-15000J0D01*
G01*
X12315000Y-6950000D02*
G75*
G03*
X12315000Y-6950000I-15000J0D01*
G01*
X12965000Y-7100000D02*
G75*
G03*
X12965000Y-7100000I-15000J0D01*
G01*
X13165000Y-6500000D02*
G75*
G03*
X13165000Y-6500000I-15000J0D01*
G01*
X13185000Y-9440000D02*
G75*
G03*
X13185000Y-9440000I-15000J0D01*
G01*
X13315000Y-6350000D02*
G75*
G03*
X13315000Y-6350000I-15000J0D01*
G01*
X13315000Y-6550000D02*
G75*
G03*
X13315000Y-6550000I-15000J0D01*
G01*
X13415000Y-7100000D02*
G75*
G03*
X13415000Y-7100000I-15000J0D01*
G01*
X13415000Y-7350000D02*
G75*
G03*
X13415000Y-7350000I-15000J0D01*
G01*
X13625000Y-5970000D02*
G75*
G03*
X13625000Y-5970000I-15000J0D01*
G01*
X13665000Y-7400000D02*
G75*
G03*
X13665000Y-7400000I-15000J0D01*
G01*
X13865000Y-2050000D02*
G75*
G03*
X13865000Y-2050000I-15000J0D01*
G01*
X13865000Y-5600000D02*
G75*
G03*
X13865000Y-5600000I-15000J0D01*
G01*
X13915000Y-7500000D02*
G75*
G03*
X13915000Y-7500000I-15000J0D01*
G01*
X14065000Y-5102500D02*
G75*
G03*
X14065000Y-5102500I-15000J0D01*
G01*
X14065000Y-7650000D02*
G75*
G03*
X14065000Y-7650000I-15000J0D01*
G01*
X14265000Y-7650000D02*
G75*
G03*
X14265000Y-7650000I-15000J0D01*
G01*
X14465000Y-5250000D02*
G75*
G03*
X14465000Y-5250000I-15000J0D01*
G01*
X14665000Y-7650000D02*
G75*
G03*
X14665000Y-7650000I-15000J0D01*
G01*
X14745000Y-5860000D02*
G75*
G03*
X14745000Y-5860000I-15000J0D01*
G01*
X14765000Y-5250000D02*
G75*
G03*
X14765000Y-5250000I-15000J0D01*
G01*
X15015000Y-8100000D02*
G75*
G03*
X15015000Y-8100000I-15000J0D01*
G01*
X15065000Y-2000000D02*
G75*
G03*
X15065000Y-2000000I-15000J0D01*
G01*
X15115000Y-9300000D02*
G75*
G03*
X15115000Y-9300000I-15000J0D01*
G01*
X15215000Y-6200000D02*
G75*
G03*
X15215000Y-6200000I-15000J0D01*
G01*
X15225000Y-7010000D02*
G75*
G03*
X15225000Y-7010000I-15000J0D01*
G01*
X15265000Y-6050000D02*
G75*
G03*
X15265000Y-6050000I-15000J0D01*
G01*
X15335000Y-7870000D02*
G75*
G03*
X15335000Y-7870000I-15000J0D01*
G01*
X15365000Y-7250000D02*
G75*
G03*
X15365000Y-7250000I-15000J0D01*
G01*
X15365000Y-7650000D02*
G75*
G03*
X15365000Y-7650000I-15000J0D01*
G01*
X15407000Y-5821000D02*
G75*
G03*
X15407000Y-5821000I-15000J0D01*
G01*
X15409000Y-5713000D02*
G75*
G03*
X15409000Y-5713000I-15000J0D01*
G01*
X15414000Y-5606000D02*
G75*
G03*
X15414000Y-5606000I-15000J0D01*
G01*
X15415000Y-10450000D02*
G75*
G03*
X15415000Y-10450000I-15000J0D01*
G01*
X15450000Y-5923000D02*
G75*
G03*
X15450000Y-5923000I-15000J0D01*
G01*
X15465000Y-6900000D02*
G75*
G03*
X15465000Y-6900000I-15000J0D01*
G01*
X15482000Y-5533000D02*
G75*
G03*
X15482000Y-5533000I-15000J0D01*
G01*
X15516000Y-5996000D02*
G75*
G03*
X15516000Y-5996000I-15000J0D01*
G01*
X15565000Y-7250000D02*
G75*
G03*
X15565000Y-7250000I-15000J0D01*
G01*
X15569000Y-5452000D02*
G75*
G03*
X15569000Y-5452000I-15000J0D01*
G01*
X15591000Y-6075000D02*
G75*
G03*
X15591000Y-6075000I-15000J0D01*
G01*
X15648000Y-5374000D02*
G75*
G03*
X15648000Y-5374000I-15000J0D01*
G01*
X15659000Y-6148000D02*
G75*
G03*
X15659000Y-6148000I-15000J0D01*
G01*
X15715000Y-7250000D02*
G75*
G03*
X15715000Y-7250000I-15000J0D01*
G01*
X15746000Y-5345000D02*
G75*
G03*
X15746000Y-5345000I-15000J0D01*
G01*
X15856000Y-5347000D02*
G75*
G03*
X15856000Y-5347000I-15000J0D01*
G01*
X15865000Y-7250000D02*
G75*
G03*
X15865000Y-7250000I-15000J0D01*
G01*
X15917981Y-6350000D02*
G75*
G03*
X15917981Y-6350000I-15000J0D01*
G01*
X15917981Y-6450000D02*
G75*
G03*
X15917981Y-6450000I-15000J0D01*
G01*
X15917981Y-6550000D02*
G75*
G03*
X15917981Y-6550000I-15000J0D01*
G01*
X16015000Y-7250000D02*
G75*
G03*
X16015000Y-7250000I-15000J0D01*
G01*
X16017981Y-6350000D02*
G75*
G03*
X16017981Y-6350000I-15000J0D01*
G01*
X16017981Y-6450000D02*
G75*
G03*
X16017981Y-6450000I-15000J0D01*
G01*
X16017981Y-6550000D02*
G75*
G03*
X16017981Y-6550000I-15000J0D01*
G01*
X16065000Y-5820000D02*
G75*
G03*
X16065000Y-5820000I-15000J0D01*
G01*
X16065000Y-5910000D02*
G75*
G03*
X16065000Y-5910000I-15000J0D01*
G01*
X16065000Y-6000000D02*
G75*
G03*
X16065000Y-6000000I-15000J0D01*
G01*
X16065000Y-6100000D02*
G75*
G03*
X16065000Y-6100000I-15000J0D01*
G01*
X16117981Y-6350000D02*
G75*
G03*
X16117981Y-6350000I-15000J0D01*
G01*
X16117981Y-6450000D02*
G75*
G03*
X16117981Y-6450000I-15000J0D01*
G01*
X16117981Y-6550000D02*
G75*
G03*
X16117981Y-6550000I-15000J0D01*
G01*
X16228000Y-5388000D02*
G75*
G03*
X16228000Y-5388000I-15000J0D01*
G01*
X16296000Y-5320000D02*
G75*
G03*
X16296000Y-5320000I-15000J0D01*
G01*
X16400000Y-5302000D02*
G75*
G03*
X16400000Y-5302000I-15000J0D01*
G01*
X16415000Y-10450000D02*
G75*
G03*
X16415000Y-10450000I-15000J0D01*
G01*
X16433000Y-6101000D02*
G75*
G03*
X16433000Y-6101000I-15000J0D01*
G01*
X16434000Y-6393000D02*
G75*
G03*
X16434000Y-6393000I-15000J0D01*
G01*
X16495000Y-6030000D02*
G75*
G03*
X16495000Y-6030000I-15000J0D01*
G01*
X16499000Y-5303000D02*
G75*
G03*
X16499000Y-5303000I-15000J0D01*
G01*
X16508338Y-6452626D02*
G75*
G03*
X16508338Y-6452626I-15000J0D01*
G01*
X16577000Y-5963000D02*
G75*
G03*
X16577000Y-5963000I-15000J0D01*
G01*
X16591000Y-6526000D02*
G75*
G03*
X16591000Y-6526000I-15000J0D01*
G01*
X16594000Y-5315000D02*
G75*
G03*
X16594000Y-5315000I-15000J0D01*
G01*
X16632000Y-6609000D02*
G75*
G03*
X16632000Y-6609000I-15000J0D01*
G01*
X16641000Y-5894000D02*
G75*
G03*
X16641000Y-5894000I-15000J0D01*
G01*
X16651000Y-5385000D02*
G75*
G03*
X16651000Y-5385000I-15000J0D01*
G01*
X16673000Y-6700000D02*
G75*
G03*
X16673000Y-6700000I-15000J0D01*
G01*
X16706000Y-5450000D02*
G75*
G03*
X16706000Y-5450000I-15000J0D01*
G01*
X16707000Y-5826000D02*
G75*
G03*
X16707000Y-5826000I-15000J0D01*
G01*
X16713000Y-5542000D02*
G75*
G03*
X16713000Y-5542000I-15000J0D01*
G01*
X16713000Y-5640000D02*
G75*
G03*
X16713000Y-5640000I-15000J0D01*
G01*
X16716000Y-5737000D02*
G75*
G03*
X16716000Y-5737000I-15000J0D01*
G01*
X16765000Y-7500000D02*
G75*
G03*
X16765000Y-7500000I-15000J0D01*
G01*
X14140000Y-6492220D02*
X14140000Y-6527780D01*
X14122220Y-6510000D02*
X14157780Y-6510000D01*
X14140000Y-6642220D02*
X14140000Y-6677780D01*
X14122220Y-6660000D02*
X14157780Y-6660000D01*
X14140000Y-6792220D02*
X14140000Y-6827780D01*
X14122220Y-6810000D02*
X14157780Y-6810000D01*
X14290000Y-6492220D02*
X14290000Y-6527780D01*
X14272220Y-6510000D02*
X14307780Y-6510000D01*
X14290000Y-6642220D02*
X14290000Y-6677780D01*
X14272220Y-6660000D02*
X14307780Y-6660000D01*
X14290000Y-6792220D02*
X14290000Y-6827780D01*
X14272220Y-6810000D02*
X14307780Y-6810000D01*
X14440000Y-6492220D02*
X14440000Y-6527780D01*
X14422220Y-6510000D02*
X14457780Y-6510000D01*
X14440000Y-6642220D02*
X14440000Y-6677780D01*
X14422220Y-6660000D02*
X14457780Y-6660000D01*
X14440000Y-6792220D02*
X14440000Y-6827780D01*
X14422220Y-6810000D02*
X14457780Y-6810000D01*
X16822264Y-5840264D02*
X16822264Y-5807736D01*
X16789736Y-5807736D01*
X16789736Y-5840264D01*
X16822264Y-5840264D01*
X16822264Y-6716264D02*
X16822264Y-6683736D01*
X16789736Y-6683736D01*
X16789736Y-6716264D01*
X16822264Y-6716264D01*
X8896000Y-2396000D02*
X8946000Y-2346000D01*
X8896000Y-2296000D01*
X8846000Y-2346000D01*
X8896000Y-2396000D01*
X8896000Y-2650000D02*
X8946000Y-2600000D01*
X8896000Y-2550000D01*
X8846000Y-2600000D01*
X8896000Y-2650000D01*
X8896000Y-2904000D02*
X8946000Y-2854000D01*
X8896000Y-2804000D01*
X8846000Y-2854000D01*
X8896000Y-2904000D01*
X8896000Y-3158000D02*
X8946000Y-3108000D01*
X8896000Y-3058000D01*
X8846000Y-3108000D01*
X8896000Y-3158000D01*
X8896000Y-3412000D02*
X8946000Y-3362000D01*
X8896000Y-3312000D01*
X8846000Y-3362000D01*
X8896000Y-3412000D01*
X8896000Y-3666000D02*
X8946000Y-3616000D01*
X8896000Y-3566000D01*
X8846000Y-3616000D01*
X8896000Y-3666000D01*
X8896000Y-3920000D02*
X8946000Y-3870000D01*
X8896000Y-3820000D01*
X8846000Y-3870000D01*
X8896000Y-3920000D01*
X8896000Y-4174000D02*
X8946000Y-4124000D01*
X8896000Y-4074000D01*
X8846000Y-4124000D01*
X8896000Y-4174000D01*
X8896000Y-4428000D02*
X8946000Y-4378000D01*
X8896000Y-4328000D01*
X8846000Y-4378000D01*
X8896000Y-4428000D01*
X8896000Y-4682000D02*
X8946000Y-4632000D01*
X8896000Y-4582000D01*
X8846000Y-4632000D01*
X8896000Y-4682000D01*
X8896000Y-4936000D02*
X8946000Y-4886000D01*
X8896000Y-4836000D01*
X8846000Y-4886000D01*
X8896000Y-4936000D01*
X8896000Y-5190000D02*
X8946000Y-5140000D01*
X8896000Y-5090000D01*
X8846000Y-5140000D01*
X8896000Y-5190000D01*
X8896000Y-5444000D02*
X8946000Y-5394000D01*
X8896000Y-5344000D01*
X8846000Y-5394000D01*
X8896000Y-5444000D01*
X8896000Y-5698000D02*
X8946000Y-5648000D01*
X8896000Y-5598000D01*
X8846000Y-5648000D01*
X8896000Y-5698000D01*
X8896000Y-5952000D02*
X8946000Y-5902000D01*
X8896000Y-5852000D01*
X8846000Y-5902000D01*
X8896000Y-5952000D01*
X8896000Y-6206000D02*
X8946000Y-6156000D01*
X8896000Y-6106000D01*
X8846000Y-6156000D01*
X8896000Y-6206000D01*
X8896000Y-6460000D02*
X8946000Y-6410000D01*
X8896000Y-6360000D01*
X8846000Y-6410000D01*
X8896000Y-6460000D01*
X8896000Y-6714000D02*
X8946000Y-6664000D01*
X8896000Y-6614000D01*
X8846000Y-6664000D01*
X8896000Y-6714000D01*
X8896000Y-6968000D02*
X8946000Y-6918000D01*
X8896000Y-6868000D01*
X8846000Y-6918000D01*
X8896000Y-6968000D01*
X8896000Y-7222000D02*
X8946000Y-7172000D01*
X8896000Y-7122000D01*
X8846000Y-7172000D01*
X8896000Y-7222000D01*
X8896000Y-7476000D02*
X8946000Y-7426000D01*
X8896000Y-7376000D01*
X8846000Y-7426000D01*
X8896000Y-7476000D01*
X8896000Y-7730000D02*
X8946000Y-7680000D01*
X8896000Y-7630000D01*
X8846000Y-7680000D01*
X8896000Y-7730000D01*
X8896000Y-7984000D02*
X8946000Y-7934000D01*
X8896000Y-7884000D01*
X8846000Y-7934000D01*
X8896000Y-7984000D01*
X8896000Y-8238000D02*
X8946000Y-8188000D01*
X8896000Y-8138000D01*
X8846000Y-8188000D01*
X8896000Y-8238000D01*
X8896000Y-8492000D02*
X8946000Y-8442000D01*
X8896000Y-8392000D01*
X8846000Y-8442000D01*
X8896000Y-8492000D01*
X8896000Y-8746000D02*
X8946000Y-8696000D01*
X8896000Y-8646000D01*
X8846000Y-8696000D01*
X8896000Y-8746000D01*
X8896000Y-9000000D02*
X8946000Y-8950000D01*
X8896000Y-8900000D01*
X8846000Y-8950000D01*
X8896000Y-9000000D01*
X8896000Y-9254000D02*
X8946000Y-9204000D01*
X8896000Y-9154000D01*
X8846000Y-9204000D01*
X8896000Y-9254000D01*
X8896000Y-9508000D02*
X8946000Y-9458000D01*
X8896000Y-9408000D01*
X8846000Y-9458000D01*
X8896000Y-9508000D01*
X8896000Y-9762000D02*
X8946000Y-9712000D01*
X8896000Y-9662000D01*
X8846000Y-9712000D01*
X8896000Y-9762000D01*
X8896000Y-10016000D02*
X8946000Y-9966000D01*
X8896000Y-9916000D01*
X8846000Y-9966000D01*
X8896000Y-10016000D01*
X8896000Y-10270000D02*
X8946000Y-10220000D01*
X8896000Y-10170000D01*
X8846000Y-10220000D01*
X8896000Y-10270000D01*
X9150000Y-2396000D02*
X9200000Y-2346000D01*
X9150000Y-2296000D01*
X9100000Y-2346000D01*
X9150000Y-2396000D01*
X9150000Y-2650000D02*
X9200000Y-2600000D01*
X9150000Y-2550000D01*
X9100000Y-2600000D01*
X9150000Y-2650000D01*
X9150000Y-2904000D02*
X9200000Y-2854000D01*
X9150000Y-2804000D01*
X9100000Y-2854000D01*
X9150000Y-2904000D01*
X9150000Y-3158000D02*
X9200000Y-3108000D01*
X9150000Y-3058000D01*
X9100000Y-3108000D01*
X9150000Y-3158000D01*
X9150000Y-3412000D02*
X9200000Y-3362000D01*
X9150000Y-3312000D01*
X9100000Y-3362000D01*
X9150000Y-3412000D01*
X9150000Y-3666000D02*
X9200000Y-3616000D01*
X9150000Y-3566000D01*
X9100000Y-3616000D01*
X9150000Y-3666000D01*
X9150000Y-3920000D02*
X9200000Y-3870000D01*
X9150000Y-3820000D01*
X9100000Y-3870000D01*
X9150000Y-3920000D01*
X9150000Y-4174000D02*
X9200000Y-4124000D01*
X9150000Y-4074000D01*
X9100000Y-4124000D01*
X9150000Y-4174000D01*
X9150000Y-4428000D02*
X9200000Y-4378000D01*
X9150000Y-4328000D01*
X9100000Y-4378000D01*
X9150000Y-4428000D01*
X9150000Y-4682000D02*
X9200000Y-4632000D01*
X9150000Y-4582000D01*
X9100000Y-4632000D01*
X9150000Y-4682000D01*
X9150000Y-4936000D02*
X9200000Y-4886000D01*
X9150000Y-4836000D01*
X9100000Y-4886000D01*
X9150000Y-4936000D01*
X9150000Y-5190000D02*
X9200000Y-5140000D01*
X9150000Y-5090000D01*
X9100000Y-5140000D01*
X9150000Y-5190000D01*
X9150000Y-5444000D02*
X9200000Y-5394000D01*
X9150000Y-5344000D01*
X9100000Y-5394000D01*
X9150000Y-5444000D01*
X9150000Y-5698000D02*
X9200000Y-5648000D01*
X9150000Y-5598000D01*
X9100000Y-5648000D01*
X9150000Y-5698000D01*
X9150000Y-5952000D02*
X9200000Y-5902000D01*
X9150000Y-5852000D01*
X9100000Y-5902000D01*
X9150000Y-5952000D01*
X9150000Y-6206000D02*
X9200000Y-6156000D01*
X9150000Y-6106000D01*
X9100000Y-6156000D01*
X9150000Y-6206000D01*
X9150000Y-6460000D02*
X9200000Y-6410000D01*
X9150000Y-6360000D01*
X9100000Y-6410000D01*
X9150000Y-6460000D01*
X9150000Y-6714000D02*
X9200000Y-6664000D01*
X9150000Y-6614000D01*
X9100000Y-6664000D01*
X9150000Y-6714000D01*
X9150000Y-6968000D02*
X9200000Y-6918000D01*
X9150000Y-6868000D01*
X9100000Y-6918000D01*
X9150000Y-6968000D01*
X9150000Y-7222000D02*
X9200000Y-7172000D01*
X9150000Y-7122000D01*
X9100000Y-7172000D01*
X9150000Y-7222000D01*
X9150000Y-7476000D02*
X9200000Y-7426000D01*
X9150000Y-7376000D01*
X9100000Y-7426000D01*
X9150000Y-7476000D01*
X9150000Y-7730000D02*
X9200000Y-7680000D01*
X9150000Y-7630000D01*
X9100000Y-7680000D01*
X9150000Y-7730000D01*
X9150000Y-7984000D02*
X9200000Y-7934000D01*
X9150000Y-7884000D01*
X9100000Y-7934000D01*
X9150000Y-7984000D01*
X9150000Y-8238000D02*
X9200000Y-8188000D01*
X9150000Y-8138000D01*
X9100000Y-8188000D01*
X9150000Y-8238000D01*
X9150000Y-8492000D02*
X9200000Y-8442000D01*
X9150000Y-8392000D01*
X9100000Y-8442000D01*
X9150000Y-8492000D01*
X9150000Y-8746000D02*
X9200000Y-8696000D01*
X9150000Y-8646000D01*
X9100000Y-8696000D01*
X9150000Y-8746000D01*
X9150000Y-9000000D02*
X9200000Y-8950000D01*
X9150000Y-8900000D01*
X9100000Y-8950000D01*
X9150000Y-9000000D01*
X9150000Y-9254000D02*
X9200000Y-9204000D01*
X9150000Y-9154000D01*
X9100000Y-9204000D01*
X9150000Y-9254000D01*
X9150000Y-9508000D02*
X9200000Y-9458000D01*
X9150000Y-9408000D01*
X9100000Y-9458000D01*
X9150000Y-9508000D01*
X9150000Y-9762000D02*
X9200000Y-9712000D01*
X9150000Y-9662000D01*
X9100000Y-9712000D01*
X9150000Y-9762000D01*
X9150000Y-10016000D02*
X9200000Y-9966000D01*
X9150000Y-9916000D01*
X9100000Y-9966000D01*
X9150000Y-10016000D01*
X9150000Y-10270000D02*
X9200000Y-10220000D01*
X9150000Y-10170000D01*
X9100000Y-10220000D01*
X9150000Y-10270000D01*
X12247500Y-10300000D02*
X12297500Y-10250000D01*
X12247500Y-10200000D01*
X12197500Y-10250000D01*
X12247500Y-10300000D01*
X12501500Y-10300000D02*
X12551500Y-10250000D01*
X12501500Y-10200000D01*
X12451500Y-10250000D01*
X12501500Y-10300000D01*
X12755500Y-10300000D02*
X12805500Y-10250000D01*
X12755500Y-10200000D01*
X12705500Y-10250000D01*
X12755500Y-10300000D01*
X13545000Y-10340000D02*
X13595000Y-10290000D01*
X13545000Y-10240000D01*
X13495000Y-10290000D01*
X13545000Y-10340000D01*
X13799000Y-10340000D02*
X13849000Y-10290000D01*
X13799000Y-10240000D01*
X13749000Y-10290000D01*
X13799000Y-10340000D01*
X14053000Y-10340000D02*
X14103000Y-10290000D01*
X14053000Y-10240000D01*
X14003000Y-10290000D01*
X14053000Y-10340000D01*
X14307000Y-10340000D02*
X14357000Y-10290000D01*
X14307000Y-10240000D01*
X14257000Y-10290000D01*
X14307000Y-10340000D01*
X14561000Y-10340000D02*
X14611000Y-10290000D01*
X14561000Y-10240000D01*
X14511000Y-10290000D01*
X14561000Y-10340000D01*
X14815000Y-10340000D02*
X14865000Y-10290000D01*
X14815000Y-10240000D01*
X14765000Y-10290000D01*
X14815000Y-10340000D01*
D12*
X8228000Y-2059000D02*
X8548000Y-2379000D01*
X8548000Y-2059000D02*
X8228000Y-2379000D01*
X8548000Y-2219000D02*
G75*
G03*
X8548000Y-2219000I-160000J0D01*
G01*
X8228000Y-10060000D02*
X8548000Y-10380000D01*
X8548000Y-10060000D02*
X8228000Y-10380000D01*
X8548000Y-10220000D02*
G75*
G03*
X8548000Y-10220000I-160000J0D01*
G01*
X16800500Y-2440000D02*
X17120500Y-2760000D01*
X17120500Y-2440000D02*
X16800500Y-2760000D01*
X17120500Y-2600000D02*
G75*
G03*
X17120500Y-2600000I-160000J0D01*
G01*
X16800500Y-9806000D02*
X17120500Y-10126000D01*
X17120500Y-9806000D02*
X16800500Y-10126000D01*
X17120500Y-9966000D02*
G75*
G03*
X17120500Y-9966000I-160000J0D01*
G01*
D10*
X8138277Y-11041984D02*
X8138277Y-10841984D01*
X8138277Y-10841984D02*
X8185896Y-10841984D01*
X8185896Y-10841984D02*
X8214467Y-10851508D01*
X8214467Y-10851508D02*
X8233515Y-10870555D01*
X8233515Y-10870555D02*
X8243039Y-10889603D01*
X8243039Y-10889603D02*
X8252562Y-10927698D01*
X8252562Y-10927698D02*
X8252562Y-10956270D01*
X8252562Y-10956270D02*
X8243039Y-10994365D01*
X8243039Y-10994365D02*
X8233515Y-11013412D01*
X8233515Y-11013412D02*
X8214467Y-11032460D01*
X8214467Y-11032460D02*
X8185896Y-11041984D01*
X8185896Y-11041984D02*
X8138277Y-11041984D01*
X8338277Y-11041984D02*
X8338277Y-10908650D01*
X8338277Y-10946746D02*
X8347801Y-10927698D01*
X8347801Y-10927698D02*
X8357324Y-10918174D01*
X8357324Y-10918174D02*
X8376372Y-10908650D01*
X8376372Y-10908650D02*
X8395420Y-10908650D01*
X8462086Y-11041984D02*
X8462086Y-10908650D01*
X8462086Y-10841984D02*
X8452563Y-10851508D01*
X8452563Y-10851508D02*
X8462086Y-10861031D01*
X8462086Y-10861031D02*
X8471610Y-10851508D01*
X8471610Y-10851508D02*
X8462086Y-10841984D01*
X8462086Y-10841984D02*
X8462086Y-10861031D01*
X8585896Y-11041984D02*
X8566848Y-11032460D01*
X8566848Y-11032460D02*
X8557324Y-11013412D01*
X8557324Y-11013412D02*
X8557324Y-10841984D01*
X8690658Y-11041984D02*
X8671610Y-11032460D01*
X8671610Y-11032460D02*
X8662086Y-11013412D01*
X8662086Y-11013412D02*
X8662086Y-10841984D01*
X8919229Y-11041984D02*
X8919229Y-10841984D01*
X8919229Y-10841984D02*
X8985896Y-10984841D01*
X8985896Y-10984841D02*
X9052563Y-10841984D01*
X9052563Y-10841984D02*
X9052563Y-11041984D01*
X9233515Y-11041984D02*
X9233515Y-10937222D01*
X9233515Y-10937222D02*
X9223991Y-10918174D01*
X9223991Y-10918174D02*
X9204944Y-10908650D01*
X9204944Y-10908650D02*
X9166848Y-10908650D01*
X9166848Y-10908650D02*
X9147801Y-10918174D01*
X9233515Y-11032460D02*
X9214467Y-11041984D01*
X9214467Y-11041984D02*
X9166848Y-11041984D01*
X9166848Y-11041984D02*
X9147801Y-11032460D01*
X9147801Y-11032460D02*
X9138277Y-11013412D01*
X9138277Y-11013412D02*
X9138277Y-10994365D01*
X9138277Y-10994365D02*
X9147801Y-10975317D01*
X9147801Y-10975317D02*
X9166848Y-10965793D01*
X9166848Y-10965793D02*
X9214467Y-10965793D01*
X9214467Y-10965793D02*
X9233515Y-10956270D01*
X9328753Y-10908650D02*
X9328753Y-11108650D01*
X9328753Y-10918174D02*
X9347801Y-10908650D01*
X9347801Y-10908650D02*
X9385896Y-10908650D01*
X9385896Y-10908650D02*
X9404944Y-10918174D01*
X9404944Y-10918174D02*
X9414467Y-10927698D01*
X9414467Y-10927698D02*
X9423991Y-10946746D01*
X9423991Y-10946746D02*
X9423991Y-11003889D01*
X9423991Y-11003889D02*
X9414467Y-11022936D01*
X9414467Y-11022936D02*
X9404944Y-11032460D01*
X9404944Y-11032460D02*
X9385896Y-11041984D01*
X9385896Y-11041984D02*
X9347801Y-11041984D01*
X9347801Y-11041984D02*
X9328753Y-11032460D01*
X9509705Y-11022936D02*
X9519229Y-11032460D01*
X9519229Y-11032460D02*
X9509705Y-11041984D01*
X9509705Y-11041984D02*
X9500182Y-11032460D01*
X9500182Y-11032460D02*
X9509705Y-11022936D01*
X9509705Y-11022936D02*
X9509705Y-11041984D01*
X9509705Y-10918174D02*
X9519229Y-10927698D01*
X9519229Y-10927698D02*
X9509705Y-10937222D01*
X9509705Y-10937222D02*
X9500182Y-10927698D01*
X9500182Y-10927698D02*
X9509705Y-10918174D01*
X9509705Y-10918174D02*
X9509705Y-10937222D01*
D11*
X7852500Y-11358000D02*
X7877500Y-11383000D01*
X7877500Y-11358000D02*
X7852500Y-11383000D01*
D10*
X8176372Y-11261984D02*
X8195420Y-11261984D01*
X8195420Y-11261984D02*
X8214467Y-11271508D01*
X8214467Y-11271508D02*
X8223991Y-11281031D01*
X8223991Y-11281031D02*
X8233515Y-11300079D01*
X8233515Y-11300079D02*
X8243039Y-11338174D01*
X8243039Y-11338174D02*
X8243039Y-11385793D01*
X8243039Y-11385793D02*
X8233515Y-11423888D01*
X8233515Y-11423888D02*
X8223991Y-11442936D01*
X8223991Y-11442936D02*
X8214467Y-11452460D01*
X8214467Y-11452460D02*
X8195420Y-11461984D01*
X8195420Y-11461984D02*
X8176372Y-11461984D01*
X8176372Y-11461984D02*
X8157324Y-11452460D01*
X8157324Y-11452460D02*
X8147801Y-11442936D01*
X8147801Y-11442936D02*
X8138277Y-11423888D01*
X8138277Y-11423888D02*
X8128753Y-11385793D01*
X8128753Y-11385793D02*
X8128753Y-11338174D01*
X8128753Y-11338174D02*
X8138277Y-11300079D01*
X8138277Y-11300079D02*
X8147801Y-11281031D01*
X8147801Y-11281031D02*
X8157324Y-11271508D01*
X8157324Y-11271508D02*
X8176372Y-11261984D01*
X8328753Y-11442936D02*
X8338277Y-11452460D01*
X8338277Y-11452460D02*
X8328753Y-11461984D01*
X8328753Y-11461984D02*
X8319229Y-11452460D01*
X8319229Y-11452460D02*
X8328753Y-11442936D01*
X8328753Y-11442936D02*
X8328753Y-11461984D01*
X8414467Y-11281031D02*
X8423991Y-11271508D01*
X8423991Y-11271508D02*
X8443039Y-11261984D01*
X8443039Y-11261984D02*
X8490658Y-11261984D01*
X8490658Y-11261984D02*
X8509705Y-11271508D01*
X8509705Y-11271508D02*
X8519229Y-11281031D01*
X8519229Y-11281031D02*
X8528753Y-11300079D01*
X8528753Y-11300079D02*
X8528753Y-11319127D01*
X8528753Y-11319127D02*
X8519229Y-11347698D01*
X8519229Y-11347698D02*
X8404944Y-11461984D01*
X8404944Y-11461984D02*
X8528753Y-11461984D01*
X8709705Y-11261984D02*
X8614467Y-11261984D01*
X8614467Y-11261984D02*
X8604944Y-11357222D01*
X8604944Y-11357222D02*
X8614467Y-11347698D01*
X8614467Y-11347698D02*
X8633515Y-11338174D01*
X8633515Y-11338174D02*
X8681134Y-11338174D01*
X8681134Y-11338174D02*
X8700182Y-11347698D01*
X8700182Y-11347698D02*
X8709705Y-11357222D01*
X8709705Y-11357222D02*
X8719229Y-11376269D01*
X8719229Y-11376269D02*
X8719229Y-11423888D01*
X8719229Y-11423888D02*
X8709705Y-11442936D01*
X8709705Y-11442936D02*
X8700182Y-11452460D01*
X8700182Y-11452460D02*
X8681134Y-11461984D01*
X8681134Y-11461984D02*
X8633515Y-11461984D01*
X8633515Y-11461984D02*
X8614467Y-11452460D01*
X8614467Y-11452460D02*
X8604944Y-11442936D01*
X8843039Y-11261984D02*
X8862086Y-11261984D01*
X8862086Y-11261984D02*
X8881134Y-11271508D01*
X8881134Y-11271508D02*
X8890658Y-11281031D01*
X8890658Y-11281031D02*
X8900182Y-11300079D01*
X8900182Y-11300079D02*
X8909705Y-11338174D01*
X8909705Y-11338174D02*
X8909705Y-11385793D01*
X8909705Y-11385793D02*
X8900182Y-11423888D01*
X8900182Y-11423888D02*
X8890658Y-11442936D01*
X8890658Y-11442936D02*
X8881134Y-11452460D01*
X8881134Y-11452460D02*
X8862086Y-11461984D01*
X8862086Y-11461984D02*
X8843039Y-11461984D01*
X8843039Y-11461984D02*
X8823991Y-11452460D01*
X8823991Y-11452460D02*
X8814467Y-11442936D01*
X8814467Y-11442936D02*
X8804944Y-11423888D01*
X8804944Y-11423888D02*
X8795420Y-11385793D01*
X8795420Y-11385793D02*
X8795420Y-11338174D01*
X8795420Y-11338174D02*
X8804944Y-11300079D01*
X8804944Y-11300079D02*
X8814467Y-11281031D01*
X8814467Y-11281031D02*
X8823991Y-11271508D01*
X8823991Y-11271508D02*
X8843039Y-11261984D01*
X8995420Y-11461984D02*
X8995420Y-11328650D01*
X8995420Y-11347698D02*
X9004944Y-11338174D01*
X9004944Y-11338174D02*
X9023991Y-11328650D01*
X9023991Y-11328650D02*
X9052563Y-11328650D01*
X9052563Y-11328650D02*
X9071610Y-11338174D01*
X9071610Y-11338174D02*
X9081134Y-11357222D01*
X9081134Y-11357222D02*
X9081134Y-11461984D01*
X9081134Y-11357222D02*
X9090658Y-11338174D01*
X9090658Y-11338174D02*
X9109705Y-11328650D01*
X9109705Y-11328650D02*
X9138277Y-11328650D01*
X9138277Y-11328650D02*
X9157325Y-11338174D01*
X9157325Y-11338174D02*
X9166848Y-11357222D01*
X9166848Y-11357222D02*
X9166848Y-11461984D01*
X9262086Y-11461984D02*
X9262086Y-11328650D01*
X9262086Y-11347698D02*
X9271610Y-11338174D01*
X9271610Y-11338174D02*
X9290658Y-11328650D01*
X9290658Y-11328650D02*
X9319229Y-11328650D01*
X9319229Y-11328650D02*
X9338277Y-11338174D01*
X9338277Y-11338174D02*
X9347801Y-11357222D01*
X9347801Y-11357222D02*
X9347801Y-11461984D01*
X9347801Y-11357222D02*
X9357325Y-11338174D01*
X9357325Y-11338174D02*
X9376372Y-11328650D01*
X9376372Y-11328650D02*
X9404944Y-11328650D01*
X9404944Y-11328650D02*
X9423991Y-11338174D01*
X9423991Y-11338174D02*
X9433515Y-11357222D01*
X9433515Y-11357222D02*
X9433515Y-11461984D01*
X9823991Y-11252460D02*
X9652563Y-11509603D01*
X10081134Y-11261984D02*
X10100182Y-11261984D01*
X10100182Y-11261984D02*
X10119229Y-11271508D01*
X10119229Y-11271508D02*
X10128753Y-11281031D01*
X10128753Y-11281031D02*
X10138277Y-11300079D01*
X10138277Y-11300079D02*
X10147801Y-11338174D01*
X10147801Y-11338174D02*
X10147801Y-11385793D01*
X10147801Y-11385793D02*
X10138277Y-11423888D01*
X10138277Y-11423888D02*
X10128753Y-11442936D01*
X10128753Y-11442936D02*
X10119229Y-11452460D01*
X10119229Y-11452460D02*
X10100182Y-11461984D01*
X10100182Y-11461984D02*
X10081134Y-11461984D01*
X10081134Y-11461984D02*
X10062087Y-11452460D01*
X10062087Y-11452460D02*
X10052563Y-11442936D01*
X10052563Y-11442936D02*
X10043039Y-11423888D01*
X10043039Y-11423888D02*
X10033515Y-11385793D01*
X10033515Y-11385793D02*
X10033515Y-11338174D01*
X10033515Y-11338174D02*
X10043039Y-11300079D01*
X10043039Y-11300079D02*
X10052563Y-11281031D01*
X10052563Y-11281031D02*
X10062087Y-11271508D01*
X10062087Y-11271508D02*
X10081134Y-11261984D01*
X10233515Y-11442936D02*
X10243039Y-11452460D01*
X10243039Y-11452460D02*
X10233515Y-11461984D01*
X10233515Y-11461984D02*
X10223991Y-11452460D01*
X10223991Y-11452460D02*
X10233515Y-11442936D01*
X10233515Y-11442936D02*
X10233515Y-11461984D01*
X10366848Y-11261984D02*
X10385896Y-11261984D01*
X10385896Y-11261984D02*
X10404944Y-11271508D01*
X10404944Y-11271508D02*
X10414468Y-11281031D01*
X10414468Y-11281031D02*
X10423991Y-11300079D01*
X10423991Y-11300079D02*
X10433515Y-11338174D01*
X10433515Y-11338174D02*
X10433515Y-11385793D01*
X10433515Y-11385793D02*
X10423991Y-11423888D01*
X10423991Y-11423888D02*
X10414468Y-11442936D01*
X10414468Y-11442936D02*
X10404944Y-11452460D01*
X10404944Y-11452460D02*
X10385896Y-11461984D01*
X10385896Y-11461984D02*
X10366848Y-11461984D01*
X10366848Y-11461984D02*
X10347801Y-11452460D01*
X10347801Y-11452460D02*
X10338277Y-11442936D01*
X10338277Y-11442936D02*
X10328753Y-11423888D01*
X10328753Y-11423888D02*
X10319229Y-11385793D01*
X10319229Y-11385793D02*
X10319229Y-11338174D01*
X10319229Y-11338174D02*
X10328753Y-11300079D01*
X10328753Y-11300079D02*
X10338277Y-11281031D01*
X10338277Y-11281031D02*
X10347801Y-11271508D01*
X10347801Y-11271508D02*
X10366848Y-11261984D01*
X10557325Y-11261984D02*
X10576372Y-11261984D01*
X10576372Y-11261984D02*
X10595420Y-11271508D01*
X10595420Y-11271508D02*
X10604944Y-11281031D01*
X10604944Y-11281031D02*
X10614468Y-11300079D01*
X10614468Y-11300079D02*
X10623991Y-11338174D01*
X10623991Y-11338174D02*
X10623991Y-11385793D01*
X10623991Y-11385793D02*
X10614468Y-11423888D01*
X10614468Y-11423888D02*
X10604944Y-11442936D01*
X10604944Y-11442936D02*
X10595420Y-11452460D01*
X10595420Y-11452460D02*
X10576372Y-11461984D01*
X10576372Y-11461984D02*
X10557325Y-11461984D01*
X10557325Y-11461984D02*
X10538277Y-11452460D01*
X10538277Y-11452460D02*
X10528753Y-11442936D01*
X10528753Y-11442936D02*
X10519229Y-11423888D01*
X10519229Y-11423888D02*
X10509706Y-11385793D01*
X10509706Y-11385793D02*
X10509706Y-11338174D01*
X10509706Y-11338174D02*
X10519229Y-11300079D01*
X10519229Y-11300079D02*
X10528753Y-11281031D01*
X10528753Y-11281031D02*
X10538277Y-11271508D01*
X10538277Y-11271508D02*
X10557325Y-11261984D01*
X10719229Y-11461984D02*
X10757325Y-11461984D01*
X10757325Y-11461984D02*
X10776372Y-11452460D01*
X10776372Y-11452460D02*
X10785896Y-11442936D01*
X10785896Y-11442936D02*
X10804944Y-11414365D01*
X10804944Y-11414365D02*
X10814468Y-11376269D01*
X10814468Y-11376269D02*
X10814468Y-11300079D01*
X10814468Y-11300079D02*
X10804944Y-11281031D01*
X10804944Y-11281031D02*
X10795420Y-11271508D01*
X10795420Y-11271508D02*
X10776372Y-11261984D01*
X10776372Y-11261984D02*
X10738277Y-11261984D01*
X10738277Y-11261984D02*
X10719229Y-11271508D01*
X10719229Y-11271508D02*
X10709706Y-11281031D01*
X10709706Y-11281031D02*
X10700182Y-11300079D01*
X10700182Y-11300079D02*
X10700182Y-11347698D01*
X10700182Y-11347698D02*
X10709706Y-11366746D01*
X10709706Y-11366746D02*
X10719229Y-11376269D01*
X10719229Y-11376269D02*
X10738277Y-11385793D01*
X10738277Y-11385793D02*
X10776372Y-11385793D01*
X10776372Y-11385793D02*
X10795420Y-11376269D01*
X10795420Y-11376269D02*
X10804944Y-11366746D01*
X10804944Y-11366746D02*
X10814468Y-11347698D01*
X10928753Y-11347698D02*
X10909706Y-11338174D01*
X10909706Y-11338174D02*
X10900182Y-11328650D01*
X10900182Y-11328650D02*
X10890658Y-11309603D01*
X10890658Y-11309603D02*
X10890658Y-11300079D01*
X10890658Y-11300079D02*
X10900182Y-11281031D01*
X10900182Y-11281031D02*
X10909706Y-11271508D01*
X10909706Y-11271508D02*
X10928753Y-11261984D01*
X10928753Y-11261984D02*
X10966849Y-11261984D01*
X10966849Y-11261984D02*
X10985896Y-11271508D01*
X10985896Y-11271508D02*
X10995420Y-11281031D01*
X10995420Y-11281031D02*
X11004944Y-11300079D01*
X11004944Y-11300079D02*
X11004944Y-11309603D01*
X11004944Y-11309603D02*
X10995420Y-11328650D01*
X10995420Y-11328650D02*
X10985896Y-11338174D01*
X10985896Y-11338174D02*
X10966849Y-11347698D01*
X10966849Y-11347698D02*
X10928753Y-11347698D01*
X10928753Y-11347698D02*
X10909706Y-11357222D01*
X10909706Y-11357222D02*
X10900182Y-11366746D01*
X10900182Y-11366746D02*
X10890658Y-11385793D01*
X10890658Y-11385793D02*
X10890658Y-11423888D01*
X10890658Y-11423888D02*
X10900182Y-11442936D01*
X10900182Y-11442936D02*
X10909706Y-11452460D01*
X10909706Y-11452460D02*
X10928753Y-11461984D01*
X10928753Y-11461984D02*
X10966849Y-11461984D01*
X10966849Y-11461984D02*
X10985896Y-11452460D01*
X10985896Y-11452460D02*
X10995420Y-11442936D01*
X10995420Y-11442936D02*
X11004944Y-11423888D01*
X11004944Y-11423888D02*
X11004944Y-11385793D01*
X11004944Y-11385793D02*
X10995420Y-11366746D01*
X10995420Y-11366746D02*
X10985896Y-11357222D01*
X10985896Y-11357222D02*
X10966849Y-11347698D01*
X11081134Y-11261984D02*
X11081134Y-11300079D01*
X11157325Y-11261984D02*
X11157325Y-11300079D01*
X11452563Y-11538174D02*
X11443039Y-11528650D01*
X11443039Y-11528650D02*
X11423991Y-11500079D01*
X11423991Y-11500079D02*
X11414468Y-11481031D01*
X11414468Y-11481031D02*
X11404944Y-11452460D01*
X11404944Y-11452460D02*
X11395420Y-11404841D01*
X11395420Y-11404841D02*
X11395420Y-11366746D01*
X11395420Y-11366746D02*
X11404944Y-11319127D01*
X11404944Y-11319127D02*
X11414468Y-11290555D01*
X11414468Y-11290555D02*
X11423991Y-11271508D01*
X11423991Y-11271508D02*
X11443039Y-11242936D01*
X11443039Y-11242936D02*
X11452563Y-11233412D01*
X11614468Y-11328650D02*
X11614468Y-11461984D01*
X11566848Y-11252460D02*
X11519229Y-11395317D01*
X11519229Y-11395317D02*
X11643039Y-11395317D01*
X11804944Y-11261984D02*
X11766848Y-11261984D01*
X11766848Y-11261984D02*
X11747801Y-11271508D01*
X11747801Y-11271508D02*
X11738277Y-11281031D01*
X11738277Y-11281031D02*
X11719229Y-11309603D01*
X11719229Y-11309603D02*
X11709706Y-11347698D01*
X11709706Y-11347698D02*
X11709706Y-11423888D01*
X11709706Y-11423888D02*
X11719229Y-11442936D01*
X11719229Y-11442936D02*
X11728753Y-11452460D01*
X11728753Y-11452460D02*
X11747801Y-11461984D01*
X11747801Y-11461984D02*
X11785896Y-11461984D01*
X11785896Y-11461984D02*
X11804944Y-11452460D01*
X11804944Y-11452460D02*
X11814468Y-11442936D01*
X11814468Y-11442936D02*
X11823991Y-11423888D01*
X11823991Y-11423888D02*
X11823991Y-11376269D01*
X11823991Y-11376269D02*
X11814468Y-11357222D01*
X11814468Y-11357222D02*
X11804944Y-11347698D01*
X11804944Y-11347698D02*
X11785896Y-11338174D01*
X11785896Y-11338174D02*
X11747801Y-11338174D01*
X11747801Y-11338174D02*
X11728753Y-11347698D01*
X11728753Y-11347698D02*
X11719229Y-11357222D01*
X11719229Y-11357222D02*
X11709706Y-11376269D01*
X12062087Y-11461984D02*
X12062087Y-11261984D01*
X12147801Y-11461984D02*
X12147801Y-11357222D01*
X12147801Y-11357222D02*
X12138277Y-11338174D01*
X12138277Y-11338174D02*
X12119230Y-11328650D01*
X12119230Y-11328650D02*
X12090658Y-11328650D01*
X12090658Y-11328650D02*
X12071610Y-11338174D01*
X12071610Y-11338174D02*
X12062087Y-11347698D01*
X12271610Y-11461984D02*
X12252563Y-11452460D01*
X12252563Y-11452460D02*
X12243039Y-11442936D01*
X12243039Y-11442936D02*
X12233515Y-11423888D01*
X12233515Y-11423888D02*
X12233515Y-11366746D01*
X12233515Y-11366746D02*
X12243039Y-11347698D01*
X12243039Y-11347698D02*
X12252563Y-11338174D01*
X12252563Y-11338174D02*
X12271610Y-11328650D01*
X12271610Y-11328650D02*
X12300182Y-11328650D01*
X12300182Y-11328650D02*
X12319230Y-11338174D01*
X12319230Y-11338174D02*
X12328753Y-11347698D01*
X12328753Y-11347698D02*
X12338277Y-11366746D01*
X12338277Y-11366746D02*
X12338277Y-11423888D01*
X12338277Y-11423888D02*
X12328753Y-11442936D01*
X12328753Y-11442936D02*
X12319230Y-11452460D01*
X12319230Y-11452460D02*
X12300182Y-11461984D01*
X12300182Y-11461984D02*
X12271610Y-11461984D01*
X12452563Y-11461984D02*
X12433515Y-11452460D01*
X12433515Y-11452460D02*
X12423991Y-11433412D01*
X12423991Y-11433412D02*
X12423991Y-11261984D01*
X12604944Y-11452460D02*
X12585896Y-11461984D01*
X12585896Y-11461984D02*
X12547801Y-11461984D01*
X12547801Y-11461984D02*
X12528753Y-11452460D01*
X12528753Y-11452460D02*
X12519230Y-11433412D01*
X12519230Y-11433412D02*
X12519230Y-11357222D01*
X12519230Y-11357222D02*
X12528753Y-11338174D01*
X12528753Y-11338174D02*
X12547801Y-11328650D01*
X12547801Y-11328650D02*
X12585896Y-11328650D01*
X12585896Y-11328650D02*
X12604944Y-11338174D01*
X12604944Y-11338174D02*
X12614468Y-11357222D01*
X12614468Y-11357222D02*
X12614468Y-11376269D01*
X12614468Y-11376269D02*
X12519230Y-11395317D01*
X12690658Y-11452460D02*
X12709706Y-11461984D01*
X12709706Y-11461984D02*
X12747801Y-11461984D01*
X12747801Y-11461984D02*
X12766849Y-11452460D01*
X12766849Y-11452460D02*
X12776372Y-11433412D01*
X12776372Y-11433412D02*
X12776372Y-11423888D01*
X12776372Y-11423888D02*
X12766849Y-11404841D01*
X12766849Y-11404841D02*
X12747801Y-11395317D01*
X12747801Y-11395317D02*
X12719230Y-11395317D01*
X12719230Y-11395317D02*
X12700182Y-11385793D01*
X12700182Y-11385793D02*
X12690658Y-11366746D01*
X12690658Y-11366746D02*
X12690658Y-11357222D01*
X12690658Y-11357222D02*
X12700182Y-11338174D01*
X12700182Y-11338174D02*
X12719230Y-11328650D01*
X12719230Y-11328650D02*
X12747801Y-11328650D01*
X12747801Y-11328650D02*
X12766849Y-11338174D01*
X12843039Y-11538174D02*
X12852563Y-11528650D01*
X12852563Y-11528650D02*
X12871611Y-11500079D01*
X12871611Y-11500079D02*
X12881134Y-11481031D01*
X12881134Y-11481031D02*
X12890658Y-11452460D01*
X12890658Y-11452460D02*
X12900182Y-11404841D01*
X12900182Y-11404841D02*
X12900182Y-11366746D01*
X12900182Y-11366746D02*
X12890658Y-11319127D01*
X12890658Y-11319127D02*
X12881134Y-11290555D01*
X12881134Y-11290555D02*
X12871611Y-11271508D01*
X12871611Y-11271508D02*
X12852563Y-11242936D01*
X12852563Y-11242936D02*
X12843039Y-11233412D01*
D11*
X7877500Y-11634500D02*
G75*
G03*
X7877500Y-11634500I-15000J0D01*
G01*
D10*
X8176372Y-11525984D02*
X8195420Y-11525984D01*
X8195420Y-11525984D02*
X8214467Y-11535508D01*
X8214467Y-11535508D02*
X8223991Y-11545031D01*
X8223991Y-11545031D02*
X8233515Y-11564079D01*
X8233515Y-11564079D02*
X8243039Y-11602174D01*
X8243039Y-11602174D02*
X8243039Y-11649793D01*
X8243039Y-11649793D02*
X8233515Y-11687888D01*
X8233515Y-11687888D02*
X8223991Y-11706936D01*
X8223991Y-11706936D02*
X8214467Y-11716460D01*
X8214467Y-11716460D02*
X8195420Y-11725984D01*
X8195420Y-11725984D02*
X8176372Y-11725984D01*
X8176372Y-11725984D02*
X8157324Y-11716460D01*
X8157324Y-11716460D02*
X8147801Y-11706936D01*
X8147801Y-11706936D02*
X8138277Y-11687888D01*
X8138277Y-11687888D02*
X8128753Y-11649793D01*
X8128753Y-11649793D02*
X8128753Y-11602174D01*
X8128753Y-11602174D02*
X8138277Y-11564079D01*
X8138277Y-11564079D02*
X8147801Y-11545031D01*
X8147801Y-11545031D02*
X8157324Y-11535508D01*
X8157324Y-11535508D02*
X8176372Y-11525984D01*
X8328753Y-11706936D02*
X8338277Y-11716460D01*
X8338277Y-11716460D02*
X8328753Y-11725984D01*
X8328753Y-11725984D02*
X8319229Y-11716460D01*
X8319229Y-11716460D02*
X8328753Y-11706936D01*
X8328753Y-11706936D02*
X8328753Y-11725984D01*
X8404944Y-11525984D02*
X8528753Y-11525984D01*
X8528753Y-11525984D02*
X8462086Y-11602174D01*
X8462086Y-11602174D02*
X8490658Y-11602174D01*
X8490658Y-11602174D02*
X8509705Y-11611698D01*
X8509705Y-11611698D02*
X8519229Y-11621222D01*
X8519229Y-11621222D02*
X8528753Y-11640269D01*
X8528753Y-11640269D02*
X8528753Y-11687888D01*
X8528753Y-11687888D02*
X8519229Y-11706936D01*
X8519229Y-11706936D02*
X8509705Y-11716460D01*
X8509705Y-11716460D02*
X8490658Y-11725984D01*
X8490658Y-11725984D02*
X8433515Y-11725984D01*
X8433515Y-11725984D02*
X8414467Y-11716460D01*
X8414467Y-11716460D02*
X8404944Y-11706936D01*
X8652563Y-11525984D02*
X8671610Y-11525984D01*
X8671610Y-11525984D02*
X8690658Y-11535508D01*
X8690658Y-11535508D02*
X8700182Y-11545031D01*
X8700182Y-11545031D02*
X8709705Y-11564079D01*
X8709705Y-11564079D02*
X8719229Y-11602174D01*
X8719229Y-11602174D02*
X8719229Y-11649793D01*
X8719229Y-11649793D02*
X8709705Y-11687888D01*
X8709705Y-11687888D02*
X8700182Y-11706936D01*
X8700182Y-11706936D02*
X8690658Y-11716460D01*
X8690658Y-11716460D02*
X8671610Y-11725984D01*
X8671610Y-11725984D02*
X8652563Y-11725984D01*
X8652563Y-11725984D02*
X8633515Y-11716460D01*
X8633515Y-11716460D02*
X8623991Y-11706936D01*
X8623991Y-11706936D02*
X8614467Y-11687888D01*
X8614467Y-11687888D02*
X8604944Y-11649793D01*
X8604944Y-11649793D02*
X8604944Y-11602174D01*
X8604944Y-11602174D02*
X8614467Y-11564079D01*
X8614467Y-11564079D02*
X8623991Y-11545031D01*
X8623991Y-11545031D02*
X8633515Y-11535508D01*
X8633515Y-11535508D02*
X8652563Y-11525984D01*
X8843039Y-11525984D02*
X8862086Y-11525984D01*
X8862086Y-11525984D02*
X8881134Y-11535508D01*
X8881134Y-11535508D02*
X8890658Y-11545031D01*
X8890658Y-11545031D02*
X8900182Y-11564079D01*
X8900182Y-11564079D02*
X8909705Y-11602174D01*
X8909705Y-11602174D02*
X8909705Y-11649793D01*
X8909705Y-11649793D02*
X8900182Y-11687888D01*
X8900182Y-11687888D02*
X8890658Y-11706936D01*
X8890658Y-11706936D02*
X8881134Y-11716460D01*
X8881134Y-11716460D02*
X8862086Y-11725984D01*
X8862086Y-11725984D02*
X8843039Y-11725984D01*
X8843039Y-11725984D02*
X8823991Y-11716460D01*
X8823991Y-11716460D02*
X8814467Y-11706936D01*
X8814467Y-11706936D02*
X8804944Y-11687888D01*
X8804944Y-11687888D02*
X8795420Y-11649793D01*
X8795420Y-11649793D02*
X8795420Y-11602174D01*
X8795420Y-11602174D02*
X8804944Y-11564079D01*
X8804944Y-11564079D02*
X8814467Y-11545031D01*
X8814467Y-11545031D02*
X8823991Y-11535508D01*
X8823991Y-11535508D02*
X8843039Y-11525984D01*
X8995420Y-11725984D02*
X8995420Y-11592650D01*
X8995420Y-11611698D02*
X9004944Y-11602174D01*
X9004944Y-11602174D02*
X9023991Y-11592650D01*
X9023991Y-11592650D02*
X9052563Y-11592650D01*
X9052563Y-11592650D02*
X9071610Y-11602174D01*
X9071610Y-11602174D02*
X9081134Y-11621222D01*
X9081134Y-11621222D02*
X9081134Y-11725984D01*
X9081134Y-11621222D02*
X9090658Y-11602174D01*
X9090658Y-11602174D02*
X9109705Y-11592650D01*
X9109705Y-11592650D02*
X9138277Y-11592650D01*
X9138277Y-11592650D02*
X9157325Y-11602174D01*
X9157325Y-11602174D02*
X9166848Y-11621222D01*
X9166848Y-11621222D02*
X9166848Y-11725984D01*
X9262086Y-11725984D02*
X9262086Y-11592650D01*
X9262086Y-11611698D02*
X9271610Y-11602174D01*
X9271610Y-11602174D02*
X9290658Y-11592650D01*
X9290658Y-11592650D02*
X9319229Y-11592650D01*
X9319229Y-11592650D02*
X9338277Y-11602174D01*
X9338277Y-11602174D02*
X9347801Y-11621222D01*
X9347801Y-11621222D02*
X9347801Y-11725984D01*
X9347801Y-11621222D02*
X9357325Y-11602174D01*
X9357325Y-11602174D02*
X9376372Y-11592650D01*
X9376372Y-11592650D02*
X9404944Y-11592650D01*
X9404944Y-11592650D02*
X9423991Y-11602174D01*
X9423991Y-11602174D02*
X9433515Y-11621222D01*
X9433515Y-11621222D02*
X9433515Y-11725984D01*
X9823991Y-11516460D02*
X9652563Y-11773603D01*
X10081134Y-11525984D02*
X10100182Y-11525984D01*
X10100182Y-11525984D02*
X10119229Y-11535508D01*
X10119229Y-11535508D02*
X10128753Y-11545031D01*
X10128753Y-11545031D02*
X10138277Y-11564079D01*
X10138277Y-11564079D02*
X10147801Y-11602174D01*
X10147801Y-11602174D02*
X10147801Y-11649793D01*
X10147801Y-11649793D02*
X10138277Y-11687888D01*
X10138277Y-11687888D02*
X10128753Y-11706936D01*
X10128753Y-11706936D02*
X10119229Y-11716460D01*
X10119229Y-11716460D02*
X10100182Y-11725984D01*
X10100182Y-11725984D02*
X10081134Y-11725984D01*
X10081134Y-11725984D02*
X10062087Y-11716460D01*
X10062087Y-11716460D02*
X10052563Y-11706936D01*
X10052563Y-11706936D02*
X10043039Y-11687888D01*
X10043039Y-11687888D02*
X10033515Y-11649793D01*
X10033515Y-11649793D02*
X10033515Y-11602174D01*
X10033515Y-11602174D02*
X10043039Y-11564079D01*
X10043039Y-11564079D02*
X10052563Y-11545031D01*
X10052563Y-11545031D02*
X10062087Y-11535508D01*
X10062087Y-11535508D02*
X10081134Y-11525984D01*
X10233515Y-11706936D02*
X10243039Y-11716460D01*
X10243039Y-11716460D02*
X10233515Y-11725984D01*
X10233515Y-11725984D02*
X10223991Y-11716460D01*
X10223991Y-11716460D02*
X10233515Y-11706936D01*
X10233515Y-11706936D02*
X10233515Y-11725984D01*
X10366848Y-11525984D02*
X10385896Y-11525984D01*
X10385896Y-11525984D02*
X10404944Y-11535508D01*
X10404944Y-11535508D02*
X10414468Y-11545031D01*
X10414468Y-11545031D02*
X10423991Y-11564079D01*
X10423991Y-11564079D02*
X10433515Y-11602174D01*
X10433515Y-11602174D02*
X10433515Y-11649793D01*
X10433515Y-11649793D02*
X10423991Y-11687888D01*
X10423991Y-11687888D02*
X10414468Y-11706936D01*
X10414468Y-11706936D02*
X10404944Y-11716460D01*
X10404944Y-11716460D02*
X10385896Y-11725984D01*
X10385896Y-11725984D02*
X10366848Y-11725984D01*
X10366848Y-11725984D02*
X10347801Y-11716460D01*
X10347801Y-11716460D02*
X10338277Y-11706936D01*
X10338277Y-11706936D02*
X10328753Y-11687888D01*
X10328753Y-11687888D02*
X10319229Y-11649793D01*
X10319229Y-11649793D02*
X10319229Y-11602174D01*
X10319229Y-11602174D02*
X10328753Y-11564079D01*
X10328753Y-11564079D02*
X10338277Y-11545031D01*
X10338277Y-11545031D02*
X10347801Y-11535508D01*
X10347801Y-11535508D02*
X10366848Y-11525984D01*
X10623991Y-11725984D02*
X10509706Y-11725984D01*
X10566848Y-11725984D02*
X10566848Y-11525984D01*
X10566848Y-11525984D02*
X10547801Y-11554555D01*
X10547801Y-11554555D02*
X10528753Y-11573603D01*
X10528753Y-11573603D02*
X10509706Y-11583127D01*
X10814468Y-11725984D02*
X10700182Y-11725984D01*
X10757325Y-11725984D02*
X10757325Y-11525984D01*
X10757325Y-11525984D02*
X10738277Y-11554555D01*
X10738277Y-11554555D02*
X10719229Y-11573603D01*
X10719229Y-11573603D02*
X10700182Y-11583127D01*
X10928753Y-11611698D02*
X10909706Y-11602174D01*
X10909706Y-11602174D02*
X10900182Y-11592650D01*
X10900182Y-11592650D02*
X10890658Y-11573603D01*
X10890658Y-11573603D02*
X10890658Y-11564079D01*
X10890658Y-11564079D02*
X10900182Y-11545031D01*
X10900182Y-11545031D02*
X10909706Y-11535508D01*
X10909706Y-11535508D02*
X10928753Y-11525984D01*
X10928753Y-11525984D02*
X10966849Y-11525984D01*
X10966849Y-11525984D02*
X10985896Y-11535508D01*
X10985896Y-11535508D02*
X10995420Y-11545031D01*
X10995420Y-11545031D02*
X11004944Y-11564079D01*
X11004944Y-11564079D02*
X11004944Y-11573603D01*
X11004944Y-11573603D02*
X10995420Y-11592650D01*
X10995420Y-11592650D02*
X10985896Y-11602174D01*
X10985896Y-11602174D02*
X10966849Y-11611698D01*
X10966849Y-11611698D02*
X10928753Y-11611698D01*
X10928753Y-11611698D02*
X10909706Y-11621222D01*
X10909706Y-11621222D02*
X10900182Y-11630746D01*
X10900182Y-11630746D02*
X10890658Y-11649793D01*
X10890658Y-11649793D02*
X10890658Y-11687888D01*
X10890658Y-11687888D02*
X10900182Y-11706936D01*
X10900182Y-11706936D02*
X10909706Y-11716460D01*
X10909706Y-11716460D02*
X10928753Y-11725984D01*
X10928753Y-11725984D02*
X10966849Y-11725984D01*
X10966849Y-11725984D02*
X10985896Y-11716460D01*
X10985896Y-11716460D02*
X10995420Y-11706936D01*
X10995420Y-11706936D02*
X11004944Y-11687888D01*
X11004944Y-11687888D02*
X11004944Y-11649793D01*
X11004944Y-11649793D02*
X10995420Y-11630746D01*
X10995420Y-11630746D02*
X10985896Y-11621222D01*
X10985896Y-11621222D02*
X10966849Y-11611698D01*
X11081134Y-11525984D02*
X11081134Y-11564079D01*
X11157325Y-11525984D02*
X11157325Y-11564079D01*
X11452563Y-11802174D02*
X11443039Y-11792650D01*
X11443039Y-11792650D02*
X11423991Y-11764079D01*
X11423991Y-11764079D02*
X11414468Y-11745031D01*
X11414468Y-11745031D02*
X11404944Y-11716460D01*
X11404944Y-11716460D02*
X11395420Y-11668841D01*
X11395420Y-11668841D02*
X11395420Y-11630746D01*
X11395420Y-11630746D02*
X11404944Y-11583127D01*
X11404944Y-11583127D02*
X11414468Y-11554555D01*
X11414468Y-11554555D02*
X11423991Y-11535508D01*
X11423991Y-11535508D02*
X11443039Y-11506936D01*
X11443039Y-11506936D02*
X11452563Y-11497412D01*
X11538277Y-11725984D02*
X11576372Y-11725984D01*
X11576372Y-11725984D02*
X11595420Y-11716460D01*
X11595420Y-11716460D02*
X11604944Y-11706936D01*
X11604944Y-11706936D02*
X11623991Y-11678365D01*
X11623991Y-11678365D02*
X11633515Y-11640269D01*
X11633515Y-11640269D02*
X11633515Y-11564079D01*
X11633515Y-11564079D02*
X11623991Y-11545031D01*
X11623991Y-11545031D02*
X11614468Y-11535508D01*
X11614468Y-11535508D02*
X11595420Y-11525984D01*
X11595420Y-11525984D02*
X11557325Y-11525984D01*
X11557325Y-11525984D02*
X11538277Y-11535508D01*
X11538277Y-11535508D02*
X11528753Y-11545031D01*
X11528753Y-11545031D02*
X11519229Y-11564079D01*
X11519229Y-11564079D02*
X11519229Y-11611698D01*
X11519229Y-11611698D02*
X11528753Y-11630746D01*
X11528753Y-11630746D02*
X11538277Y-11640269D01*
X11538277Y-11640269D02*
X11557325Y-11649793D01*
X11557325Y-11649793D02*
X11595420Y-11649793D01*
X11595420Y-11649793D02*
X11614468Y-11640269D01*
X11614468Y-11640269D02*
X11623991Y-11630746D01*
X11623991Y-11630746D02*
X11633515Y-11611698D01*
X11709706Y-11545031D02*
X11719229Y-11535508D01*
X11719229Y-11535508D02*
X11738277Y-11525984D01*
X11738277Y-11525984D02*
X11785896Y-11525984D01*
X11785896Y-11525984D02*
X11804944Y-11535508D01*
X11804944Y-11535508D02*
X11814468Y-11545031D01*
X11814468Y-11545031D02*
X11823991Y-11564079D01*
X11823991Y-11564079D02*
X11823991Y-11583127D01*
X11823991Y-11583127D02*
X11814468Y-11611698D01*
X11814468Y-11611698D02*
X11700182Y-11725984D01*
X11700182Y-11725984D02*
X11823991Y-11725984D01*
X12062087Y-11725984D02*
X12062087Y-11525984D01*
X12147801Y-11725984D02*
X12147801Y-11621222D01*
X12147801Y-11621222D02*
X12138277Y-11602174D01*
X12138277Y-11602174D02*
X12119230Y-11592650D01*
X12119230Y-11592650D02*
X12090658Y-11592650D01*
X12090658Y-11592650D02*
X12071610Y-11602174D01*
X12071610Y-11602174D02*
X12062087Y-11611698D01*
X12271610Y-11725984D02*
X12252563Y-11716460D01*
X12252563Y-11716460D02*
X12243039Y-11706936D01*
X12243039Y-11706936D02*
X12233515Y-11687888D01*
X12233515Y-11687888D02*
X12233515Y-11630746D01*
X12233515Y-11630746D02*
X12243039Y-11611698D01*
X12243039Y-11611698D02*
X12252563Y-11602174D01*
X12252563Y-11602174D02*
X12271610Y-11592650D01*
X12271610Y-11592650D02*
X12300182Y-11592650D01*
X12300182Y-11592650D02*
X12319230Y-11602174D01*
X12319230Y-11602174D02*
X12328753Y-11611698D01*
X12328753Y-11611698D02*
X12338277Y-11630746D01*
X12338277Y-11630746D02*
X12338277Y-11687888D01*
X12338277Y-11687888D02*
X12328753Y-11706936D01*
X12328753Y-11706936D02*
X12319230Y-11716460D01*
X12319230Y-11716460D02*
X12300182Y-11725984D01*
X12300182Y-11725984D02*
X12271610Y-11725984D01*
X12452563Y-11725984D02*
X12433515Y-11716460D01*
X12433515Y-11716460D02*
X12423991Y-11697412D01*
X12423991Y-11697412D02*
X12423991Y-11525984D01*
X12604944Y-11716460D02*
X12585896Y-11725984D01*
X12585896Y-11725984D02*
X12547801Y-11725984D01*
X12547801Y-11725984D02*
X12528753Y-11716460D01*
X12528753Y-11716460D02*
X12519230Y-11697412D01*
X12519230Y-11697412D02*
X12519230Y-11621222D01*
X12519230Y-11621222D02*
X12528753Y-11602174D01*
X12528753Y-11602174D02*
X12547801Y-11592650D01*
X12547801Y-11592650D02*
X12585896Y-11592650D01*
X12585896Y-11592650D02*
X12604944Y-11602174D01*
X12604944Y-11602174D02*
X12614468Y-11621222D01*
X12614468Y-11621222D02*
X12614468Y-11640269D01*
X12614468Y-11640269D02*
X12519230Y-11659317D01*
X12690658Y-11716460D02*
X12709706Y-11725984D01*
X12709706Y-11725984D02*
X12747801Y-11725984D01*
X12747801Y-11725984D02*
X12766849Y-11716460D01*
X12766849Y-11716460D02*
X12776372Y-11697412D01*
X12776372Y-11697412D02*
X12776372Y-11687888D01*
X12776372Y-11687888D02*
X12766849Y-11668841D01*
X12766849Y-11668841D02*
X12747801Y-11659317D01*
X12747801Y-11659317D02*
X12719230Y-11659317D01*
X12719230Y-11659317D02*
X12700182Y-11649793D01*
X12700182Y-11649793D02*
X12690658Y-11630746D01*
X12690658Y-11630746D02*
X12690658Y-11621222D01*
X12690658Y-11621222D02*
X12700182Y-11602174D01*
X12700182Y-11602174D02*
X12719230Y-11592650D01*
X12719230Y-11592650D02*
X12747801Y-11592650D01*
X12747801Y-11592650D02*
X12766849Y-11602174D01*
X12843039Y-11802174D02*
X12852563Y-11792650D01*
X12852563Y-11792650D02*
X12871611Y-11764079D01*
X12871611Y-11764079D02*
X12881134Y-11745031D01*
X12881134Y-11745031D02*
X12890658Y-11716460D01*
X12890658Y-11716460D02*
X12900182Y-11668841D01*
X12900182Y-11668841D02*
X12900182Y-11630746D01*
X12900182Y-11630746D02*
X12890658Y-11583127D01*
X12890658Y-11583127D02*
X12881134Y-11554555D01*
X12881134Y-11554555D02*
X12871611Y-11535508D01*
X12871611Y-11535508D02*
X12852563Y-11506936D01*
X12852563Y-11506936D02*
X12843039Y-11497412D01*
D11*
X7859720Y-11880720D02*
X7859720Y-11916280D01*
X7841940Y-11898500D02*
X7877500Y-11898500D01*
D10*
X8176372Y-11789984D02*
X8195420Y-11789984D01*
X8195420Y-11789984D02*
X8214467Y-11799508D01*
X8214467Y-11799508D02*
X8223991Y-11809031D01*
X8223991Y-11809031D02*
X8233515Y-11828079D01*
X8233515Y-11828079D02*
X8243039Y-11866174D01*
X8243039Y-11866174D02*
X8243039Y-11913793D01*
X8243039Y-11913793D02*
X8233515Y-11951888D01*
X8233515Y-11951888D02*
X8223991Y-11970936D01*
X8223991Y-11970936D02*
X8214467Y-11980460D01*
X8214467Y-11980460D02*
X8195420Y-11989984D01*
X8195420Y-11989984D02*
X8176372Y-11989984D01*
X8176372Y-11989984D02*
X8157324Y-11980460D01*
X8157324Y-11980460D02*
X8147801Y-11970936D01*
X8147801Y-11970936D02*
X8138277Y-11951888D01*
X8138277Y-11951888D02*
X8128753Y-11913793D01*
X8128753Y-11913793D02*
X8128753Y-11866174D01*
X8128753Y-11866174D02*
X8138277Y-11828079D01*
X8138277Y-11828079D02*
X8147801Y-11809031D01*
X8147801Y-11809031D02*
X8157324Y-11799508D01*
X8157324Y-11799508D02*
X8176372Y-11789984D01*
X8328753Y-11970936D02*
X8338277Y-11980460D01*
X8338277Y-11980460D02*
X8328753Y-11989984D01*
X8328753Y-11989984D02*
X8319229Y-11980460D01*
X8319229Y-11980460D02*
X8328753Y-11970936D01*
X8328753Y-11970936D02*
X8328753Y-11989984D01*
X8404944Y-11789984D02*
X8528753Y-11789984D01*
X8528753Y-11789984D02*
X8462086Y-11866174D01*
X8462086Y-11866174D02*
X8490658Y-11866174D01*
X8490658Y-11866174D02*
X8509705Y-11875698D01*
X8509705Y-11875698D02*
X8519229Y-11885222D01*
X8519229Y-11885222D02*
X8528753Y-11904269D01*
X8528753Y-11904269D02*
X8528753Y-11951888D01*
X8528753Y-11951888D02*
X8519229Y-11970936D01*
X8519229Y-11970936D02*
X8509705Y-11980460D01*
X8509705Y-11980460D02*
X8490658Y-11989984D01*
X8490658Y-11989984D02*
X8433515Y-11989984D01*
X8433515Y-11989984D02*
X8414467Y-11980460D01*
X8414467Y-11980460D02*
X8404944Y-11970936D01*
X8709705Y-11789984D02*
X8614467Y-11789984D01*
X8614467Y-11789984D02*
X8604944Y-11885222D01*
X8604944Y-11885222D02*
X8614467Y-11875698D01*
X8614467Y-11875698D02*
X8633515Y-11866174D01*
X8633515Y-11866174D02*
X8681134Y-11866174D01*
X8681134Y-11866174D02*
X8700182Y-11875698D01*
X8700182Y-11875698D02*
X8709705Y-11885222D01*
X8709705Y-11885222D02*
X8719229Y-11904269D01*
X8719229Y-11904269D02*
X8719229Y-11951888D01*
X8719229Y-11951888D02*
X8709705Y-11970936D01*
X8709705Y-11970936D02*
X8700182Y-11980460D01*
X8700182Y-11980460D02*
X8681134Y-11989984D01*
X8681134Y-11989984D02*
X8633515Y-11989984D01*
X8633515Y-11989984D02*
X8614467Y-11980460D01*
X8614467Y-11980460D02*
X8604944Y-11970936D01*
X8890658Y-11789984D02*
X8852563Y-11789984D01*
X8852563Y-11789984D02*
X8833515Y-11799508D01*
X8833515Y-11799508D02*
X8823991Y-11809031D01*
X8823991Y-11809031D02*
X8804944Y-11837603D01*
X8804944Y-11837603D02*
X8795420Y-11875698D01*
X8795420Y-11875698D02*
X8795420Y-11951888D01*
X8795420Y-11951888D02*
X8804944Y-11970936D01*
X8804944Y-11970936D02*
X8814467Y-11980460D01*
X8814467Y-11980460D02*
X8833515Y-11989984D01*
X8833515Y-11989984D02*
X8871610Y-11989984D01*
X8871610Y-11989984D02*
X8890658Y-11980460D01*
X8890658Y-11980460D02*
X8900182Y-11970936D01*
X8900182Y-11970936D02*
X8909705Y-11951888D01*
X8909705Y-11951888D02*
X8909705Y-11904269D01*
X8909705Y-11904269D02*
X8900182Y-11885222D01*
X8900182Y-11885222D02*
X8890658Y-11875698D01*
X8890658Y-11875698D02*
X8871610Y-11866174D01*
X8871610Y-11866174D02*
X8833515Y-11866174D01*
X8833515Y-11866174D02*
X8814467Y-11875698D01*
X8814467Y-11875698D02*
X8804944Y-11885222D01*
X8804944Y-11885222D02*
X8795420Y-11904269D01*
X8995420Y-11989984D02*
X8995420Y-11856650D01*
X8995420Y-11875698D02*
X9004944Y-11866174D01*
X9004944Y-11866174D02*
X9023991Y-11856650D01*
X9023991Y-11856650D02*
X9052563Y-11856650D01*
X9052563Y-11856650D02*
X9071610Y-11866174D01*
X9071610Y-11866174D02*
X9081134Y-11885222D01*
X9081134Y-11885222D02*
X9081134Y-11989984D01*
X9081134Y-11885222D02*
X9090658Y-11866174D01*
X9090658Y-11866174D02*
X9109705Y-11856650D01*
X9109705Y-11856650D02*
X9138277Y-11856650D01*
X9138277Y-11856650D02*
X9157325Y-11866174D01*
X9157325Y-11866174D02*
X9166848Y-11885222D01*
X9166848Y-11885222D02*
X9166848Y-11989984D01*
X9262086Y-11989984D02*
X9262086Y-11856650D01*
X9262086Y-11875698D02*
X9271610Y-11866174D01*
X9271610Y-11866174D02*
X9290658Y-11856650D01*
X9290658Y-11856650D02*
X9319229Y-11856650D01*
X9319229Y-11856650D02*
X9338277Y-11866174D01*
X9338277Y-11866174D02*
X9347801Y-11885222D01*
X9347801Y-11885222D02*
X9347801Y-11989984D01*
X9347801Y-11885222D02*
X9357325Y-11866174D01*
X9357325Y-11866174D02*
X9376372Y-11856650D01*
X9376372Y-11856650D02*
X9404944Y-11856650D01*
X9404944Y-11856650D02*
X9423991Y-11866174D01*
X9423991Y-11866174D02*
X9433515Y-11885222D01*
X9433515Y-11885222D02*
X9433515Y-11989984D01*
X9823991Y-11780460D02*
X9652563Y-12037603D01*
X10081134Y-11789984D02*
X10100182Y-11789984D01*
X10100182Y-11789984D02*
X10119229Y-11799508D01*
X10119229Y-11799508D02*
X10128753Y-11809031D01*
X10128753Y-11809031D02*
X10138277Y-11828079D01*
X10138277Y-11828079D02*
X10147801Y-11866174D01*
X10147801Y-11866174D02*
X10147801Y-11913793D01*
X10147801Y-11913793D02*
X10138277Y-11951888D01*
X10138277Y-11951888D02*
X10128753Y-11970936D01*
X10128753Y-11970936D02*
X10119229Y-11980460D01*
X10119229Y-11980460D02*
X10100182Y-11989984D01*
X10100182Y-11989984D02*
X10081134Y-11989984D01*
X10081134Y-11989984D02*
X10062087Y-11980460D01*
X10062087Y-11980460D02*
X10052563Y-11970936D01*
X10052563Y-11970936D02*
X10043039Y-11951888D01*
X10043039Y-11951888D02*
X10033515Y-11913793D01*
X10033515Y-11913793D02*
X10033515Y-11866174D01*
X10033515Y-11866174D02*
X10043039Y-11828079D01*
X10043039Y-11828079D02*
X10052563Y-11809031D01*
X10052563Y-11809031D02*
X10062087Y-11799508D01*
X10062087Y-11799508D02*
X10081134Y-11789984D01*
X10233515Y-11970936D02*
X10243039Y-11980460D01*
X10243039Y-11980460D02*
X10233515Y-11989984D01*
X10233515Y-11989984D02*
X10223991Y-11980460D01*
X10223991Y-11980460D02*
X10233515Y-11970936D01*
X10233515Y-11970936D02*
X10233515Y-11989984D01*
X10366848Y-11789984D02*
X10385896Y-11789984D01*
X10385896Y-11789984D02*
X10404944Y-11799508D01*
X10404944Y-11799508D02*
X10414468Y-11809031D01*
X10414468Y-11809031D02*
X10423991Y-11828079D01*
X10423991Y-11828079D02*
X10433515Y-11866174D01*
X10433515Y-11866174D02*
X10433515Y-11913793D01*
X10433515Y-11913793D02*
X10423991Y-11951888D01*
X10423991Y-11951888D02*
X10414468Y-11970936D01*
X10414468Y-11970936D02*
X10404944Y-11980460D01*
X10404944Y-11980460D02*
X10385896Y-11989984D01*
X10385896Y-11989984D02*
X10366848Y-11989984D01*
X10366848Y-11989984D02*
X10347801Y-11980460D01*
X10347801Y-11980460D02*
X10338277Y-11970936D01*
X10338277Y-11970936D02*
X10328753Y-11951888D01*
X10328753Y-11951888D02*
X10319229Y-11913793D01*
X10319229Y-11913793D02*
X10319229Y-11866174D01*
X10319229Y-11866174D02*
X10328753Y-11828079D01*
X10328753Y-11828079D02*
X10338277Y-11809031D01*
X10338277Y-11809031D02*
X10347801Y-11799508D01*
X10347801Y-11799508D02*
X10366848Y-11789984D01*
X10623991Y-11989984D02*
X10509706Y-11989984D01*
X10566848Y-11989984D02*
X10566848Y-11789984D01*
X10566848Y-11789984D02*
X10547801Y-11818555D01*
X10547801Y-11818555D02*
X10528753Y-11837603D01*
X10528753Y-11837603D02*
X10509706Y-11847127D01*
X10795420Y-11856650D02*
X10795420Y-11989984D01*
X10747801Y-11780460D02*
X10700182Y-11923317D01*
X10700182Y-11923317D02*
X10823991Y-11923317D01*
X10938277Y-11789984D02*
X10957325Y-11789984D01*
X10957325Y-11789984D02*
X10976372Y-11799508D01*
X10976372Y-11799508D02*
X10985896Y-11809031D01*
X10985896Y-11809031D02*
X10995420Y-11828079D01*
X10995420Y-11828079D02*
X11004944Y-11866174D01*
X11004944Y-11866174D02*
X11004944Y-11913793D01*
X11004944Y-11913793D02*
X10995420Y-11951888D01*
X10995420Y-11951888D02*
X10985896Y-11970936D01*
X10985896Y-11970936D02*
X10976372Y-11980460D01*
X10976372Y-11980460D02*
X10957325Y-11989984D01*
X10957325Y-11989984D02*
X10938277Y-11989984D01*
X10938277Y-11989984D02*
X10919229Y-11980460D01*
X10919229Y-11980460D02*
X10909706Y-11970936D01*
X10909706Y-11970936D02*
X10900182Y-11951888D01*
X10900182Y-11951888D02*
X10890658Y-11913793D01*
X10890658Y-11913793D02*
X10890658Y-11866174D01*
X10890658Y-11866174D02*
X10900182Y-11828079D01*
X10900182Y-11828079D02*
X10909706Y-11809031D01*
X10909706Y-11809031D02*
X10919229Y-11799508D01*
X10919229Y-11799508D02*
X10938277Y-11789984D01*
X11081134Y-11789984D02*
X11081134Y-11828079D01*
X11157325Y-11789984D02*
X11157325Y-11828079D01*
X11452563Y-12066174D02*
X11443039Y-12056650D01*
X11443039Y-12056650D02*
X11423991Y-12028079D01*
X11423991Y-12028079D02*
X11414468Y-12009031D01*
X11414468Y-12009031D02*
X11404944Y-11980460D01*
X11404944Y-11980460D02*
X11395420Y-11932841D01*
X11395420Y-11932841D02*
X11395420Y-11894746D01*
X11395420Y-11894746D02*
X11404944Y-11847127D01*
X11404944Y-11847127D02*
X11414468Y-11818555D01*
X11414468Y-11818555D02*
X11423991Y-11799508D01*
X11423991Y-11799508D02*
X11443039Y-11770936D01*
X11443039Y-11770936D02*
X11452563Y-11761412D01*
X11538277Y-11989984D02*
X11576372Y-11989984D01*
X11576372Y-11989984D02*
X11595420Y-11980460D01*
X11595420Y-11980460D02*
X11604944Y-11970936D01*
X11604944Y-11970936D02*
X11623991Y-11942365D01*
X11623991Y-11942365D02*
X11633515Y-11904269D01*
X11633515Y-11904269D02*
X11633515Y-11828079D01*
X11633515Y-11828079D02*
X11623991Y-11809031D01*
X11623991Y-11809031D02*
X11614468Y-11799508D01*
X11614468Y-11799508D02*
X11595420Y-11789984D01*
X11595420Y-11789984D02*
X11557325Y-11789984D01*
X11557325Y-11789984D02*
X11538277Y-11799508D01*
X11538277Y-11799508D02*
X11528753Y-11809031D01*
X11528753Y-11809031D02*
X11519229Y-11828079D01*
X11519229Y-11828079D02*
X11519229Y-11875698D01*
X11519229Y-11875698D02*
X11528753Y-11894746D01*
X11528753Y-11894746D02*
X11538277Y-11904269D01*
X11538277Y-11904269D02*
X11557325Y-11913793D01*
X11557325Y-11913793D02*
X11595420Y-11913793D01*
X11595420Y-11913793D02*
X11614468Y-11904269D01*
X11614468Y-11904269D02*
X11623991Y-11894746D01*
X11623991Y-11894746D02*
X11633515Y-11875698D01*
X11871610Y-11989984D02*
X11871610Y-11789984D01*
X11957325Y-11989984D02*
X11957325Y-11885222D01*
X11957325Y-11885222D02*
X11947801Y-11866174D01*
X11947801Y-11866174D02*
X11928753Y-11856650D01*
X11928753Y-11856650D02*
X11900182Y-11856650D01*
X11900182Y-11856650D02*
X11881134Y-11866174D01*
X11881134Y-11866174D02*
X11871610Y-11875698D01*
X12081134Y-11989984D02*
X12062087Y-11980460D01*
X12062087Y-11980460D02*
X12052563Y-11970936D01*
X12052563Y-11970936D02*
X12043039Y-11951888D01*
X12043039Y-11951888D02*
X12043039Y-11894746D01*
X12043039Y-11894746D02*
X12052563Y-11875698D01*
X12052563Y-11875698D02*
X12062087Y-11866174D01*
X12062087Y-11866174D02*
X12081134Y-11856650D01*
X12081134Y-11856650D02*
X12109706Y-11856650D01*
X12109706Y-11856650D02*
X12128753Y-11866174D01*
X12128753Y-11866174D02*
X12138277Y-11875698D01*
X12138277Y-11875698D02*
X12147801Y-11894746D01*
X12147801Y-11894746D02*
X12147801Y-11951888D01*
X12147801Y-11951888D02*
X12138277Y-11970936D01*
X12138277Y-11970936D02*
X12128753Y-11980460D01*
X12128753Y-11980460D02*
X12109706Y-11989984D01*
X12109706Y-11989984D02*
X12081134Y-11989984D01*
X12262087Y-11989984D02*
X12243039Y-11980460D01*
X12243039Y-11980460D02*
X12233515Y-11961412D01*
X12233515Y-11961412D02*
X12233515Y-11789984D01*
X12414468Y-11980460D02*
X12395420Y-11989984D01*
X12395420Y-11989984D02*
X12357325Y-11989984D01*
X12357325Y-11989984D02*
X12338277Y-11980460D01*
X12338277Y-11980460D02*
X12328753Y-11961412D01*
X12328753Y-11961412D02*
X12328753Y-11885222D01*
X12328753Y-11885222D02*
X12338277Y-11866174D01*
X12338277Y-11866174D02*
X12357325Y-11856650D01*
X12357325Y-11856650D02*
X12395420Y-11856650D01*
X12395420Y-11856650D02*
X12414468Y-11866174D01*
X12414468Y-11866174D02*
X12423991Y-11885222D01*
X12423991Y-11885222D02*
X12423991Y-11904269D01*
X12423991Y-11904269D02*
X12328753Y-11923317D01*
X12500182Y-11980460D02*
X12519230Y-11989984D01*
X12519230Y-11989984D02*
X12557325Y-11989984D01*
X12557325Y-11989984D02*
X12576372Y-11980460D01*
X12576372Y-11980460D02*
X12585896Y-11961412D01*
X12585896Y-11961412D02*
X12585896Y-11951888D01*
X12585896Y-11951888D02*
X12576372Y-11932841D01*
X12576372Y-11932841D02*
X12557325Y-11923317D01*
X12557325Y-11923317D02*
X12528753Y-11923317D01*
X12528753Y-11923317D02*
X12509706Y-11913793D01*
X12509706Y-11913793D02*
X12500182Y-11894746D01*
X12500182Y-11894746D02*
X12500182Y-11885222D01*
X12500182Y-11885222D02*
X12509706Y-11866174D01*
X12509706Y-11866174D02*
X12528753Y-11856650D01*
X12528753Y-11856650D02*
X12557325Y-11856650D01*
X12557325Y-11856650D02*
X12576372Y-11866174D01*
X12652563Y-12066174D02*
X12662087Y-12056650D01*
X12662087Y-12056650D02*
X12681134Y-12028079D01*
X12681134Y-12028079D02*
X12690658Y-12009031D01*
X12690658Y-12009031D02*
X12700182Y-11980460D01*
X12700182Y-11980460D02*
X12709706Y-11932841D01*
X12709706Y-11932841D02*
X12709706Y-11894746D01*
X12709706Y-11894746D02*
X12700182Y-11847127D01*
X12700182Y-11847127D02*
X12690658Y-11818555D01*
X12690658Y-11818555D02*
X12681134Y-11799508D01*
X12681134Y-11799508D02*
X12662087Y-11770936D01*
X12662087Y-11770936D02*
X12652563Y-11761412D01*
D11*
X7870764Y-12178764D02*
X7870764Y-12146236D01*
X7838236Y-12146236D01*
X7838236Y-12178764D01*
X7870764Y-12178764D01*
D10*
X8176372Y-12053984D02*
X8195420Y-12053984D01*
X8195420Y-12053984D02*
X8214467Y-12063508D01*
X8214467Y-12063508D02*
X8223991Y-12073031D01*
X8223991Y-12073031D02*
X8233515Y-12092079D01*
X8233515Y-12092079D02*
X8243039Y-12130174D01*
X8243039Y-12130174D02*
X8243039Y-12177793D01*
X8243039Y-12177793D02*
X8233515Y-12215888D01*
X8233515Y-12215888D02*
X8223991Y-12234936D01*
X8223991Y-12234936D02*
X8214467Y-12244460D01*
X8214467Y-12244460D02*
X8195420Y-12253984D01*
X8195420Y-12253984D02*
X8176372Y-12253984D01*
X8176372Y-12253984D02*
X8157324Y-12244460D01*
X8157324Y-12244460D02*
X8147801Y-12234936D01*
X8147801Y-12234936D02*
X8138277Y-12215888D01*
X8138277Y-12215888D02*
X8128753Y-12177793D01*
X8128753Y-12177793D02*
X8128753Y-12130174D01*
X8128753Y-12130174D02*
X8138277Y-12092079D01*
X8138277Y-12092079D02*
X8147801Y-12073031D01*
X8147801Y-12073031D02*
X8157324Y-12063508D01*
X8157324Y-12063508D02*
X8176372Y-12053984D01*
X8328753Y-12234936D02*
X8338277Y-12244460D01*
X8338277Y-12244460D02*
X8328753Y-12253984D01*
X8328753Y-12253984D02*
X8319229Y-12244460D01*
X8319229Y-12244460D02*
X8328753Y-12234936D01*
X8328753Y-12234936D02*
X8328753Y-12253984D01*
X8509705Y-12120650D02*
X8509705Y-12253984D01*
X8462086Y-12044460D02*
X8414467Y-12187317D01*
X8414467Y-12187317D02*
X8538277Y-12187317D01*
X8700182Y-12053984D02*
X8662086Y-12053984D01*
X8662086Y-12053984D02*
X8643039Y-12063508D01*
X8643039Y-12063508D02*
X8633515Y-12073031D01*
X8633515Y-12073031D02*
X8614467Y-12101603D01*
X8614467Y-12101603D02*
X8604944Y-12139698D01*
X8604944Y-12139698D02*
X8604944Y-12215888D01*
X8604944Y-12215888D02*
X8614467Y-12234936D01*
X8614467Y-12234936D02*
X8623991Y-12244460D01*
X8623991Y-12244460D02*
X8643039Y-12253984D01*
X8643039Y-12253984D02*
X8681134Y-12253984D01*
X8681134Y-12253984D02*
X8700182Y-12244460D01*
X8700182Y-12244460D02*
X8709705Y-12234936D01*
X8709705Y-12234936D02*
X8719229Y-12215888D01*
X8719229Y-12215888D02*
X8719229Y-12168269D01*
X8719229Y-12168269D02*
X8709705Y-12149222D01*
X8709705Y-12149222D02*
X8700182Y-12139698D01*
X8700182Y-12139698D02*
X8681134Y-12130174D01*
X8681134Y-12130174D02*
X8643039Y-12130174D01*
X8643039Y-12130174D02*
X8623991Y-12139698D01*
X8623991Y-12139698D02*
X8614467Y-12149222D01*
X8614467Y-12149222D02*
X8604944Y-12168269D01*
X8843039Y-12053984D02*
X8862086Y-12053984D01*
X8862086Y-12053984D02*
X8881134Y-12063508D01*
X8881134Y-12063508D02*
X8890658Y-12073031D01*
X8890658Y-12073031D02*
X8900182Y-12092079D01*
X8900182Y-12092079D02*
X8909705Y-12130174D01*
X8909705Y-12130174D02*
X8909705Y-12177793D01*
X8909705Y-12177793D02*
X8900182Y-12215888D01*
X8900182Y-12215888D02*
X8890658Y-12234936D01*
X8890658Y-12234936D02*
X8881134Y-12244460D01*
X8881134Y-12244460D02*
X8862086Y-12253984D01*
X8862086Y-12253984D02*
X8843039Y-12253984D01*
X8843039Y-12253984D02*
X8823991Y-12244460D01*
X8823991Y-12244460D02*
X8814467Y-12234936D01*
X8814467Y-12234936D02*
X8804944Y-12215888D01*
X8804944Y-12215888D02*
X8795420Y-12177793D01*
X8795420Y-12177793D02*
X8795420Y-12130174D01*
X8795420Y-12130174D02*
X8804944Y-12092079D01*
X8804944Y-12092079D02*
X8814467Y-12073031D01*
X8814467Y-12073031D02*
X8823991Y-12063508D01*
X8823991Y-12063508D02*
X8843039Y-12053984D01*
X8995420Y-12253984D02*
X8995420Y-12120650D01*
X8995420Y-12139698D02*
X9004944Y-12130174D01*
X9004944Y-12130174D02*
X9023991Y-12120650D01*
X9023991Y-12120650D02*
X9052563Y-12120650D01*
X9052563Y-12120650D02*
X9071610Y-12130174D01*
X9071610Y-12130174D02*
X9081134Y-12149222D01*
X9081134Y-12149222D02*
X9081134Y-12253984D01*
X9081134Y-12149222D02*
X9090658Y-12130174D01*
X9090658Y-12130174D02*
X9109705Y-12120650D01*
X9109705Y-12120650D02*
X9138277Y-12120650D01*
X9138277Y-12120650D02*
X9157325Y-12130174D01*
X9157325Y-12130174D02*
X9166848Y-12149222D01*
X9166848Y-12149222D02*
X9166848Y-12253984D01*
X9262086Y-12253984D02*
X9262086Y-12120650D01*
X9262086Y-12139698D02*
X9271610Y-12130174D01*
X9271610Y-12130174D02*
X9290658Y-12120650D01*
X9290658Y-12120650D02*
X9319229Y-12120650D01*
X9319229Y-12120650D02*
X9338277Y-12130174D01*
X9338277Y-12130174D02*
X9347801Y-12149222D01*
X9347801Y-12149222D02*
X9347801Y-12253984D01*
X9347801Y-12149222D02*
X9357325Y-12130174D01*
X9357325Y-12130174D02*
X9376372Y-12120650D01*
X9376372Y-12120650D02*
X9404944Y-12120650D01*
X9404944Y-12120650D02*
X9423991Y-12130174D01*
X9423991Y-12130174D02*
X9433515Y-12149222D01*
X9433515Y-12149222D02*
X9433515Y-12253984D01*
X9823991Y-12044460D02*
X9652563Y-12301603D01*
X10081134Y-12053984D02*
X10100182Y-12053984D01*
X10100182Y-12053984D02*
X10119229Y-12063508D01*
X10119229Y-12063508D02*
X10128753Y-12073031D01*
X10128753Y-12073031D02*
X10138277Y-12092079D01*
X10138277Y-12092079D02*
X10147801Y-12130174D01*
X10147801Y-12130174D02*
X10147801Y-12177793D01*
X10147801Y-12177793D02*
X10138277Y-12215888D01*
X10138277Y-12215888D02*
X10128753Y-12234936D01*
X10128753Y-12234936D02*
X10119229Y-12244460D01*
X10119229Y-12244460D02*
X10100182Y-12253984D01*
X10100182Y-12253984D02*
X10081134Y-12253984D01*
X10081134Y-12253984D02*
X10062087Y-12244460D01*
X10062087Y-12244460D02*
X10052563Y-12234936D01*
X10052563Y-12234936D02*
X10043039Y-12215888D01*
X10043039Y-12215888D02*
X10033515Y-12177793D01*
X10033515Y-12177793D02*
X10033515Y-12130174D01*
X10033515Y-12130174D02*
X10043039Y-12092079D01*
X10043039Y-12092079D02*
X10052563Y-12073031D01*
X10052563Y-12073031D02*
X10062087Y-12063508D01*
X10062087Y-12063508D02*
X10081134Y-12053984D01*
X10233515Y-12234936D02*
X10243039Y-12244460D01*
X10243039Y-12244460D02*
X10233515Y-12253984D01*
X10233515Y-12253984D02*
X10223991Y-12244460D01*
X10223991Y-12244460D02*
X10233515Y-12234936D01*
X10233515Y-12234936D02*
X10233515Y-12253984D01*
X10366848Y-12053984D02*
X10385896Y-12053984D01*
X10385896Y-12053984D02*
X10404944Y-12063508D01*
X10404944Y-12063508D02*
X10414468Y-12073031D01*
X10414468Y-12073031D02*
X10423991Y-12092079D01*
X10423991Y-12092079D02*
X10433515Y-12130174D01*
X10433515Y-12130174D02*
X10433515Y-12177793D01*
X10433515Y-12177793D02*
X10423991Y-12215888D01*
X10423991Y-12215888D02*
X10414468Y-12234936D01*
X10414468Y-12234936D02*
X10404944Y-12244460D01*
X10404944Y-12244460D02*
X10385896Y-12253984D01*
X10385896Y-12253984D02*
X10366848Y-12253984D01*
X10366848Y-12253984D02*
X10347801Y-12244460D01*
X10347801Y-12244460D02*
X10338277Y-12234936D01*
X10338277Y-12234936D02*
X10328753Y-12215888D01*
X10328753Y-12215888D02*
X10319229Y-12177793D01*
X10319229Y-12177793D02*
X10319229Y-12130174D01*
X10319229Y-12130174D02*
X10328753Y-12092079D01*
X10328753Y-12092079D02*
X10338277Y-12073031D01*
X10338277Y-12073031D02*
X10347801Y-12063508D01*
X10347801Y-12063508D02*
X10366848Y-12053984D01*
X10623991Y-12253984D02*
X10509706Y-12253984D01*
X10566848Y-12253984D02*
X10566848Y-12053984D01*
X10566848Y-12053984D02*
X10547801Y-12082555D01*
X10547801Y-12082555D02*
X10528753Y-12101603D01*
X10528753Y-12101603D02*
X10509706Y-12111127D01*
X10738277Y-12139698D02*
X10719229Y-12130174D01*
X10719229Y-12130174D02*
X10709706Y-12120650D01*
X10709706Y-12120650D02*
X10700182Y-12101603D01*
X10700182Y-12101603D02*
X10700182Y-12092079D01*
X10700182Y-12092079D02*
X10709706Y-12073031D01*
X10709706Y-12073031D02*
X10719229Y-12063508D01*
X10719229Y-12063508D02*
X10738277Y-12053984D01*
X10738277Y-12053984D02*
X10776372Y-12053984D01*
X10776372Y-12053984D02*
X10795420Y-12063508D01*
X10795420Y-12063508D02*
X10804944Y-12073031D01*
X10804944Y-12073031D02*
X10814468Y-12092079D01*
X10814468Y-12092079D02*
X10814468Y-12101603D01*
X10814468Y-12101603D02*
X10804944Y-12120650D01*
X10804944Y-12120650D02*
X10795420Y-12130174D01*
X10795420Y-12130174D02*
X10776372Y-12139698D01*
X10776372Y-12139698D02*
X10738277Y-12139698D01*
X10738277Y-12139698D02*
X10719229Y-12149222D01*
X10719229Y-12149222D02*
X10709706Y-12158746D01*
X10709706Y-12158746D02*
X10700182Y-12177793D01*
X10700182Y-12177793D02*
X10700182Y-12215888D01*
X10700182Y-12215888D02*
X10709706Y-12234936D01*
X10709706Y-12234936D02*
X10719229Y-12244460D01*
X10719229Y-12244460D02*
X10738277Y-12253984D01*
X10738277Y-12253984D02*
X10776372Y-12253984D01*
X10776372Y-12253984D02*
X10795420Y-12244460D01*
X10795420Y-12244460D02*
X10804944Y-12234936D01*
X10804944Y-12234936D02*
X10814468Y-12215888D01*
X10814468Y-12215888D02*
X10814468Y-12177793D01*
X10814468Y-12177793D02*
X10804944Y-12158746D01*
X10804944Y-12158746D02*
X10795420Y-12149222D01*
X10795420Y-12149222D02*
X10776372Y-12139698D01*
X11004944Y-12253984D02*
X10890658Y-12253984D01*
X10947801Y-12253984D02*
X10947801Y-12053984D01*
X10947801Y-12053984D02*
X10928753Y-12082555D01*
X10928753Y-12082555D02*
X10909706Y-12101603D01*
X10909706Y-12101603D02*
X10890658Y-12111127D01*
X11081134Y-12053984D02*
X11081134Y-12092079D01*
X11157325Y-12053984D02*
X11157325Y-12092079D01*
X11452563Y-12330174D02*
X11443039Y-12320650D01*
X11443039Y-12320650D02*
X11423991Y-12292079D01*
X11423991Y-12292079D02*
X11414468Y-12273031D01*
X11414468Y-12273031D02*
X11404944Y-12244460D01*
X11404944Y-12244460D02*
X11395420Y-12196841D01*
X11395420Y-12196841D02*
X11395420Y-12158746D01*
X11395420Y-12158746D02*
X11404944Y-12111127D01*
X11404944Y-12111127D02*
X11414468Y-12082555D01*
X11414468Y-12082555D02*
X11423991Y-12063508D01*
X11423991Y-12063508D02*
X11443039Y-12034936D01*
X11443039Y-12034936D02*
X11452563Y-12025412D01*
X11519229Y-12073031D02*
X11528753Y-12063508D01*
X11528753Y-12063508D02*
X11547801Y-12053984D01*
X11547801Y-12053984D02*
X11595420Y-12053984D01*
X11595420Y-12053984D02*
X11614468Y-12063508D01*
X11614468Y-12063508D02*
X11623991Y-12073031D01*
X11623991Y-12073031D02*
X11633515Y-12092079D01*
X11633515Y-12092079D02*
X11633515Y-12111127D01*
X11633515Y-12111127D02*
X11623991Y-12139698D01*
X11623991Y-12139698D02*
X11509706Y-12253984D01*
X11509706Y-12253984D02*
X11633515Y-12253984D01*
X11871610Y-12253984D02*
X11871610Y-12053984D01*
X11957325Y-12253984D02*
X11957325Y-12149222D01*
X11957325Y-12149222D02*
X11947801Y-12130174D01*
X11947801Y-12130174D02*
X11928753Y-12120650D01*
X11928753Y-12120650D02*
X11900182Y-12120650D01*
X11900182Y-12120650D02*
X11881134Y-12130174D01*
X11881134Y-12130174D02*
X11871610Y-12139698D01*
X12081134Y-12253984D02*
X12062087Y-12244460D01*
X12062087Y-12244460D02*
X12052563Y-12234936D01*
X12052563Y-12234936D02*
X12043039Y-12215888D01*
X12043039Y-12215888D02*
X12043039Y-12158746D01*
X12043039Y-12158746D02*
X12052563Y-12139698D01*
X12052563Y-12139698D02*
X12062087Y-12130174D01*
X12062087Y-12130174D02*
X12081134Y-12120650D01*
X12081134Y-12120650D02*
X12109706Y-12120650D01*
X12109706Y-12120650D02*
X12128753Y-12130174D01*
X12128753Y-12130174D02*
X12138277Y-12139698D01*
X12138277Y-12139698D02*
X12147801Y-12158746D01*
X12147801Y-12158746D02*
X12147801Y-12215888D01*
X12147801Y-12215888D02*
X12138277Y-12234936D01*
X12138277Y-12234936D02*
X12128753Y-12244460D01*
X12128753Y-12244460D02*
X12109706Y-12253984D01*
X12109706Y-12253984D02*
X12081134Y-12253984D01*
X12262087Y-12253984D02*
X12243039Y-12244460D01*
X12243039Y-12244460D02*
X12233515Y-12225412D01*
X12233515Y-12225412D02*
X12233515Y-12053984D01*
X12414468Y-12244460D02*
X12395420Y-12253984D01*
X12395420Y-12253984D02*
X12357325Y-12253984D01*
X12357325Y-12253984D02*
X12338277Y-12244460D01*
X12338277Y-12244460D02*
X12328753Y-12225412D01*
X12328753Y-12225412D02*
X12328753Y-12149222D01*
X12328753Y-12149222D02*
X12338277Y-12130174D01*
X12338277Y-12130174D02*
X12357325Y-12120650D01*
X12357325Y-12120650D02*
X12395420Y-12120650D01*
X12395420Y-12120650D02*
X12414468Y-12130174D01*
X12414468Y-12130174D02*
X12423991Y-12149222D01*
X12423991Y-12149222D02*
X12423991Y-12168269D01*
X12423991Y-12168269D02*
X12328753Y-12187317D01*
X12500182Y-12244460D02*
X12519230Y-12253984D01*
X12519230Y-12253984D02*
X12557325Y-12253984D01*
X12557325Y-12253984D02*
X12576372Y-12244460D01*
X12576372Y-12244460D02*
X12585896Y-12225412D01*
X12585896Y-12225412D02*
X12585896Y-12215888D01*
X12585896Y-12215888D02*
X12576372Y-12196841D01*
X12576372Y-12196841D02*
X12557325Y-12187317D01*
X12557325Y-12187317D02*
X12528753Y-12187317D01*
X12528753Y-12187317D02*
X12509706Y-12177793D01*
X12509706Y-12177793D02*
X12500182Y-12158746D01*
X12500182Y-12158746D02*
X12500182Y-12149222D01*
X12500182Y-12149222D02*
X12509706Y-12130174D01*
X12509706Y-12130174D02*
X12528753Y-12120650D01*
X12528753Y-12120650D02*
X12557325Y-12120650D01*
X12557325Y-12120650D02*
X12576372Y-12130174D01*
X12652563Y-12330174D02*
X12662087Y-12320650D01*
X12662087Y-12320650D02*
X12681134Y-12292079D01*
X12681134Y-12292079D02*
X12690658Y-12273031D01*
X12690658Y-12273031D02*
X12700182Y-12244460D01*
X12700182Y-12244460D02*
X12709706Y-12196841D01*
X12709706Y-12196841D02*
X12709706Y-12158746D01*
X12709706Y-12158746D02*
X12700182Y-12111127D01*
X12700182Y-12111127D02*
X12690658Y-12082555D01*
X12690658Y-12082555D02*
X12681134Y-12063508D01*
X12681134Y-12063508D02*
X12662087Y-12034936D01*
X12662087Y-12034936D02*
X12652563Y-12025412D01*
D11*
X7827500Y-12476500D02*
X7877500Y-12426500D01*
X7827500Y-12376500D01*
X7777500Y-12426500D01*
X7827500Y-12476500D01*
D10*
X8243039Y-12517984D02*
X8128753Y-12517984D01*
X8185896Y-12517984D02*
X8185896Y-12317984D01*
X8185896Y-12317984D02*
X8166848Y-12346555D01*
X8166848Y-12346555D02*
X8147801Y-12365603D01*
X8147801Y-12365603D02*
X8128753Y-12375127D01*
X8328753Y-12498936D02*
X8338277Y-12508460D01*
X8338277Y-12508460D02*
X8328753Y-12517984D01*
X8328753Y-12517984D02*
X8319229Y-12508460D01*
X8319229Y-12508460D02*
X8328753Y-12498936D01*
X8328753Y-12498936D02*
X8328753Y-12517984D01*
X8462086Y-12317984D02*
X8481134Y-12317984D01*
X8481134Y-12317984D02*
X8500182Y-12327508D01*
X8500182Y-12327508D02*
X8509705Y-12337031D01*
X8509705Y-12337031D02*
X8519229Y-12356079D01*
X8519229Y-12356079D02*
X8528753Y-12394174D01*
X8528753Y-12394174D02*
X8528753Y-12441793D01*
X8528753Y-12441793D02*
X8519229Y-12479888D01*
X8519229Y-12479888D02*
X8509705Y-12498936D01*
X8509705Y-12498936D02*
X8500182Y-12508460D01*
X8500182Y-12508460D02*
X8481134Y-12517984D01*
X8481134Y-12517984D02*
X8462086Y-12517984D01*
X8462086Y-12517984D02*
X8443039Y-12508460D01*
X8443039Y-12508460D02*
X8433515Y-12498936D01*
X8433515Y-12498936D02*
X8423991Y-12479888D01*
X8423991Y-12479888D02*
X8414467Y-12441793D01*
X8414467Y-12441793D02*
X8414467Y-12394174D01*
X8414467Y-12394174D02*
X8423991Y-12356079D01*
X8423991Y-12356079D02*
X8433515Y-12337031D01*
X8433515Y-12337031D02*
X8443039Y-12327508D01*
X8443039Y-12327508D02*
X8462086Y-12317984D01*
X8652563Y-12317984D02*
X8671610Y-12317984D01*
X8671610Y-12317984D02*
X8690658Y-12327508D01*
X8690658Y-12327508D02*
X8700182Y-12337031D01*
X8700182Y-12337031D02*
X8709705Y-12356079D01*
X8709705Y-12356079D02*
X8719229Y-12394174D01*
X8719229Y-12394174D02*
X8719229Y-12441793D01*
X8719229Y-12441793D02*
X8709705Y-12479888D01*
X8709705Y-12479888D02*
X8700182Y-12498936D01*
X8700182Y-12498936D02*
X8690658Y-12508460D01*
X8690658Y-12508460D02*
X8671610Y-12517984D01*
X8671610Y-12517984D02*
X8652563Y-12517984D01*
X8652563Y-12517984D02*
X8633515Y-12508460D01*
X8633515Y-12508460D02*
X8623991Y-12498936D01*
X8623991Y-12498936D02*
X8614467Y-12479888D01*
X8614467Y-12479888D02*
X8604944Y-12441793D01*
X8604944Y-12441793D02*
X8604944Y-12394174D01*
X8604944Y-12394174D02*
X8614467Y-12356079D01*
X8614467Y-12356079D02*
X8623991Y-12337031D01*
X8623991Y-12337031D02*
X8633515Y-12327508D01*
X8633515Y-12327508D02*
X8652563Y-12317984D01*
X8843039Y-12317984D02*
X8862086Y-12317984D01*
X8862086Y-12317984D02*
X8881134Y-12327508D01*
X8881134Y-12327508D02*
X8890658Y-12337031D01*
X8890658Y-12337031D02*
X8900182Y-12356079D01*
X8900182Y-12356079D02*
X8909705Y-12394174D01*
X8909705Y-12394174D02*
X8909705Y-12441793D01*
X8909705Y-12441793D02*
X8900182Y-12479888D01*
X8900182Y-12479888D02*
X8890658Y-12498936D01*
X8890658Y-12498936D02*
X8881134Y-12508460D01*
X8881134Y-12508460D02*
X8862086Y-12517984D01*
X8862086Y-12517984D02*
X8843039Y-12517984D01*
X8843039Y-12517984D02*
X8823991Y-12508460D01*
X8823991Y-12508460D02*
X8814467Y-12498936D01*
X8814467Y-12498936D02*
X8804944Y-12479888D01*
X8804944Y-12479888D02*
X8795420Y-12441793D01*
X8795420Y-12441793D02*
X8795420Y-12394174D01*
X8795420Y-12394174D02*
X8804944Y-12356079D01*
X8804944Y-12356079D02*
X8814467Y-12337031D01*
X8814467Y-12337031D02*
X8823991Y-12327508D01*
X8823991Y-12327508D02*
X8843039Y-12317984D01*
X8995420Y-12517984D02*
X8995420Y-12384650D01*
X8995420Y-12403698D02*
X9004944Y-12394174D01*
X9004944Y-12394174D02*
X9023991Y-12384650D01*
X9023991Y-12384650D02*
X9052563Y-12384650D01*
X9052563Y-12384650D02*
X9071610Y-12394174D01*
X9071610Y-12394174D02*
X9081134Y-12413222D01*
X9081134Y-12413222D02*
X9081134Y-12517984D01*
X9081134Y-12413222D02*
X9090658Y-12394174D01*
X9090658Y-12394174D02*
X9109705Y-12384650D01*
X9109705Y-12384650D02*
X9138277Y-12384650D01*
X9138277Y-12384650D02*
X9157325Y-12394174D01*
X9157325Y-12394174D02*
X9166848Y-12413222D01*
X9166848Y-12413222D02*
X9166848Y-12517984D01*
X9262086Y-12517984D02*
X9262086Y-12384650D01*
X9262086Y-12403698D02*
X9271610Y-12394174D01*
X9271610Y-12394174D02*
X9290658Y-12384650D01*
X9290658Y-12384650D02*
X9319229Y-12384650D01*
X9319229Y-12384650D02*
X9338277Y-12394174D01*
X9338277Y-12394174D02*
X9347801Y-12413222D01*
X9347801Y-12413222D02*
X9347801Y-12517984D01*
X9347801Y-12413222D02*
X9357325Y-12394174D01*
X9357325Y-12394174D02*
X9376372Y-12384650D01*
X9376372Y-12384650D02*
X9404944Y-12384650D01*
X9404944Y-12384650D02*
X9423991Y-12394174D01*
X9423991Y-12394174D02*
X9433515Y-12413222D01*
X9433515Y-12413222D02*
X9433515Y-12517984D01*
X9823991Y-12308460D02*
X9652563Y-12565603D01*
X10081134Y-12317984D02*
X10100182Y-12317984D01*
X10100182Y-12317984D02*
X10119229Y-12327508D01*
X10119229Y-12327508D02*
X10128753Y-12337031D01*
X10128753Y-12337031D02*
X10138277Y-12356079D01*
X10138277Y-12356079D02*
X10147801Y-12394174D01*
X10147801Y-12394174D02*
X10147801Y-12441793D01*
X10147801Y-12441793D02*
X10138277Y-12479888D01*
X10138277Y-12479888D02*
X10128753Y-12498936D01*
X10128753Y-12498936D02*
X10119229Y-12508460D01*
X10119229Y-12508460D02*
X10100182Y-12517984D01*
X10100182Y-12517984D02*
X10081134Y-12517984D01*
X10081134Y-12517984D02*
X10062087Y-12508460D01*
X10062087Y-12508460D02*
X10052563Y-12498936D01*
X10052563Y-12498936D02*
X10043039Y-12479888D01*
X10043039Y-12479888D02*
X10033515Y-12441793D01*
X10033515Y-12441793D02*
X10033515Y-12394174D01*
X10033515Y-12394174D02*
X10043039Y-12356079D01*
X10043039Y-12356079D02*
X10052563Y-12337031D01*
X10052563Y-12337031D02*
X10062087Y-12327508D01*
X10062087Y-12327508D02*
X10081134Y-12317984D01*
X10233515Y-12498936D02*
X10243039Y-12508460D01*
X10243039Y-12508460D02*
X10233515Y-12517984D01*
X10233515Y-12517984D02*
X10223991Y-12508460D01*
X10223991Y-12508460D02*
X10233515Y-12498936D01*
X10233515Y-12498936D02*
X10233515Y-12517984D01*
X10366848Y-12317984D02*
X10385896Y-12317984D01*
X10385896Y-12317984D02*
X10404944Y-12327508D01*
X10404944Y-12327508D02*
X10414468Y-12337031D01*
X10414468Y-12337031D02*
X10423991Y-12356079D01*
X10423991Y-12356079D02*
X10433515Y-12394174D01*
X10433515Y-12394174D02*
X10433515Y-12441793D01*
X10433515Y-12441793D02*
X10423991Y-12479888D01*
X10423991Y-12479888D02*
X10414468Y-12498936D01*
X10414468Y-12498936D02*
X10404944Y-12508460D01*
X10404944Y-12508460D02*
X10385896Y-12517984D01*
X10385896Y-12517984D02*
X10366848Y-12517984D01*
X10366848Y-12517984D02*
X10347801Y-12508460D01*
X10347801Y-12508460D02*
X10338277Y-12498936D01*
X10338277Y-12498936D02*
X10328753Y-12479888D01*
X10328753Y-12479888D02*
X10319229Y-12441793D01*
X10319229Y-12441793D02*
X10319229Y-12394174D01*
X10319229Y-12394174D02*
X10328753Y-12356079D01*
X10328753Y-12356079D02*
X10338277Y-12337031D01*
X10338277Y-12337031D02*
X10347801Y-12327508D01*
X10347801Y-12327508D02*
X10366848Y-12317984D01*
X10500182Y-12317984D02*
X10623991Y-12317984D01*
X10623991Y-12317984D02*
X10557325Y-12394174D01*
X10557325Y-12394174D02*
X10585896Y-12394174D01*
X10585896Y-12394174D02*
X10604944Y-12403698D01*
X10604944Y-12403698D02*
X10614468Y-12413222D01*
X10614468Y-12413222D02*
X10623991Y-12432269D01*
X10623991Y-12432269D02*
X10623991Y-12479888D01*
X10623991Y-12479888D02*
X10614468Y-12498936D01*
X10614468Y-12498936D02*
X10604944Y-12508460D01*
X10604944Y-12508460D02*
X10585896Y-12517984D01*
X10585896Y-12517984D02*
X10528753Y-12517984D01*
X10528753Y-12517984D02*
X10509706Y-12508460D01*
X10509706Y-12508460D02*
X10500182Y-12498936D01*
X10719229Y-12517984D02*
X10757325Y-12517984D01*
X10757325Y-12517984D02*
X10776372Y-12508460D01*
X10776372Y-12508460D02*
X10785896Y-12498936D01*
X10785896Y-12498936D02*
X10804944Y-12470365D01*
X10804944Y-12470365D02*
X10814468Y-12432269D01*
X10814468Y-12432269D02*
X10814468Y-12356079D01*
X10814468Y-12356079D02*
X10804944Y-12337031D01*
X10804944Y-12337031D02*
X10795420Y-12327508D01*
X10795420Y-12327508D02*
X10776372Y-12317984D01*
X10776372Y-12317984D02*
X10738277Y-12317984D01*
X10738277Y-12317984D02*
X10719229Y-12327508D01*
X10719229Y-12327508D02*
X10709706Y-12337031D01*
X10709706Y-12337031D02*
X10700182Y-12356079D01*
X10700182Y-12356079D02*
X10700182Y-12403698D01*
X10700182Y-12403698D02*
X10709706Y-12422746D01*
X10709706Y-12422746D02*
X10719229Y-12432269D01*
X10719229Y-12432269D02*
X10738277Y-12441793D01*
X10738277Y-12441793D02*
X10776372Y-12441793D01*
X10776372Y-12441793D02*
X10795420Y-12432269D01*
X10795420Y-12432269D02*
X10804944Y-12422746D01*
X10804944Y-12422746D02*
X10814468Y-12403698D01*
X10985896Y-12384650D02*
X10985896Y-12517984D01*
X10938277Y-12308460D02*
X10890658Y-12451317D01*
X10890658Y-12451317D02*
X11014468Y-12451317D01*
X11081134Y-12317984D02*
X11081134Y-12356079D01*
X11157325Y-12317984D02*
X11157325Y-12356079D01*
X11452563Y-12594174D02*
X11443039Y-12584650D01*
X11443039Y-12584650D02*
X11423991Y-12556079D01*
X11423991Y-12556079D02*
X11414468Y-12537031D01*
X11414468Y-12537031D02*
X11404944Y-12508460D01*
X11404944Y-12508460D02*
X11395420Y-12460841D01*
X11395420Y-12460841D02*
X11395420Y-12422746D01*
X11395420Y-12422746D02*
X11404944Y-12375127D01*
X11404944Y-12375127D02*
X11414468Y-12346555D01*
X11414468Y-12346555D02*
X11423991Y-12327508D01*
X11423991Y-12327508D02*
X11443039Y-12298936D01*
X11443039Y-12298936D02*
X11452563Y-12289412D01*
X11509706Y-12317984D02*
X11643039Y-12317984D01*
X11643039Y-12317984D02*
X11557325Y-12517984D01*
X11700182Y-12317984D02*
X11823991Y-12317984D01*
X11823991Y-12317984D02*
X11757325Y-12394174D01*
X11757325Y-12394174D02*
X11785896Y-12394174D01*
X11785896Y-12394174D02*
X11804944Y-12403698D01*
X11804944Y-12403698D02*
X11814468Y-12413222D01*
X11814468Y-12413222D02*
X11823991Y-12432269D01*
X11823991Y-12432269D02*
X11823991Y-12479888D01*
X11823991Y-12479888D02*
X11814468Y-12498936D01*
X11814468Y-12498936D02*
X11804944Y-12508460D01*
X11804944Y-12508460D02*
X11785896Y-12517984D01*
X11785896Y-12517984D02*
X11728753Y-12517984D01*
X11728753Y-12517984D02*
X11709706Y-12508460D01*
X11709706Y-12508460D02*
X11700182Y-12498936D01*
X12062087Y-12517984D02*
X12062087Y-12317984D01*
X12147801Y-12517984D02*
X12147801Y-12413222D01*
X12147801Y-12413222D02*
X12138277Y-12394174D01*
X12138277Y-12394174D02*
X12119230Y-12384650D01*
X12119230Y-12384650D02*
X12090658Y-12384650D01*
X12090658Y-12384650D02*
X12071610Y-12394174D01*
X12071610Y-12394174D02*
X12062087Y-12403698D01*
X12271610Y-12517984D02*
X12252563Y-12508460D01*
X12252563Y-12508460D02*
X12243039Y-12498936D01*
X12243039Y-12498936D02*
X12233515Y-12479888D01*
X12233515Y-12479888D02*
X12233515Y-12422746D01*
X12233515Y-12422746D02*
X12243039Y-12403698D01*
X12243039Y-12403698D02*
X12252563Y-12394174D01*
X12252563Y-12394174D02*
X12271610Y-12384650D01*
X12271610Y-12384650D02*
X12300182Y-12384650D01*
X12300182Y-12384650D02*
X12319230Y-12394174D01*
X12319230Y-12394174D02*
X12328753Y-12403698D01*
X12328753Y-12403698D02*
X12338277Y-12422746D01*
X12338277Y-12422746D02*
X12338277Y-12479888D01*
X12338277Y-12479888D02*
X12328753Y-12498936D01*
X12328753Y-12498936D02*
X12319230Y-12508460D01*
X12319230Y-12508460D02*
X12300182Y-12517984D01*
X12300182Y-12517984D02*
X12271610Y-12517984D01*
X12452563Y-12517984D02*
X12433515Y-12508460D01*
X12433515Y-12508460D02*
X12423991Y-12489412D01*
X12423991Y-12489412D02*
X12423991Y-12317984D01*
X12604944Y-12508460D02*
X12585896Y-12517984D01*
X12585896Y-12517984D02*
X12547801Y-12517984D01*
X12547801Y-12517984D02*
X12528753Y-12508460D01*
X12528753Y-12508460D02*
X12519230Y-12489412D01*
X12519230Y-12489412D02*
X12519230Y-12413222D01*
X12519230Y-12413222D02*
X12528753Y-12394174D01*
X12528753Y-12394174D02*
X12547801Y-12384650D01*
X12547801Y-12384650D02*
X12585896Y-12384650D01*
X12585896Y-12384650D02*
X12604944Y-12394174D01*
X12604944Y-12394174D02*
X12614468Y-12413222D01*
X12614468Y-12413222D02*
X12614468Y-12432269D01*
X12614468Y-12432269D02*
X12519230Y-12451317D01*
X12690658Y-12508460D02*
X12709706Y-12517984D01*
X12709706Y-12517984D02*
X12747801Y-12517984D01*
X12747801Y-12517984D02*
X12766849Y-12508460D01*
X12766849Y-12508460D02*
X12776372Y-12489412D01*
X12776372Y-12489412D02*
X12776372Y-12479888D01*
X12776372Y-12479888D02*
X12766849Y-12460841D01*
X12766849Y-12460841D02*
X12747801Y-12451317D01*
X12747801Y-12451317D02*
X12719230Y-12451317D01*
X12719230Y-12451317D02*
X12700182Y-12441793D01*
X12700182Y-12441793D02*
X12690658Y-12422746D01*
X12690658Y-12422746D02*
X12690658Y-12413222D01*
X12690658Y-12413222D02*
X12700182Y-12394174D01*
X12700182Y-12394174D02*
X12719230Y-12384650D01*
X12719230Y-12384650D02*
X12747801Y-12384650D01*
X12747801Y-12384650D02*
X12766849Y-12394174D01*
X12843039Y-12594174D02*
X12852563Y-12584650D01*
X12852563Y-12584650D02*
X12871611Y-12556079D01*
X12871611Y-12556079D02*
X12881134Y-12537031D01*
X12881134Y-12537031D02*
X12890658Y-12508460D01*
X12890658Y-12508460D02*
X12900182Y-12460841D01*
X12900182Y-12460841D02*
X12900182Y-12422746D01*
X12900182Y-12422746D02*
X12890658Y-12375127D01*
X12890658Y-12375127D02*
X12881134Y-12346555D01*
X12881134Y-12346555D02*
X12871611Y-12327508D01*
X12871611Y-12327508D02*
X12852563Y-12298936D01*
X12852563Y-12298936D02*
X12843039Y-12289412D01*
X7677500Y-12590500D02*
X7877500Y-12790500D01*
X7877500Y-12590500D02*
X7677500Y-12790500D01*
X7877500Y-12690500D02*
G75*
G03*
X7877500Y-12690500I-100000J0D01*
G01*
X8119229Y-12581984D02*
X8243039Y-12581984D01*
X8243039Y-12581984D02*
X8176372Y-12658174D01*
X8176372Y-12658174D02*
X8204943Y-12658174D01*
X8204943Y-12658174D02*
X8223991Y-12667698D01*
X8223991Y-12667698D02*
X8233515Y-12677222D01*
X8233515Y-12677222D02*
X8243039Y-12696269D01*
X8243039Y-12696269D02*
X8243039Y-12743888D01*
X8243039Y-12743888D02*
X8233515Y-12762936D01*
X8233515Y-12762936D02*
X8223991Y-12772460D01*
X8223991Y-12772460D02*
X8204943Y-12781984D01*
X8204943Y-12781984D02*
X8147801Y-12781984D01*
X8147801Y-12781984D02*
X8128753Y-12772460D01*
X8128753Y-12772460D02*
X8119229Y-12762936D01*
X8328753Y-12762936D02*
X8338277Y-12772460D01*
X8338277Y-12772460D02*
X8328753Y-12781984D01*
X8328753Y-12781984D02*
X8319229Y-12772460D01*
X8319229Y-12772460D02*
X8328753Y-12762936D01*
X8328753Y-12762936D02*
X8328753Y-12781984D01*
X8414467Y-12601031D02*
X8423991Y-12591508D01*
X8423991Y-12591508D02*
X8443039Y-12581984D01*
X8443039Y-12581984D02*
X8490658Y-12581984D01*
X8490658Y-12581984D02*
X8509705Y-12591508D01*
X8509705Y-12591508D02*
X8519229Y-12601031D01*
X8519229Y-12601031D02*
X8528753Y-12620079D01*
X8528753Y-12620079D02*
X8528753Y-12639127D01*
X8528753Y-12639127D02*
X8519229Y-12667698D01*
X8519229Y-12667698D02*
X8404944Y-12781984D01*
X8404944Y-12781984D02*
X8528753Y-12781984D01*
X8652563Y-12581984D02*
X8671610Y-12581984D01*
X8671610Y-12581984D02*
X8690658Y-12591508D01*
X8690658Y-12591508D02*
X8700182Y-12601031D01*
X8700182Y-12601031D02*
X8709705Y-12620079D01*
X8709705Y-12620079D02*
X8719229Y-12658174D01*
X8719229Y-12658174D02*
X8719229Y-12705793D01*
X8719229Y-12705793D02*
X8709705Y-12743888D01*
X8709705Y-12743888D02*
X8700182Y-12762936D01*
X8700182Y-12762936D02*
X8690658Y-12772460D01*
X8690658Y-12772460D02*
X8671610Y-12781984D01*
X8671610Y-12781984D02*
X8652563Y-12781984D01*
X8652563Y-12781984D02*
X8633515Y-12772460D01*
X8633515Y-12772460D02*
X8623991Y-12762936D01*
X8623991Y-12762936D02*
X8614467Y-12743888D01*
X8614467Y-12743888D02*
X8604944Y-12705793D01*
X8604944Y-12705793D02*
X8604944Y-12658174D01*
X8604944Y-12658174D02*
X8614467Y-12620079D01*
X8614467Y-12620079D02*
X8623991Y-12601031D01*
X8623991Y-12601031D02*
X8633515Y-12591508D01*
X8633515Y-12591508D02*
X8652563Y-12581984D01*
X8843039Y-12581984D02*
X8862086Y-12581984D01*
X8862086Y-12581984D02*
X8881134Y-12591508D01*
X8881134Y-12591508D02*
X8890658Y-12601031D01*
X8890658Y-12601031D02*
X8900182Y-12620079D01*
X8900182Y-12620079D02*
X8909705Y-12658174D01*
X8909705Y-12658174D02*
X8909705Y-12705793D01*
X8909705Y-12705793D02*
X8900182Y-12743888D01*
X8900182Y-12743888D02*
X8890658Y-12762936D01*
X8890658Y-12762936D02*
X8881134Y-12772460D01*
X8881134Y-12772460D02*
X8862086Y-12781984D01*
X8862086Y-12781984D02*
X8843039Y-12781984D01*
X8843039Y-12781984D02*
X8823991Y-12772460D01*
X8823991Y-12772460D02*
X8814467Y-12762936D01*
X8814467Y-12762936D02*
X8804944Y-12743888D01*
X8804944Y-12743888D02*
X8795420Y-12705793D01*
X8795420Y-12705793D02*
X8795420Y-12658174D01*
X8795420Y-12658174D02*
X8804944Y-12620079D01*
X8804944Y-12620079D02*
X8814467Y-12601031D01*
X8814467Y-12601031D02*
X8823991Y-12591508D01*
X8823991Y-12591508D02*
X8843039Y-12581984D01*
X8995420Y-12781984D02*
X8995420Y-12648650D01*
X8995420Y-12667698D02*
X9004944Y-12658174D01*
X9004944Y-12658174D02*
X9023991Y-12648650D01*
X9023991Y-12648650D02*
X9052563Y-12648650D01*
X9052563Y-12648650D02*
X9071610Y-12658174D01*
X9071610Y-12658174D02*
X9081134Y-12677222D01*
X9081134Y-12677222D02*
X9081134Y-12781984D01*
X9081134Y-12677222D02*
X9090658Y-12658174D01*
X9090658Y-12658174D02*
X9109705Y-12648650D01*
X9109705Y-12648650D02*
X9138277Y-12648650D01*
X9138277Y-12648650D02*
X9157325Y-12658174D01*
X9157325Y-12658174D02*
X9166848Y-12677222D01*
X9166848Y-12677222D02*
X9166848Y-12781984D01*
X9262086Y-12781984D02*
X9262086Y-12648650D01*
X9262086Y-12667698D02*
X9271610Y-12658174D01*
X9271610Y-12658174D02*
X9290658Y-12648650D01*
X9290658Y-12648650D02*
X9319229Y-12648650D01*
X9319229Y-12648650D02*
X9338277Y-12658174D01*
X9338277Y-12658174D02*
X9347801Y-12677222D01*
X9347801Y-12677222D02*
X9347801Y-12781984D01*
X9347801Y-12677222D02*
X9357325Y-12658174D01*
X9357325Y-12658174D02*
X9376372Y-12648650D01*
X9376372Y-12648650D02*
X9404944Y-12648650D01*
X9404944Y-12648650D02*
X9423991Y-12658174D01*
X9423991Y-12658174D02*
X9433515Y-12677222D01*
X9433515Y-12677222D02*
X9433515Y-12781984D01*
X9823991Y-12572460D02*
X9652563Y-12829603D01*
X10081134Y-12581984D02*
X10100182Y-12581984D01*
X10100182Y-12581984D02*
X10119229Y-12591508D01*
X10119229Y-12591508D02*
X10128753Y-12601031D01*
X10128753Y-12601031D02*
X10138277Y-12620079D01*
X10138277Y-12620079D02*
X10147801Y-12658174D01*
X10147801Y-12658174D02*
X10147801Y-12705793D01*
X10147801Y-12705793D02*
X10138277Y-12743888D01*
X10138277Y-12743888D02*
X10128753Y-12762936D01*
X10128753Y-12762936D02*
X10119229Y-12772460D01*
X10119229Y-12772460D02*
X10100182Y-12781984D01*
X10100182Y-12781984D02*
X10081134Y-12781984D01*
X10081134Y-12781984D02*
X10062087Y-12772460D01*
X10062087Y-12772460D02*
X10052563Y-12762936D01*
X10052563Y-12762936D02*
X10043039Y-12743888D01*
X10043039Y-12743888D02*
X10033515Y-12705793D01*
X10033515Y-12705793D02*
X10033515Y-12658174D01*
X10033515Y-12658174D02*
X10043039Y-12620079D01*
X10043039Y-12620079D02*
X10052563Y-12601031D01*
X10052563Y-12601031D02*
X10062087Y-12591508D01*
X10062087Y-12591508D02*
X10081134Y-12581984D01*
X10233515Y-12762936D02*
X10243039Y-12772460D01*
X10243039Y-12772460D02*
X10233515Y-12781984D01*
X10233515Y-12781984D02*
X10223991Y-12772460D01*
X10223991Y-12772460D02*
X10233515Y-12762936D01*
X10233515Y-12762936D02*
X10233515Y-12781984D01*
X10433515Y-12781984D02*
X10319229Y-12781984D01*
X10376372Y-12781984D02*
X10376372Y-12581984D01*
X10376372Y-12581984D02*
X10357325Y-12610555D01*
X10357325Y-12610555D02*
X10338277Y-12629603D01*
X10338277Y-12629603D02*
X10319229Y-12639127D01*
X10509706Y-12601031D02*
X10519229Y-12591508D01*
X10519229Y-12591508D02*
X10538277Y-12581984D01*
X10538277Y-12581984D02*
X10585896Y-12581984D01*
X10585896Y-12581984D02*
X10604944Y-12591508D01*
X10604944Y-12591508D02*
X10614468Y-12601031D01*
X10614468Y-12601031D02*
X10623991Y-12620079D01*
X10623991Y-12620079D02*
X10623991Y-12639127D01*
X10623991Y-12639127D02*
X10614468Y-12667698D01*
X10614468Y-12667698D02*
X10500182Y-12781984D01*
X10500182Y-12781984D02*
X10623991Y-12781984D01*
X10795420Y-12581984D02*
X10757325Y-12581984D01*
X10757325Y-12581984D02*
X10738277Y-12591508D01*
X10738277Y-12591508D02*
X10728753Y-12601031D01*
X10728753Y-12601031D02*
X10709706Y-12629603D01*
X10709706Y-12629603D02*
X10700182Y-12667698D01*
X10700182Y-12667698D02*
X10700182Y-12743888D01*
X10700182Y-12743888D02*
X10709706Y-12762936D01*
X10709706Y-12762936D02*
X10719229Y-12772460D01*
X10719229Y-12772460D02*
X10738277Y-12781984D01*
X10738277Y-12781984D02*
X10776372Y-12781984D01*
X10776372Y-12781984D02*
X10795420Y-12772460D01*
X10795420Y-12772460D02*
X10804944Y-12762936D01*
X10804944Y-12762936D02*
X10814468Y-12743888D01*
X10814468Y-12743888D02*
X10814468Y-12696269D01*
X10814468Y-12696269D02*
X10804944Y-12677222D01*
X10804944Y-12677222D02*
X10795420Y-12667698D01*
X10795420Y-12667698D02*
X10776372Y-12658174D01*
X10776372Y-12658174D02*
X10738277Y-12658174D01*
X10738277Y-12658174D02*
X10719229Y-12667698D01*
X10719229Y-12667698D02*
X10709706Y-12677222D01*
X10709706Y-12677222D02*
X10700182Y-12696269D01*
X10938277Y-12581984D02*
X10957325Y-12581984D01*
X10957325Y-12581984D02*
X10976372Y-12591508D01*
X10976372Y-12591508D02*
X10985896Y-12601031D01*
X10985896Y-12601031D02*
X10995420Y-12620079D01*
X10995420Y-12620079D02*
X11004944Y-12658174D01*
X11004944Y-12658174D02*
X11004944Y-12705793D01*
X11004944Y-12705793D02*
X10995420Y-12743888D01*
X10995420Y-12743888D02*
X10985896Y-12762936D01*
X10985896Y-12762936D02*
X10976372Y-12772460D01*
X10976372Y-12772460D02*
X10957325Y-12781984D01*
X10957325Y-12781984D02*
X10938277Y-12781984D01*
X10938277Y-12781984D02*
X10919229Y-12772460D01*
X10919229Y-12772460D02*
X10909706Y-12762936D01*
X10909706Y-12762936D02*
X10900182Y-12743888D01*
X10900182Y-12743888D02*
X10890658Y-12705793D01*
X10890658Y-12705793D02*
X10890658Y-12658174D01*
X10890658Y-12658174D02*
X10900182Y-12620079D01*
X10900182Y-12620079D02*
X10909706Y-12601031D01*
X10909706Y-12601031D02*
X10919229Y-12591508D01*
X10919229Y-12591508D02*
X10938277Y-12581984D01*
X11081134Y-12581984D02*
X11081134Y-12620079D01*
X11157325Y-12581984D02*
X11157325Y-12620079D01*
X11452563Y-12858174D02*
X11443039Y-12848650D01*
X11443039Y-12848650D02*
X11423991Y-12820079D01*
X11423991Y-12820079D02*
X11414468Y-12801031D01*
X11414468Y-12801031D02*
X11404944Y-12772460D01*
X11404944Y-12772460D02*
X11395420Y-12724841D01*
X11395420Y-12724841D02*
X11395420Y-12686746D01*
X11395420Y-12686746D02*
X11404944Y-12639127D01*
X11404944Y-12639127D02*
X11414468Y-12610555D01*
X11414468Y-12610555D02*
X11423991Y-12591508D01*
X11423991Y-12591508D02*
X11443039Y-12562936D01*
X11443039Y-12562936D02*
X11452563Y-12553412D01*
X11614468Y-12648650D02*
X11614468Y-12781984D01*
X11566848Y-12572460D02*
X11519229Y-12715317D01*
X11519229Y-12715317D02*
X11643039Y-12715317D01*
X11871610Y-12781984D02*
X11871610Y-12581984D01*
X11957325Y-12781984D02*
X11957325Y-12677222D01*
X11957325Y-12677222D02*
X11947801Y-12658174D01*
X11947801Y-12658174D02*
X11928753Y-12648650D01*
X11928753Y-12648650D02*
X11900182Y-12648650D01*
X11900182Y-12648650D02*
X11881134Y-12658174D01*
X11881134Y-12658174D02*
X11871610Y-12667698D01*
X12081134Y-12781984D02*
X12062087Y-12772460D01*
X12062087Y-12772460D02*
X12052563Y-12762936D01*
X12052563Y-12762936D02*
X12043039Y-12743888D01*
X12043039Y-12743888D02*
X12043039Y-12686746D01*
X12043039Y-12686746D02*
X12052563Y-12667698D01*
X12052563Y-12667698D02*
X12062087Y-12658174D01*
X12062087Y-12658174D02*
X12081134Y-12648650D01*
X12081134Y-12648650D02*
X12109706Y-12648650D01*
X12109706Y-12648650D02*
X12128753Y-12658174D01*
X12128753Y-12658174D02*
X12138277Y-12667698D01*
X12138277Y-12667698D02*
X12147801Y-12686746D01*
X12147801Y-12686746D02*
X12147801Y-12743888D01*
X12147801Y-12743888D02*
X12138277Y-12762936D01*
X12138277Y-12762936D02*
X12128753Y-12772460D01*
X12128753Y-12772460D02*
X12109706Y-12781984D01*
X12109706Y-12781984D02*
X12081134Y-12781984D01*
X12262087Y-12781984D02*
X12243039Y-12772460D01*
X12243039Y-12772460D02*
X12233515Y-12753412D01*
X12233515Y-12753412D02*
X12233515Y-12581984D01*
X12414468Y-12772460D02*
X12395420Y-12781984D01*
X12395420Y-12781984D02*
X12357325Y-12781984D01*
X12357325Y-12781984D02*
X12338277Y-12772460D01*
X12338277Y-12772460D02*
X12328753Y-12753412D01*
X12328753Y-12753412D02*
X12328753Y-12677222D01*
X12328753Y-12677222D02*
X12338277Y-12658174D01*
X12338277Y-12658174D02*
X12357325Y-12648650D01*
X12357325Y-12648650D02*
X12395420Y-12648650D01*
X12395420Y-12648650D02*
X12414468Y-12658174D01*
X12414468Y-12658174D02*
X12423991Y-12677222D01*
X12423991Y-12677222D02*
X12423991Y-12696269D01*
X12423991Y-12696269D02*
X12328753Y-12715317D01*
X12500182Y-12772460D02*
X12519230Y-12781984D01*
X12519230Y-12781984D02*
X12557325Y-12781984D01*
X12557325Y-12781984D02*
X12576372Y-12772460D01*
X12576372Y-12772460D02*
X12585896Y-12753412D01*
X12585896Y-12753412D02*
X12585896Y-12743888D01*
X12585896Y-12743888D02*
X12576372Y-12724841D01*
X12576372Y-12724841D02*
X12557325Y-12715317D01*
X12557325Y-12715317D02*
X12528753Y-12715317D01*
X12528753Y-12715317D02*
X12509706Y-12705793D01*
X12509706Y-12705793D02*
X12500182Y-12686746D01*
X12500182Y-12686746D02*
X12500182Y-12677222D01*
X12500182Y-12677222D02*
X12509706Y-12658174D01*
X12509706Y-12658174D02*
X12528753Y-12648650D01*
X12528753Y-12648650D02*
X12557325Y-12648650D01*
X12557325Y-12648650D02*
X12576372Y-12658174D01*
X12652563Y-12858174D02*
X12662087Y-12848650D01*
X12662087Y-12848650D02*
X12681134Y-12820079D01*
X12681134Y-12820079D02*
X12690658Y-12801031D01*
X12690658Y-12801031D02*
X12700182Y-12772460D01*
X12700182Y-12772460D02*
X12709706Y-12724841D01*
X12709706Y-12724841D02*
X12709706Y-12686746D01*
X12709706Y-12686746D02*
X12700182Y-12639127D01*
X12700182Y-12639127D02*
X12690658Y-12610555D01*
X12690658Y-12610555D02*
X12681134Y-12591508D01*
X12681134Y-12591508D02*
X12662087Y-12562936D01*
X12662087Y-12562936D02*
X12652563Y-12553412D01*
M02*
